<svg width="52" height="52" viewBox="0 0 52 52" fill="none" xmlns="http://www.w3.org/2000/svg">
<circle cx="26" cy="26" r="26" fill="#F1F2F5"/>
<path d="M11.8747 33L19.0027 17.49H21.7527L28.8807 33H25.4487L23.9967 29.634H16.7587L15.3287 33H11.8747ZM20.3447 21.12L17.9027 26.972H22.8747L20.3887 21.12H20.3447ZM33.5872 33.242C32.7805 33.242 32.0692 33.088 31.4532 32.78C30.8372 32.472 30.3458 32.054 29.9792 31.526C29.6272 30.998 29.4512 30.404 29.4512 29.744C29.4512 28.9667 29.6565 28.3433 30.0672 27.874C30.4778 27.4047 31.1452 27.0747 32.0692 26.884C32.9932 26.6787 34.2178 26.576 35.7432 26.576H36.5352V26.202C36.5352 25.5567 36.3885 25.102 36.0952 24.838C35.8018 24.5593 35.3032 24.42 34.5992 24.42C34.0125 24.42 33.3892 24.5153 32.7292 24.706C32.0838 24.882 31.4385 25.1533 30.7932 25.52L29.8912 23.298C30.2725 23.0487 30.7345 22.8213 31.2772 22.616C31.8345 22.4107 32.4138 22.2567 33.0152 22.154C33.6165 22.0367 34.1885 21.978 34.7312 21.978C36.4032 21.978 37.6498 22.3593 38.4712 23.122C39.2925 23.87 39.7032 25.036 39.7032 26.62V33H36.6012V31.372C36.3812 31.944 36.0072 32.3987 35.4792 32.736C34.9658 33.0733 34.3352 33.242 33.5872 33.242ZM34.3352 31.02C34.9512 31.02 35.4718 30.8073 35.8972 30.382C36.3225 29.9567 36.5352 29.4067 36.5352 28.732V28.292H35.7652C34.6358 28.292 33.8365 28.3947 33.3672 28.6C32.8978 28.7907 32.6632 29.128 32.6632 29.612C32.6632 30.0227 32.8025 30.36 33.0812 30.624C33.3745 30.888 33.7925 31.02 34.3352 31.02Z" fill="#0A0A0B"/>
</svg>
