<svg width="24" height="24" viewBox="0 0 24 24" fill="none" xmlns="http://www.w3.org/2000/svg">
<path fill-rule="evenodd" clip-rule="evenodd" d="M19.9019 4.09805C19.5537 3.74972 19.1403 3.47341 18.6852 3.28489C18.2302 3.09638 17.7425 2.99935 17.2499 2.99935C16.7574 2.99935 16.2697 3.09638 15.8146 3.28489C15.3596 3.47341 14.9462 3.74972 14.5979 4.09805L10.0979 8.59805C9.67339 9.02221 9.35685 9.54208 9.1749 10.114C8.99296 10.6858 8.95093 11.293 9.05234 11.8845C9.15374 12.476 9.39563 13.0345 9.75767 13.5132C10.1197 13.9918 10.5913 14.3765 11.1329 14.635C11.3062 14.7244 11.438 14.8776 11.5002 15.0624C11.5624 15.2472 11.5502 15.4489 11.4662 15.6249C11.3822 15.8008 11.233 15.9371 11.0502 16.0049C10.8674 16.0727 10.6653 16.0667 10.4869 15.988C9.72904 15.626 9.06907 15.0874 8.56244 14.4175C8.05581 13.7476 7.71731 12.9659 7.57535 12.1381C7.43339 11.3103 7.49213 10.4604 7.74663 9.66001C8.00112 8.85958 8.44395 8.13189 9.03793 7.53805L13.5379 3.03805C14.0231 2.54018 14.6023 2.14362 15.2419 1.87138C15.8815 1.59914 16.5689 1.45663 17.264 1.45214C17.9591 1.44764 18.6482 1.58124 19.2913 1.84519C19.9344 2.10913 20.5187 2.49817 21.0103 2.98972C21.5018 3.48126 21.8908 4.06554 22.1548 4.70863C22.4187 5.35173 22.5523 6.04084 22.5478 6.73598C22.5433 7.43112 22.4008 8.11845 22.1286 8.75808C21.8564 9.39771 21.4598 9.9769 20.9619 10.462L19.2049 12.219C19.1363 12.2927 19.0535 12.3518 18.9615 12.3928C18.8695 12.4338 18.7702 12.4559 18.6694 12.4576C18.5687 12.4594 18.4687 12.4409 18.3753 12.4032C18.2819 12.3654 18.1971 12.3093 18.1259 12.2381C18.0547 12.1669 17.9985 12.082 17.9608 11.9886C17.9231 11.8953 17.9046 11.7952 17.9063 11.6945C17.9081 11.5938 17.9302 11.4945 17.9711 11.4025C18.0121 11.3105 18.0712 11.2277 18.1449 11.159L19.9019 9.40205C20.2502 9.05381 20.5266 8.64037 20.7151 8.18534C20.9036 7.7303 21.0006 7.24259 21.0006 6.75005C21.0006 6.25751 20.9036 5.76979 20.7151 5.31476C20.5266 4.85972 20.2502 4.44628 19.9019 4.09805ZM12.5129 8.36505C12.5987 8.18565 12.7523 8.04769 12.9398 7.98149C13.1274 7.91529 13.3335 7.92629 13.5129 8.01205C14.2708 8.37407 14.9308 8.91266 15.4374 9.58257C15.944 10.2525 16.2825 11.0342 16.4245 11.862C16.5665 12.6898 16.5077 13.5397 16.2532 14.3401C15.9987 15.1405 15.5559 15.8682 14.9619 16.462L10.4619 20.962C9.97678 21.4599 9.39758 21.8565 8.75796 22.1287C8.11833 22.401 7.431 22.5435 6.73586 22.548C6.04072 22.5525 5.35161 22.4189 4.70851 22.1549C4.06542 21.891 3.48114 21.5019 2.98959 21.0104C2.49805 20.5188 2.10901 19.9346 1.84506 19.2915C1.58112 18.6484 1.44752 17.9593 1.45201 17.2641C1.45651 16.569 1.59901 15.8816 1.87126 15.242C2.1435 14.6024 2.54006 14.0232 3.03793 13.538L4.79493 11.781C4.86359 11.7074 4.94639 11.6483 5.03839 11.6073C5.13039 11.5663 5.2297 11.5442 5.3304 11.5425C5.43111 11.5407 5.53113 11.5592 5.62452 11.5969C5.71791 11.6346 5.80274 11.6908 5.87396 11.762C5.94518 11.8332 6.00133 11.9181 6.03905 12.0114C6.07677 12.1048 6.09529 12.2049 6.09352 12.3056C6.09174 12.4063 6.0697 12.5056 6.02871 12.5976C5.98771 12.6896 5.92861 12.7724 5.85493 12.841L4.09793 14.598C3.74966 14.9463 3.4734 15.3598 3.28492 15.8148C3.09644 16.2698 2.99943 16.7575 2.99943 17.25C2.99943 17.7426 3.09644 18.2303 3.28492 18.6853C3.4734 19.1403 3.74966 19.5538 4.09793 19.902C4.44619 20.2503 4.85964 20.5266 5.31467 20.7151C5.7697 20.9035 6.2574 21.0005 6.74993 21.0005C7.24245 21.0005 7.73015 20.9035 8.18518 20.7151C8.64021 20.5266 9.05366 20.2503 9.40193 19.902L13.9019 15.402C14.3265 14.9779 14.643 14.458 14.8249 13.8861C15.0069 13.3143 15.0489 12.7071 14.9475 12.1156C14.8461 11.5241 14.6042 10.9656 14.2422 10.4869C13.8801 10.0083 13.4085 9.62358 12.8669 9.36505C12.778 9.32264 12.6983 9.26313 12.6324 9.18993C12.5665 9.11672 12.5157 9.03124 12.4828 8.93838C12.4499 8.84552 12.4356 8.74709 12.4408 8.64871C12.446 8.55034 12.4705 8.45395 12.5129 8.36505Z" fill="#4880FF"/>
</svg>
