<svg width="24" height="24" viewBox="0 0 24 24" fill="none" xmlns="http://www.w3.org/2000/svg">
<path d="M15 1.78406L14.204 2.57906C14.0467 2.73639 13.9395 2.93685 13.8961 3.15508C13.8527 3.3733 13.875 3.5995 13.9601 3.80507C14.0453 4.01064 14.1895 4.18634 14.3745 4.30995C14.5595 4.43357 14.777 4.49955 14.9995 4.49955C15.222 4.49955 15.4395 4.43357 15.6245 4.30995C15.8095 4.18634 15.9537 4.01064 16.0389 3.80507C16.124 3.5995 16.1463 3.3733 16.1029 3.15508C16.0595 2.93685 15.9523 2.73639 15.795 2.57906L15 1.78406ZM12 1.78406L11.204 2.57906C11.0467 2.73639 10.9395 2.93685 10.8961 3.15508C10.8527 3.3733 10.875 3.5995 10.9601 3.80507C11.0453 4.01064 11.1895 4.18634 11.3745 4.30995C11.5595 4.43357 11.777 4.49955 11.9995 4.49955C12.222 4.49955 12.4395 4.43357 12.6245 4.30995C12.8095 4.18634 12.9537 4.01064 13.0389 3.80507C13.124 3.5995 13.1463 3.3733 13.1029 3.15508C13.0595 2.93685 12.9523 2.73639 12.795 2.57906L12 1.78406ZM9 1.78406L8.204 2.57906C8.04667 2.73639 7.93952 2.93685 7.89612 3.15508C7.85271 3.3733 7.87499 3.5995 7.96014 3.80507C8.04529 4.01064 8.18948 4.18634 8.37449 4.30995C8.55949 4.43357 8.777 4.49955 8.9995 4.49955C9.222 4.49955 9.43951 4.43357 9.62452 4.30995C9.80952 4.18634 9.95371 4.01064 10.0389 3.80507C10.124 3.5995 10.1463 3.3733 10.1029 3.15508C10.0595 2.93685 9.95233 2.73639 9.795 2.57906L9 1.78406ZM9.75 7.54706C10.248 7.52606 10.748 7.51206 11.25 7.50506V6.75006C11.25 6.55115 11.329 6.36038 11.4697 6.21973C11.6103 6.07908 11.8011 6.00006 12 6.00006C12.1989 6.00006 12.3897 6.07908 12.5303 6.21973C12.671 6.36038 12.75 6.55115 12.75 6.75006V7.50506C13.252 7.51206 13.752 7.52606 14.25 7.54706V6.75006C14.25 6.55115 14.329 6.36038 14.4697 6.21973C14.6103 6.07908 14.8011 6.00006 15 6.00006C15.1989 6.00006 15.3897 6.07908 15.5303 6.21973C15.671 6.36038 15.75 6.55115 15.75 6.75006V7.63006L16.057 7.65206C17.607 7.76906 18.75 9.07906 18.75 10.5981V11.6161C14.2633 11.1261 9.73666 11.1261 5.25 11.6161V10.5981C5.25 9.07906 6.393 7.76906 7.943 7.65206L8.25 7.63006V6.75006C8.25 6.55115 8.32902 6.36038 8.46967 6.21973C8.61032 6.07908 8.80109 6.00006 9 6.00006C9.19891 6.00006 9.38968 6.07908 9.53033 6.21973C9.67098 6.36038 9.75 6.55115 9.75 6.75006V7.54706ZM12 12.7501C9.528 12.7501 7.1 12.9341 4.726 13.2901C3.272 13.5071 2.25 14.7721 2.25 16.2061V16.5901C3.12832 16.4268 4.03592 16.5546 4.835 16.9541C5.19672 17.1349 5.59558 17.2291 6 17.2291C6.40442 17.2291 6.80328 17.1349 7.165 16.9541C7.73477 16.6692 8.36301 16.521 9 16.521C9.63699 16.521 10.2652 16.6692 10.835 16.9541C11.1967 17.1349 11.5956 17.2291 12 17.2291C12.4044 17.2291 12.8033 17.1349 13.165 16.9541C13.7348 16.6692 14.363 16.521 15 16.521C15.637 16.521 16.2652 16.6692 16.835 16.9541C17.1967 17.1349 17.5956 17.2291 18 17.2291C18.4044 17.2291 18.8033 17.1349 19.165 16.9541C19.9641 16.5546 20.8717 16.4268 21.75 16.5901V16.2061C21.75 14.7721 20.728 13.5061 19.274 13.2891C16.866 12.9294 14.4347 12.7493 12 12.7501ZM21.75 18.1311C21.114 17.9398 20.4289 17.9989 19.835 18.2961C19.2652 18.5809 18.637 18.7291 18 18.7291C17.363 18.7291 16.7348 18.5809 16.165 18.2961C15.8033 18.1152 15.4044 18.021 15 18.021C14.5956 18.021 14.1967 18.1152 13.835 18.2961C13.2652 18.5809 12.637 18.7291 12 18.7291C11.363 18.7291 10.7348 18.5809 10.165 18.2961C9.80328 18.1152 9.40442 18.021 9 18.021C8.59558 18.021 8.19672 18.1152 7.835 18.2961C7.26523 18.5809 6.63699 18.7291 6 18.7291C5.36301 18.7291 4.73477 18.5809 4.165 18.2961C3.57106 17.9989 2.88602 17.9398 2.25 18.1311V20.6251C2.25 21.6601 3.09 22.5001 4.125 22.5001H19.875C20.91 22.5001 21.75 21.6601 21.75 20.6251V18.1311Z" fill="#4880FF"/>
</svg>
