<svg width="24" height="24" viewBox="0 0 24 24" fill="none" xmlns="http://www.w3.org/2000/svg">
<path fill-rule="evenodd" clip-rule="evenodd" d="M11.9999 6.75003C11.9997 5.93003 12.1916 5.12138 12.5601 4.38888C12.9287 3.65638 13.4638 3.02041 14.1224 2.53191C14.781 2.04342 15.5449 1.71599 16.3528 1.57587C17.1607 1.43575 17.9903 1.48684 18.7749 1.72503C18.8989 1.7626 19.0111 1.83166 19.1005 1.92548C19.1899 2.0193 19.2534 2.13467 19.2849 2.26036C19.3165 2.38605 19.3149 2.51776 19.2804 2.64266C19.2458 2.76756 19.1795 2.88138 19.0879 2.97303L15.7679 6.29203C15.8309 6.76703 16.0439 7.22603 16.4089 7.59103C16.7739 7.95603 17.2329 8.16903 17.7089 8.23103L21.0269 4.91203C21.1186 4.82042 21.2324 4.75412 21.3573 4.71959C21.4822 4.68506 21.6139 4.68348 21.7396 4.715C21.8653 4.74653 21.9806 4.81008 22.0745 4.89946C22.1683 4.98884 22.2373 5.10101 22.2749 5.22503C22.5241 6.04588 22.5684 6.9153 22.4039 7.75722C22.2393 8.59915 21.871 9.38792 21.331 10.0545C20.7911 10.7212 20.096 11.2453 19.3067 11.5812C18.5173 11.917 17.6576 12.0543 16.8029 11.981C15.7849 11.895 14.9329 12.081 14.4939 12.615L7.34392 21.3C7.05116 21.6538 6.68775 21.9425 6.27696 22.1477C5.86617 22.3529 5.41706 22.4701 4.95838 22.4917C4.49969 22.5133 4.04155 22.4389 3.61329 22.2733C3.18502 22.1076 2.79607 21.8543 2.47134 21.5297C2.14661 21.205 1.89325 20.8161 1.7275 20.3879C1.56174 19.9596 1.48723 19.5015 1.50875 19.0428C1.53027 18.5841 1.64733 18.135 1.85245 17.7242C2.05757 17.3133 2.34622 16.9499 2.69992 16.657L11.3839 9.50603C11.9169 9.06603 12.1039 8.21503 12.0179 7.19703C12.0057 7.04834 11.9997 6.89921 11.9999 6.75003ZM4.11692 19.125C4.11692 18.9261 4.19593 18.7353 4.33659 18.5947C4.47724 18.454 4.668 18.375 4.86692 18.375H4.87492C5.07383 18.375 5.26459 18.454 5.40525 18.5947C5.5459 18.7353 5.62492 18.9261 5.62492 19.125V19.133C5.62492 19.3319 5.5459 19.5227 5.40525 19.6634C5.26459 19.804 5.07383 19.883 4.87492 19.883H4.86692C4.668 19.883 4.47724 19.804 4.33659 19.6634C4.19593 19.5227 4.11692 19.3319 4.11692 19.133V19.125Z" fill="#4880FF"/>
</svg>
