<svg width="10" height="10" viewBox="0 0 10 10" fill="none" xmlns="http://www.w3.org/2000/svg">
<path fill-rule="evenodd" clip-rule="evenodd" d="M5.18469 0.435547C4.32969 0.435547 3.63658 1.12866 3.63658 1.98365V3.53177H2.08912C1.23413 3.53177 0.541016 4.22488 0.541016 5.07988C0.541016 5.93487 1.23413 6.62799 2.08912 6.62799H3.63658V8.17608C3.63658 9.03107 4.32969 9.72418 5.18469 9.72418C6.03969 9.72418 6.7328 9.03107 6.7328 8.17608V6.62799H8.28155C9.13654 6.62799 9.82965 5.93487 9.82965 5.07988C9.82965 4.22488 9.13654 3.53177 8.28155 3.53177H6.7328V1.98365C6.7328 1.12866 6.03969 0.435547 5.18469 0.435547Z" fill="#4880FF"/>
</svg>
