<svg width="33" height="33" viewBox="0 0 33 33" fill="none" xmlns="http://www.w3.org/2000/svg">
<rect width="33" height="33" fill="#FF5436"/>
<path d="M8.6008 18.468L9.40929 24.5742C9.44183 24.8233 9.65459 25.0098 9.90615 25.0098H12.8147C13.0963 25.0098 13.3216 24.7782 13.3153 24.4966L13.1927 19.4467L21.9921 22.9372C22.4852 23.1325 23.0196 22.7695 23.0196 22.2389V8.74368C23.0196 8.21053 22.479 7.84634 21.9846 8.04909L11.2941 12.4194H7.33176C5.0665 12.4194 5.0665 18.468 7.33176 18.468H8.59955H8.6008Z" fill="white"/>
<path d="M24.0703 13.2147L27.0289 11.0684" stroke="white" stroke-width="1.2" stroke-miterlimit="10" stroke-linecap="round"/>
<path d="M24.0703 18.4902L27.0289 20.6366" stroke="white" stroke-width="1.2" stroke-miterlimit="10" stroke-linecap="round"/>
<path d="M24.0703 15.8535H27.3668" stroke="white" stroke-width="1.2" stroke-miterlimit="10" stroke-linecap="round"/>
</svg>
