<svg width="47" height="46" viewBox="0 0 47 46" fill="none" xmlns="http://www.w3.org/2000/svg">
<path d="M0.5 0H46.5V45C46.5 45.5523 46.0523 46 45.5 46H1.5C0.947715 46 0.5 45.5523 0.5 45V0Z" fill="#FF5437"/>
<path d="M25.4429 13.4455C25.4429 11.7155 23.3504 10.8493 22.128 12.0729L16.301 17.8999H13.7993C12.3219 17.8999 10.7978 18.7597 10.3549 20.3667C10.0545 21.4614 9.90291 22.5917 9.90431 23.7269C9.90431 24.8897 10.061 26.0163 10.3575 27.0871C10.7991 28.6928 12.3232 29.5539 13.8006 29.5539H16.2997L22.1267 35.3809C23.3504 36.6045 25.4429 35.7382 25.4429 34.0083V13.4455ZM32.0261 14.8C32.2082 14.6181 32.455 14.5159 32.7124 14.5159C32.9698 14.5159 33.2166 14.6181 33.3987 14.8C38.3296 19.7296 38.3296 27.7229 33.3987 32.6538C33.2146 32.8254 32.9711 32.9188 32.7195 32.9143C32.4679 32.9099 32.2278 32.808 32.0499 32.63C31.872 32.4521 31.7701 32.212 31.7656 31.9604C31.7612 31.7089 31.8546 31.4654 32.0261 31.2813C33.0182 30.2892 33.8053 29.1115 34.3422 27.8153C34.8792 26.5192 35.1555 25.1299 35.1555 23.7269C35.1555 22.3239 34.8792 20.9346 34.3422 19.6385C33.8053 18.3423 33.0182 17.1645 32.0261 16.1725C31.8442 15.9904 31.7421 15.7436 31.7421 15.4862C31.7421 15.2289 31.8442 14.9821 32.0261 14.8Z" fill="white"/>
<path d="M28.5913 18.2339C28.6815 18.1436 28.7886 18.072 28.9065 18.0232C29.0243 17.9744 29.1507 17.9492 29.2783 17.9492C29.4058 17.9492 29.5322 17.9744 29.65 18.0232C29.7679 18.072 29.875 18.1436 29.9652 18.2339C30.6868 18.9554 31.2592 19.8119 31.6497 20.7546C32.0402 21.6973 32.2412 22.7077 32.2412 23.7281C32.2412 24.7485 32.0402 25.7589 31.6497 26.7016C31.2592 27.6443 30.6868 28.5008 29.9652 29.2223C29.7819 29.3991 29.5366 29.4969 29.2819 29.4945C29.0273 29.4922 28.7838 29.39 28.6038 29.2098C28.4238 29.0297 28.3218 28.786 28.3197 28.5314C28.3176 28.2768 28.4156 28.0315 28.5926 27.8484C29.1337 27.3073 29.5629 26.665 29.8558 25.958C30.1486 25.251 30.2993 24.4933 30.2993 23.7281C30.2993 22.9629 30.1486 22.2051 29.8558 21.4982C29.5629 20.7912 29.1337 20.1488 28.5926 19.6078C28.4107 19.4257 28.3086 19.1788 28.3086 18.9215C28.3086 18.6641 28.4107 18.4173 28.5926 18.2352L28.5913 18.2339Z" fill="white"/>
</svg>
