<svg width="21" height="21" viewBox="0 0 21 21" fill="none" xmlns="http://www.w3.org/2000/svg">
<circle cx="10.44" cy="10.44" r="10.44" fill="#4880FF"/>
<path d="M5.9857 5.85986C5.44323 5.85986 5.00391 6.29971 5.00391 6.84166V7.23438C5.00391 7.77685 5.44375 8.21617 5.9857 8.21617H15.0182C15.5602 8.21617 16 7.77633 16 7.23438V6.84166C16 6.29918 15.5602 5.85986 15.0182 5.85986H5.9857Z" fill="#FAFAFA"/>
<path fill-rule="evenodd" clip-rule="evenodd" d="M5.83398 9.00146L6.11674 13.8062C6.14024 14.206 6.31556 14.5818 6.60686 14.8566C6.89816 15.1315 7.28344 15.2847 7.68395 15.2849H13.3166C13.7172 15.285 14.1028 15.1319 14.3943 14.857C14.6858 14.5821 14.8613 14.2062 14.8848 13.8062L15.1681 9.00146H5.83398ZM9.06108 10.9651C9.06108 10.8609 9.10245 10.761 9.1761 10.6874C9.24975 10.6137 9.34964 10.5723 9.45379 10.5723H11.5483C11.6524 10.5723 11.7523 10.6137 11.826 10.6874C11.8996 10.761 11.941 10.8609 11.941 10.9651C11.941 11.0692 11.8996 11.1691 11.826 11.2427C11.7523 11.3164 11.6524 11.3578 11.5483 11.3578H9.45379C9.34964 11.3578 9.24975 11.3164 9.1761 11.2427C9.10245 11.1691 9.06108 11.0692 9.06108 10.9651Z" fill="#FAFAFA"/>
</svg>
