<svg width="12" height="14" viewBox="0 0 12 14" fill="none" xmlns="http://www.w3.org/2000/svg">
<mask id="path-1-outside-1_3457_43846" maskUnits="userSpaceOnUse" x="0.0589114" y="0.0512251" width="13.0979" height="14.7186" fill="black">
<rect fill="white" x="0.0589114" y="0.0512251" width="13.0979" height="14.7186"/>
<path fill-rule="evenodd" clip-rule="evenodd" d="M5.89046 2.77946C8.32003 3.20961 9.94089 5.52786 9.51075 7.95743C9.0806 10.387 6.76234 12.0079 4.33277 11.5777C3.65135 11.4571 3.03355 11.1879 2.50677 10.8094C2.43136 10.7552 2.46969 10.6381 2.56221 10.6301C4.52939 10.4615 6.21637 8.9933 6.57691 6.95691C6.85275 5.3989 6.28515 3.88666 5.20174 2.88875C5.13344 2.82585 5.17498 2.70986 5.26777 2.71322C5.47376 2.72068 5.6817 2.7425 5.89046 2.77946Z"/>
</mask>
<path fill-rule="evenodd" clip-rule="evenodd" d="M5.89046 2.77946C8.32003 3.20961 9.94089 5.52786 9.51075 7.95743C9.0806 10.387 6.76234 12.0079 4.33277 11.5777C3.65135 11.4571 3.03355 11.1879 2.50677 10.8094C2.43136 10.7552 2.46969 10.6381 2.56221 10.6301C4.52939 10.4615 6.21637 8.9933 6.57691 6.95691C6.85275 5.3989 6.28515 3.88666 5.20174 2.88875C5.13344 2.82585 5.17498 2.70986 5.26777 2.71322C5.47376 2.72068 5.6817 2.7425 5.89046 2.77946Z" fill="#FFCD1E"/>
<path d="M5.20174 2.88875L6.5567 1.41768L5.20174 2.88875ZM5.26777 2.71322L5.34018 0.714531L5.26777 2.71322ZM7.54137 7.60876C7.77895 6.26685 6.88371 4.98641 5.5418 4.74883L6.23913 0.810087C9.75636 1.4328 12.1028 4.78888 11.4801 8.3061L7.54137 7.60876ZM4.68144 9.60834C6.02336 9.84592 7.30379 8.95068 7.54137 7.60876L11.4801 8.3061C10.8574 11.8233 7.50133 14.1698 3.9841 13.5471L4.68144 9.60834ZM3.67377 9.18519C3.96231 9.39251 4.30149 9.54107 4.68144 9.60834L3.9841 13.5471C3.00121 13.3731 2.10478 12.9833 1.33976 12.4336L3.67377 9.18519ZM2.39142 8.63745C3.47863 8.54427 4.40889 7.73024 4.60753 6.60824L8.54628 7.30558C8.02386 10.2564 5.58016 12.3788 2.733 12.6228L2.39142 8.63745ZM4.60753 6.60824C4.75952 5.7498 4.44967 4.91515 3.84677 4.35983L6.5567 1.41768C8.12064 2.85817 8.94597 5.048 8.54628 7.30558L4.60753 6.60824ZM5.5418 4.74883C5.4246 4.72808 5.30897 4.71602 5.19536 4.71191L5.34018 0.714531C5.63855 0.725341 5.93881 0.756916 6.23913 0.810087L5.5418 4.74883ZM3.84677 4.35983C3.16292 3.72996 3.03022 2.80946 3.29802 2.08374C3.57392 1.33608 4.32876 0.677889 5.34018 0.714531L5.19536 4.71191C6.11399 4.74519 6.80166 4.14331 7.05067 3.46853C7.29158 2.81569 7.17225 1.98464 6.5567 1.41768L3.84677 4.35983ZM1.33976 12.4336C0.516675 11.8422 0.324429 10.8585 0.56467 10.0992C0.797712 9.36256 1.4657 8.71679 2.39142 8.63745L2.733 12.6228C3.5662 12.5514 4.16876 11.9682 4.37836 11.3057C4.59516 10.6205 4.42145 9.72239 3.67377 9.18519L1.33976 12.4336Z" fill="white" mask="url(#path-1-outside-1_3457_43846)"/>
</svg>
