<svg width="11" height="14" viewBox="0 0 11 14" fill="none" xmlns="http://www.w3.org/2000/svg">
<mask id="path-1-outside-1_3457_43846" maskUnits="userSpaceOnUse" x="-0.318042" y="-0.382369" width="12.1132" height="14.5443" fill="black">
<rect fill="white" x="-0.318042" y="-0.382369" width="12.1132" height="14.5443"/>
<path fill-rule="evenodd" clip-rule="evenodd" d="M3.59675 2.1778C3.50295 2.18729 3.47913 2.31077 3.55807 2.36234C5.01104 3.31161 5.83649 5.06636 5.5148 6.88337C5.19315 8.70011 3.81576 10.0647 2.12553 10.4576C2.0337 10.479 2.01369 10.6031 2.09854 10.6442C2.4611 10.8199 2.85364 10.949 3.26994 11.0227C5.69951 11.4528 8.01776 9.83198 8.44791 7.40241C8.87805 4.97284 7.2572 2.65458 4.82763 2.22443C4.41108 2.15069 3.9978 2.13723 3.59675 2.1778Z"/>
</mask>
<path fill-rule="evenodd" clip-rule="evenodd" d="M3.59675 2.1778C3.50295 2.18729 3.47913 2.31077 3.55807 2.36234C5.01104 3.31161 5.83649 5.06636 5.5148 6.88337C5.19315 8.70011 3.81576 10.0647 2.12553 10.4576C2.0337 10.479 2.01369 10.6031 2.09854 10.6442C2.4611 10.8199 2.85364 10.949 3.26994 11.0227C5.69951 11.4528 8.01776 9.83198 8.44791 7.40241C8.87805 4.97284 7.2572 2.65458 4.82763 2.22443C4.41108 2.15069 3.9978 2.13723 3.59675 2.1778Z" fill="#FFCD1E"/>
<path d="M3.55807 2.36234L2.46418 4.03668L3.55807 2.36234ZM3.59675 2.1778L3.79804 4.16764L3.59675 2.1778ZM3.54543 6.5347C3.72256 5.53419 3.27037 4.56338 2.46418 4.03668L4.65196 0.688006C6.75171 2.05983 7.95042 4.59852 7.48417 7.23204L3.54543 6.5347ZM1.67266 8.50956C2.61049 8.29153 3.36832 7.53506 3.54543 6.5347L7.48417 7.23204C7.01799 9.86517 5.02103 11.8378 2.57841 12.4057L1.67266 8.50956ZM2.97046 8.84429C3.16886 8.9404 3.38548 9.01204 3.6186 9.05332L2.92127 12.9921C2.32181 12.8859 1.75333 12.6993 1.22662 12.4442L2.97046 8.84429ZM3.6186 9.05332C4.96052 9.2909 6.24096 8.39565 6.47854 7.05374L10.4173 7.75108C9.79457 11.2683 6.43849 13.6148 2.92127 12.9921L3.6186 9.05332ZM6.47854 7.05374C6.71612 5.71182 5.82088 4.43139 4.47896 4.19381L5.1763 0.255061C8.69352 0.87777 11.04 4.23385 10.4173 7.75108L6.47854 7.05374ZM4.47896 4.19381C4.24569 4.15251 4.01751 4.14544 3.79804 4.16764L3.39547 0.187951C3.9781 0.129014 4.57647 0.148865 5.1763 0.255061L4.47896 4.19381ZM2.57841 12.4057C3.40464 12.2136 3.91844 11.5358 4.02329 10.8426C4.13188 10.1246 3.81188 9.25189 2.97046 8.84429L1.22662 12.4442C0.300342 11.9954 -0.0520764 11.0401 0.0682704 10.2444C0.184865 9.47354 0.754593 8.72299 1.67266 8.50956L2.57841 12.4057ZM2.46418 4.03668C1.67511 3.52116 1.39755 2.62067 1.55257 1.8566C1.71258 1.06795 2.37146 0.291537 3.39547 0.187951L3.79804 4.16764C4.72824 4.07354 5.32831 3.36362 5.4727 2.65198C5.6121 1.96492 5.3621 1.15196 4.65196 0.688006L2.46418 4.03668Z" fill="white" mask="url(#path-1-outside-1_3457_43846)"/>
</svg>
