<svg width="22" height="24" viewBox="0 0 22 24" fill="none" xmlns="http://www.w3.org/2000/svg">
<path d="M3.36143 17.6172C2.65971 17.2664 1.86268 17.1542 1.09137 17.2976L0.5 17.4075V16.806V16.422C0.5 14.7535 1.69048 13.2671 3.40185 13.0115C5.8003 12.6519 8.25303 12.466 10.7498 12.466L3.36143 17.6172ZM3.36143 17.6172C3.79257 17.8328 4.26798 17.945 4.75 17.945C5.23202 17.945 5.70742 17.8328 6.13856 17.6172C6.63891 17.3671 7.19062 17.2369 7.75 17.2369C8.30938 17.2369 8.86109 17.3671 9.36144 17.6172C9.79258 17.8328 10.268 17.945 10.75 17.945C11.232 17.945 11.7074 17.8328 12.1386 17.6172C12.6389 17.3671 13.1906 17.2369 13.75 17.2369C14.3094 17.2369 14.8611 17.3671 15.3614 17.6172C15.7926 17.8328 16.268 17.945 16.75 17.945C17.232 17.945 17.7074 17.8328 18.1386 17.6172L3.36143 17.6172ZM21 17.4075L20.4086 17.2976C19.6373 17.1542 18.8403 17.2664 18.1386 17.6172L21 17.4075ZM21 17.4075V16.806M21 17.4075V16.806M21 16.806V16.422M21 16.806V16.422M21 16.422C21 14.7536 19.8096 13.2659 18.0978 13.0105M21 16.422L18.0978 13.0105M18.0978 13.0105C15.6654 12.6472 13.2094 12.4652 10.75 12.466L18.0978 13.0105ZM14.1036 1.64645L13.7502 1.29312L13.3967 1.64622L12.6007 2.44122L12.6004 2.44145C12.4496 2.59227 12.3307 2.77051 12.2495 2.96549C12.1683 2.77051 12.0494 2.59227 11.8986 2.44145L11.545 2.795L11.8986 2.44145L11.1036 1.64645L10.7502 1.29312L10.3967 1.64622L9.60067 2.44122L9.60044 2.44145C9.44963 2.59227 9.33074 2.77051 9.2495 2.96549C9.16826 2.77051 9.04937 2.59227 8.89856 2.44145L8.545 2.795L8.89855 2.44145L8.10355 1.64645L7.75022 1.29312L7.39667 1.64622L6.60067 2.44122L6.60045 2.44145C6.37319 2.66871 6.21842 2.95826 6.15572 3.27348C6.09302 3.58869 6.12521 3.91543 6.2482 4.21236C6.37119 4.50928 6.57947 4.76307 6.8467 4.94163C7.11393 5.12019 7.42811 5.21549 7.7495 5.21549C8.07089 5.21549 8.38507 5.12019 8.6523 4.94163C8.91859 4.7637 9.12634 4.51107 9.2495 4.21549C9.37265 4.51107 9.58041 4.7637 9.8467 4.94163C10.1139 5.12019 10.4281 5.21549 10.7495 5.21549C11.0709 5.21549 11.3851 5.12019 11.6523 4.94163C11.9186 4.7637 12.1263 4.51107 12.2495 4.21549C12.3727 4.51107 12.5804 4.7637 12.8467 4.94163C13.1139 5.12019 13.4281 5.21549 13.7495 5.21549C14.0709 5.21549 14.3851 5.12019 14.6523 4.94163C14.9195 4.76307 15.1278 4.50928 15.2508 4.21235C15.3738 3.91543 15.406 3.5887 15.3433 3.27348C15.2806 2.95826 15.1258 2.66871 14.8986 2.44145L14.545 2.795L14.8986 2.44145L14.1036 1.64645ZM12.5 7.24403C12.3335 7.23864 12.1669 7.23402 12 7.23017V6.966C12 6.63448 11.8683 6.31654 11.6339 6.08212C11.3995 5.8477 11.0815 5.716 10.75 5.716C10.4185 5.716 10.1005 5.8477 9.86612 6.08212C9.6317 6.31654 9.5 6.63448 9.5 6.966V7.23017C9.33312 7.23402 9.16645 7.23864 9 7.24403V6.966C9 6.63448 8.8683 6.31654 8.63388 6.08212C8.39946 5.8477 8.08152 5.716 7.75 5.716C7.41848 5.716 7.10054 5.8477 6.86612 6.08212C6.6317 6.31654 6.5 6.63448 6.5 6.966V7.38466C4.75665 7.59538 3.5 9.09705 3.5 10.814V11.832V12.3896L4.05428 12.329C8.50486 11.8431 12.9951 11.8431 17.4457 12.329L18 12.3896V11.832V10.814C18 9.09705 16.7434 7.59539 15 7.38466V6.966C15 6.63448 14.8683 6.31654 14.6339 6.08212C14.3995 5.8477 14.0815 5.716 13.75 5.716C13.4185 5.716 13.1005 5.8477 12.8661 6.08212C12.6317 6.31654 12.5 6.63448 12.5 6.966V7.24403ZM21 18.347V17.9752L20.644 17.8682C19.8858 17.6402 19.0692 17.7106 18.3613 18.0649C17.861 18.3149 17.3093 18.4451 16.75 18.4451C16.1906 18.4451 15.6389 18.3149 15.1386 18.0648C14.7075 17.8492 14.232 17.737 13.75 17.737C13.268 17.737 12.7925 17.8492 12.3614 18.0648C11.8611 18.3149 11.3094 18.4451 10.75 18.4451C10.1906 18.4451 9.63895 18.3149 9.13861 18.0648C8.70746 17.8492 8.23204 17.737 7.75 17.737C7.26796 17.737 6.79254 17.8492 6.36139 18.0648C5.86105 18.3149 5.30937 18.4451 4.75 18.4451C4.19069 18.4451 3.63905 18.3149 3.13874 18.0649C2.43076 17.7106 1.61418 17.6402 0.85604 17.8682L0.5 17.9752V18.347V20.841C0.5 22.1521 1.56386 23.216 2.875 23.216H18.625C19.9361 23.216 21 22.1521 21 20.841V18.347Z" fill="#4880FF" stroke="white"/>
</svg>
