<svg width="19" height="20" viewBox="0 0 19 20" fill="none" xmlns="http://www.w3.org/2000/svg">
<path d="M12.0192 0.78418L11.2845 1.50987C11.1392 1.65349 11.0403 1.83647 11.0003 2.03567C10.9602 2.23488 10.9808 2.44136 11.0594 2.629C11.138 2.81665 11.2711 2.97703 11.4418 3.08987C11.6126 3.20271 11.8134 3.26294 12.0188 3.26294C12.2242 3.26294 12.4249 3.20271 12.5957 3.08987C12.7665 2.97703 12.8996 2.81665 12.9782 2.629C13.0568 2.44136 13.0773 2.23488 13.0373 2.03567C12.9972 1.83647 12.8983 1.65349 12.7531 1.50987L12.0192 0.78418ZM9.25 0.78418L8.51523 1.50987C8.37 1.65349 8.2711 1.83647 8.23103 2.03567C8.19096 2.23488 8.21153 2.44136 8.29013 2.629C8.36873 2.81665 8.50183 2.97703 8.6726 3.08987C8.84338 3.20271 9.04415 3.26294 9.24954 3.26294C9.45493 3.26294 9.6557 3.20271 9.82648 3.08987C9.99725 2.97703 10.1304 2.81665 10.209 2.629C10.2875 2.44136 10.3081 2.23488 10.268 2.03567C10.228 1.83647 10.1291 1.65349 9.98385 1.50987L9.25 0.78418ZM6.48077 0.78418L5.746 1.50987C5.60077 1.65349 5.50187 1.83647 5.4618 2.03567C5.42173 2.23488 5.4423 2.44136 5.5209 2.629C5.59949 2.81665 5.7326 2.97703 5.90337 3.08987C6.07414 3.20271 6.27492 3.26294 6.48031 3.26294C6.6857 3.26294 6.88647 3.20271 7.05725 3.08987C7.22802 2.97703 7.36112 2.81665 7.43972 2.629C7.51832 2.44136 7.53888 2.23488 7.49882 2.03567C7.45875 1.83647 7.35985 1.65349 7.21462 1.50987L6.48077 0.78418ZM7.17308 6.04477C7.63277 6.0256 8.09431 6.01282 8.55769 6.00643V5.31725C8.55769 5.13568 8.63063 4.96154 8.76046 4.83315C8.8903 4.70476 9.06639 4.63263 9.25 4.63263C9.43361 4.63263 9.6097 4.70476 9.73954 4.83315C9.86937 4.96154 9.94231 5.13568 9.94231 5.31725V6.00643C10.4057 6.01282 10.8672 6.0256 11.3269 6.04477V5.31725C11.3269 5.13568 11.3999 4.96154 11.5297 4.83315C11.6595 4.70476 11.8356 4.63263 12.0192 4.63263C12.2028 4.63263 12.3789 4.70476 12.5088 4.83315C12.6386 4.96154 12.7115 5.13568 12.7115 5.31725V6.12053L12.9949 6.14061C14.4257 6.24741 15.4808 7.44321 15.4808 8.82978V9.75904C11.3392 9.31181 7.16077 9.31181 3.01923 9.75904V8.82978C3.01923 7.44321 4.07431 6.24741 5.50508 6.14061L5.78846 6.12053V5.31725C5.78846 5.13568 5.8614 4.96154 5.99123 4.83315C6.12107 4.70476 6.29716 4.63263 6.48077 4.63263C6.66438 4.63263 6.84047 4.70476 6.9703 4.83315C7.10014 4.96154 7.17308 5.13568 7.17308 5.31725V6.04477ZM9.25 10.7942C6.96815 10.7942 4.72692 10.9621 2.53554 11.2871C1.19338 11.4852 0.25 12.6399 0.25 13.9489V14.2994C1.06075 14.1504 1.89854 14.267 2.63615 14.6317C2.97005 14.7968 3.33823 14.8827 3.71154 14.8827C4.08485 14.8827 4.45303 14.7968 4.78692 14.6317C5.31286 14.3717 5.89278 14.2363 6.48077 14.2363C7.06876 14.2363 7.64868 14.3717 8.17462 14.6317C8.50851 14.7968 8.87669 14.8827 9.25 14.8827C9.62331 14.8827 9.99149 14.7968 10.3254 14.6317C10.8513 14.3717 11.4312 14.2363 12.0192 14.2363C12.6072 14.2363 13.1871 14.3717 13.7131 14.6317C14.047 14.7968 14.4152 14.8827 14.7885 14.8827C15.1618 14.8827 15.53 14.7968 15.8638 14.6317C16.6015 14.267 17.4392 14.1504 18.25 14.2994V13.9489C18.25 12.6399 17.3066 11.4843 15.9645 11.2862C13.7417 10.9579 11.4974 10.7935 9.25 10.7942ZM18.25 15.7061C17.6629 15.5315 17.0306 15.5854 16.4823 15.8567C15.9564 16.1167 15.3765 16.252 14.7885 16.252C14.2005 16.252 13.6206 16.1167 13.0946 15.8567C12.7607 15.6916 12.3925 15.6056 12.0192 15.6056C11.6459 15.6056 11.2777 15.6916 10.9438 15.8567C10.4179 16.1167 9.83799 16.252 9.25 16.252C8.66201 16.252 8.08209 16.1167 7.55615 15.8567C7.22226 15.6916 6.85408 15.6056 6.48077 15.6056C6.10746 15.6056 5.73928 15.6916 5.40538 15.8567C4.87945 16.1167 4.29953 16.252 3.71154 16.252C3.12355 16.252 2.54363 16.1167 2.01769 15.8567C1.46944 15.5854 0.837094 15.5315 0.25 15.7061V17.9826C0.25 18.9274 1.02538 19.6942 1.98077 19.6942H16.5192C17.4746 19.6942 18.25 18.9274 18.25 17.9826V15.7061Z" fill="#4780FF"/>
</svg>
