<svg width="20" height="22" viewBox="0 0 20 22" fill="none" xmlns="http://www.w3.org/2000/svg">
<path d="M13 0.78418L12.204 1.57918C12.0467 1.73651 11.9395 1.93697 11.8961 2.1552C11.8527 2.37343 11.875 2.59963 11.9601 2.80519C12.0453 3.01076 12.1895 3.18646 12.3745 3.31007C12.5595 3.43369 12.777 3.49967 12.9995 3.49967C13.222 3.49967 13.4395 3.43369 13.6245 3.31007C13.8095 3.18646 13.9537 3.01076 14.0389 2.80519C14.124 2.59963 14.1463 2.37343 14.1029 2.1552C14.0595 1.93697 13.9523 1.73651 13.795 1.57918L13 0.78418ZM10 0.78418L9.204 1.57918C9.04667 1.73651 8.93952 1.93697 8.89612 2.1552C8.85271 2.37343 8.87499 2.59963 8.96014 2.80519C9.04529 3.01076 9.18948 3.18646 9.37449 3.31007C9.55949 3.43369 9.777 3.49967 9.9995 3.49967C10.222 3.49967 10.4395 3.43369 10.6245 3.31007C10.8095 3.18646 10.9537 3.01076 11.0389 2.80519C11.124 2.59963 11.1463 2.37343 11.1029 2.1552C11.0595 1.93697 10.9523 1.73651 10.795 1.57918L10 0.78418ZM7 0.78418L6.204 1.57918C6.04667 1.73651 5.93952 1.93697 5.89612 2.1552C5.85271 2.37343 5.87499 2.59963 5.96014 2.80519C6.04529 3.01076 6.18948 3.18646 6.37449 3.31007C6.55949 3.43369 6.777 3.49967 6.9995 3.49967C7.222 3.49967 7.43951 3.43369 7.62452 3.31007C7.80952 3.18646 7.95371 3.01076 8.03886 2.80519C8.12401 2.59963 8.14629 2.37343 8.10288 2.1552C8.05948 1.93697 7.95233 1.73651 7.795 1.57918L7 0.78418ZM7.75 6.54718C8.248 6.52618 8.748 6.51218 9.25 6.50518V5.75018C9.25 5.55127 9.32902 5.3605 9.46967 5.21985C9.61032 5.0792 9.80109 5.00018 10 5.00018C10.1989 5.00018 10.3897 5.0792 10.5303 5.21985C10.671 5.3605 10.75 5.55127 10.75 5.75018V6.50518C11.252 6.51218 11.752 6.52618 12.25 6.54718V5.75018C12.25 5.55127 12.329 5.3605 12.4697 5.21985C12.6103 5.0792 12.8011 5.00018 13 5.00018C13.1989 5.00018 13.3897 5.0792 13.5303 5.21985C13.671 5.3605 13.75 5.55127 13.75 5.75018V6.63018L14.057 6.65218C15.607 6.76918 16.75 8.07918 16.75 9.59818V10.6162C12.2633 10.1262 7.73666 10.1262 3.25 10.6162V9.59818C3.25 8.07918 4.393 6.76918 5.943 6.65218L6.25 6.63018V5.75018C6.25 5.55127 6.32902 5.3605 6.46967 5.21985C6.61032 5.0792 6.80109 5.00018 7 5.00018C7.19891 5.00018 7.38968 5.0792 7.53033 5.21985C7.67098 5.3605 7.75 5.55127 7.75 5.75018V6.54718ZM10 11.7502C7.528 11.7502 5.1 11.9342 2.726 12.2902C1.272 12.5072 0.25 13.7722 0.25 15.2062V15.5902C1.12832 15.4269 2.03592 15.5547 2.835 15.9542C3.19672 16.135 3.59558 16.2292 4 16.2292C4.40442 16.2292 4.80328 16.135 5.165 15.9542C5.73477 15.6694 6.36301 15.5211 7 15.5211C7.63699 15.5211 8.26523 15.6694 8.835 15.9542C9.19672 16.135 9.59558 16.2292 10 16.2292C10.4044 16.2292 10.8033 16.135 11.165 15.9542C11.7348 15.6694 12.363 15.5211 13 15.5211C13.637 15.5211 14.2652 15.6694 14.835 15.9542C15.1967 16.135 15.5956 16.2292 16 16.2292C16.4044 16.2292 16.8033 16.135 17.165 15.9542C17.9641 15.5547 18.8717 15.4269 19.75 15.5902V15.2062C19.75 13.7722 18.728 12.5062 17.274 12.2892C14.866 11.9296 12.4347 11.7494 10 11.7502ZM19.75 17.1312C19.114 16.94 18.4289 16.999 17.835 17.2962C17.2652 17.581 16.637 17.7293 16 17.7293C15.363 17.7293 14.7348 17.581 14.165 17.2962C13.8033 17.1153 13.4044 17.0212 13 17.0212C12.5956 17.0212 12.1967 17.1153 11.835 17.2962C11.2652 17.581 10.637 17.7293 10 17.7293C9.36301 17.7293 8.73477 17.581 8.165 17.2962C7.80328 17.1153 7.40442 17.0212 7 17.0212C6.59558 17.0212 6.19672 17.1153 5.835 17.2962C5.26523 17.581 4.63699 17.7293 4 17.7293C3.36301 17.7293 2.73477 17.581 2.165 17.2962C1.57106 16.999 0.886018 16.94 0.25 17.1312V19.6252C0.25 20.6602 1.09 21.5002 2.125 21.5002H17.875C18.91 21.5002 19.75 20.6602 19.75 19.6252V17.1312Z" fill="#4880FF"/>
</svg>
