<svg width="20" height="18" viewBox="0 0 20 18" fill="none" xmlns="http://www.w3.org/2000/svg">
<mask id="path-1-inside-1_3537_38642" fill="white">
<rect x="4.80859" width="10.8824" height="8.70588" rx="0.1"/>
</mask>
<rect x="4.80859" width="10.8824" height="8.70588" rx="0.1" fill="#4880FF" stroke="white" stroke-width="2" mask="url(#path-1-inside-1_3537_38642)"/>
<path d="M8.61719 7.71719V14.5907C8.61719 14.6459 8.66196 14.6907 8.71719 14.6907H14.0222C14.0456 14.6907 14.0682 14.6989 14.0862 14.7139L17.1591 17.2746C17.2242 17.3289 17.3231 17.2826 17.3231 17.1978V14.7907C17.3231 14.7355 17.3678 14.6907 17.4231 14.6907H19.3995C19.4548 14.6907 19.4995 14.6459 19.4995 14.5907V7.71719C19.4995 7.66196 19.4548 7.61719 19.3995 7.61719H8.71719C8.66196 7.61719 8.61719 7.66196 8.61719 7.71719Z" fill="#4880FF" stroke="white" stroke-linecap="round"/>
<path d="M1 5.54141V11.8708C1 11.926 1.04477 11.9708 1.1 11.9708H3.07647C3.1317 11.9708 3.17647 12.0156 3.17647 12.0708V15.5093C3.17647 15.6022 3.29198 15.6449 3.3524 15.5744L6.41124 12.0057C6.43024 11.9836 6.45798 11.9708 6.48717 11.9708H11.2382C11.2935 11.9708 11.3382 11.926 11.3382 11.8708V5.54141C11.3382 5.48618 11.2935 5.44141 11.2382 5.44141H1.1C1.04477 5.44141 1 5.48618 1 5.54141Z" fill="#4880FF" stroke="white" stroke-linecap="round"/>
</svg>
