<svg width="24" height="22" viewBox="0 0 24 22" fill="none" xmlns="http://www.w3.org/2000/svg">
<path d="M19.2245 1.27528L19.225 1.27536C21.4663 1.60622 23 3.56467 23 5.74V11.76C23 13.9353 21.4663 15.8938 19.225 16.2246L19.2245 16.2247C18.0756 16.3931 16.9212 16.5209 15.7633 16.6079L13.04 20.6933L13.04 20.6934C12.9258 20.8646 12.7712 21.005 12.5898 21.102C12.4083 21.1991 12.2058 21.2499 12 21.2499C11.7942 21.2499 11.5917 21.1991 11.4102 21.102C11.2288 21.005 11.0742 20.8646 10.96 20.6934L10.96 20.6933L8.23664 16.6079C7.07873 16.5205 5.92425 16.3924 4.77536 16.2237C2.53338 15.8949 1 13.9339 1 11.759V5.741C1 3.56609 2.53343 1.605 4.77539 1.2763C7.16756 0.925174 9.58219 0.749272 12 0.750002L19.2245 1.27528ZM19.2245 1.27528C16.8657 0.929805 14.4546 0.75001 12.0002 0.750002L19.2245 1.27528ZM7.25 7.25C7.25 7.1837 7.27634 7.12011 7.32322 7.07323C7.37011 7.02634 7.4337 7 7.5 7H16.5C16.5663 7 16.6299 7.02634 16.6768 7.07323C16.7237 7.12011 16.75 7.1837 16.75 7.25C16.75 7.31631 16.7237 7.3799 16.6768 7.42678C16.6299 7.47366 16.5663 7.5 16.5 7.5H7.5C7.4337 7.5 7.37011 7.47366 7.32322 7.42678C7.27634 7.37989 7.25 7.31631 7.25 7.25ZM7.32322 10.0732C7.37011 10.0263 7.4337 10 7.5 10H12C12.0663 10 12.1299 10.0263 12.1768 10.0732C12.2237 10.1201 12.25 10.1837 12.25 10.25C12.25 10.3163 12.2237 10.3799 12.1768 10.4268C12.1299 10.4737 12.0663 10.5 12 10.5H7.5C7.4337 10.5 7.37011 10.4737 7.32322 10.4268C7.27634 10.3799 7.25 10.3163 7.25 10.25C7.25 10.1837 7.27634 10.1201 7.32322 10.0732Z" fill="#4880FF" stroke="white"/>
</svg>
