<svg width="19" height="17" viewBox="0 0 19 17" fill="none" xmlns="http://www.w3.org/2000/svg">
<path d="M14.0235 0H5.17401C2.73155 0 0.749268 1.86376 0.749268 4.16212V9.16001V9.99577C0.749268 12.2941 2.73155 14.1579 5.17401 14.1579H6.50144C6.74037 14.1579 7.05896 14.3083 7.2094 14.4922L8.53682 16.1554C9.12089 16.8909 10.0766 16.8909 10.6607 16.1554L11.9881 14.4922C12.1563 14.2833 12.4217 14.1579 12.6961 14.1579H14.0235C16.466 14.1579 18.4483 12.2941 18.4483 9.99577V4.16212C18.4483 1.86376 16.466 0 14.0235 0ZM6.05896 8.35767C5.56339 8.35767 5.17401 7.98157 5.17401 7.5219C5.17401 7.06223 5.57224 6.68614 6.05896 6.68614C6.54568 6.68614 6.94391 7.06223 6.94391 7.5219C6.94391 7.98157 6.55453 8.35767 6.05896 8.35767ZM9.59876 8.35767C9.10319 8.35767 8.71381 7.98157 8.71381 7.5219C8.71381 7.06223 9.11204 6.68614 9.59876 6.68614C10.0855 6.68614 10.4837 7.06223 10.4837 7.5219C10.4837 7.98157 10.0943 8.35767 9.59876 8.35767ZM13.1386 8.35767C12.643 8.35767 12.2536 7.98157 12.2536 7.5219C12.2536 7.06223 12.6518 6.68614 13.1386 6.68614C13.6253 6.68614 14.0235 7.06223 14.0235 7.5219C14.0235 7.98157 13.6341 8.35767 13.1386 8.35767Z" fill="#4880FF"/>
</svg>
