<svg width="40" height="40" viewBox="0 0 40 40" fill="none" xmlns="http://www.w3.org/2000/svg">
<path d="M22.1969 13.8856C23.3966 14.4583 24.4413 15.3107 25.2433 16.3709C26.0452 17.4312 26.581 18.6684 26.8057 19.9787C27.0303 21.289 26.9373 22.634 26.5343 23.9009C26.1313 25.1677 25.4302 26.3194 24.4898 27.2591L16.1822 35.5667C14.6242 37.1247 12.5111 38 10.3077 38C8.10438 38 5.99128 37.1247 4.43328 35.5667C2.87528 34.0087 2 31.8956 2 29.6923C2 27.4889 2.87528 25.3758 4.43328 23.8178L7.67696 20.5742M32.323 19.4259L35.5667 16.1822C37.1247 14.6242 38 12.5111 38 10.3077C38 8.10438 37.1247 5.99128 35.5667 4.43328C34.0087 2.87528 31.8956 2 29.6923 2C27.4889 2 25.3758 2.87528 23.8178 4.43328L15.5102 12.7409C14.5698 13.6806 13.8687 14.8323 13.4657 16.0991C13.0627 17.366 12.9697 18.711 13.1943 20.0213C13.419 21.3316 13.9548 22.5688 14.7567 23.6291C15.5587 24.6894 16.6034 25.5417 17.8031 26.1144" stroke="#4780FF" stroke-width="4" stroke-linecap="round" stroke-linejoin="round"/>
</svg>
