<svg width="26" height="26" viewBox="0 0 26 26" fill="none" xmlns="http://www.w3.org/2000/svg">
<circle cx="13" cy="13" r="13" fill="#EF2300"/>
<path fill-rule="evenodd" clip-rule="evenodd" d="M9.46288 8.72444C9.46288 8.14209 8.83708 7.79197 8.39667 8.17299C6.92875 9.44298 6 11.3194 6 13.4128C6 17.2379 9.10085 20.3388 12.9259 20.3388C16.751 20.3388 19.8519 17.2379 19.8519 13.4128C19.8519 11.3194 18.9231 9.44284 17.4551 8.17285C17.0146 7.79184 16.3888 8.14198 16.3888 8.72433V8.72433C16.3888 8.95378 16.4952 9.16853 16.6645 9.32339C17.772 10.3365 18.4667 11.7935 18.4667 13.4129C18.4667 16.4729 15.986 18.9536 12.9259 18.9536C9.86584 18.9536 7.38515 16.4729 7.38515 13.4129C7.38515 11.7936 8.07977 10.3366 9.18728 9.32347C9.35657 9.16862 9.46288 8.95387 9.46288 8.72444V8.72444Z" fill="#FAFAFA"/>
<rect x="12.084" y="4.88477" width="1.68542" height="8.42709" rx="0.842709" fill="#FAFAFA"/>
</svg>
