<svg width="22" height="22" viewBox="0 0 22 22" fill="none" xmlns="http://www.w3.org/2000/svg">
<path fill-rule="evenodd" clip-rule="evenodd" d="M11 1.25C11.1989 1.25 11.3897 1.32902 11.5303 1.46967C11.671 1.61032 11.75 1.80109 11.75 2V13.69L14.97 10.47C15.0387 10.3963 15.1215 10.3372 15.2135 10.2962C15.3055 10.2552 15.4048 10.2332 15.5055 10.2314C15.6062 10.2296 15.7062 10.2482 15.7996 10.2859C15.893 10.3236 15.9778 10.3797 16.049 10.451C16.1203 10.5222 16.1764 10.607 16.2141 10.7004C16.2518 10.7938 16.2704 10.8938 16.2686 10.9945C16.2668 11.0952 16.2448 11.1945 16.2038 11.2865C16.1628 11.3785 16.1037 11.4613 16.03 11.53L11.53 16.03C11.3894 16.1705 11.1988 16.2493 11 16.2493C10.8012 16.2493 10.6106 16.1705 10.47 16.03L5.97 11.53C5.89631 11.4613 5.83721 11.3785 5.79622 11.2865C5.75523 11.1945 5.73319 11.0952 5.73141 10.9945C5.72963 10.8938 5.74816 10.7938 5.78588 10.7004C5.8236 10.607 5.87974 10.5222 5.95096 10.451C6.02218 10.3797 6.10701 10.3236 6.2004 10.2859C6.29379 10.2482 6.39382 10.2296 6.49452 10.2314C6.59523 10.2332 6.69454 10.2552 6.78654 10.2962C6.87854 10.3372 6.96134 10.3963 7.03 10.47L10.25 13.69V2C10.25 1.80109 10.329 1.61032 10.4697 1.46967C10.6103 1.32902 10.8011 1.25 11 1.25ZM2 14.75C2.19891 14.75 2.38968 14.829 2.53033 14.9697C2.67098 15.1103 2.75 15.3011 2.75 15.5V17.75C2.75 18.1478 2.90804 18.5294 3.18934 18.8107C3.47064 19.092 3.85218 19.25 4.25 19.25H17.75C18.1478 19.25 18.5294 19.092 18.8107 18.8107C19.092 18.5294 19.25 18.1478 19.25 17.75V15.5C19.25 15.3011 19.329 15.1103 19.4697 14.9697C19.6103 14.829 19.8011 14.75 20 14.75C20.1989 14.75 20.3897 14.829 20.5303 14.9697C20.671 15.1103 20.75 15.3011 20.75 15.5V17.75C20.75 18.5456 20.4339 19.3087 19.8713 19.8713C19.3087 20.4339 18.5456 20.75 17.75 20.75H4.25C3.45435 20.75 2.69129 20.4339 2.12868 19.8713C1.56607 19.3087 1.25 18.5456 1.25 17.75V15.5C1.25 15.3011 1.32902 15.1103 1.46967 14.9697C1.61032 14.829 1.80109 14.75 2 14.75Z" fill="black" stroke="black"/>
</svg>
