<svg width="16" height="16" viewBox="0 0 16 16" fill="none" xmlns="http://www.w3.org/2000/svg">
<path d="M10.3865 10.1717C10.0731 10.4851 9.70104 10.7337 9.29157 10.9033C8.88209 11.0729 8.44321 11.1602 8 11.1602C7.55679 11.1602 7.11791 11.0729 6.70843 10.9033C6.29896 10.7337 5.9269 10.4851 5.6135 10.1717M14.75 7.78516C14.75 8.67158 14.5754 9.54932 14.2362 10.3683C13.897 11.1872 13.3998 11.9313 12.773 12.5581C12.1462 13.1849 11.4021 13.6821 10.5831 14.0213C9.76417 14.3606 8.88642 14.5352 8 14.5352C7.11358 14.5352 6.23583 14.3606 5.41689 14.0213C4.59794 13.6821 3.85382 13.1849 3.22703 12.5581C2.60023 11.9313 2.10303 11.1872 1.76381 10.3683C1.42459 9.54932 1.25 8.67158 1.25 7.78516C1.25 5.99495 1.96116 4.27806 3.22703 3.01219C4.4929 1.74632 6.20979 1.03516 8 1.03516C9.79021 1.03516 11.5071 1.74632 12.773 3.01219C14.0388 4.27806 14.75 5.99495 14.75 7.78516ZM6.3125 6.09766C6.3125 6.40816 6.1865 6.66016 6.03125 6.66016C5.876 6.66016 5.75 6.40816 5.75 6.09766C5.75 5.78716 5.876 5.53516 6.03125 5.53516C6.1865 5.53516 6.3125 5.78716 6.3125 6.09766ZM6.03125 6.09766H6.03725V6.10891H6.03125V6.09766ZM10.25 6.09766C10.25 6.40816 10.124 6.66016 9.96875 6.66016C9.8135 6.66016 9.6875 6.40816 9.6875 6.09766C9.6875 5.78716 9.8135 5.53516 9.96875 5.53516C10.124 5.53516 10.25 5.78716 10.25 6.09766ZM9.96875 6.09766H9.97475V6.10891H9.96875V6.09766Z" stroke="#4880FF" stroke-width="1.5" stroke-linecap="round" stroke-linejoin="round"/>
</svg>
