<svg width="14" height="12" viewBox="0 0 14 12" fill="none" xmlns="http://www.w3.org/2000/svg">
<path d="M7.75215 2.14669V1.3169C7.75215 1.09882 7.56045 0.917969 7.32928 0.917969C7.09811 0.917969 6.90641 1.09882 6.90641 1.3169V2.11478H3.24158V1.3169C3.24158 1.09882 3.04988 0.917969 2.81871 0.917969C2.58754 0.917969 2.39584 1.09882 2.39584 1.3169V2.14669C0.873516 2.27967 0.134907 3.13605 0.0221422 4.40733C0.0108657 4.56158 0.146183 4.68924 0.304054 4.68924H9.84394C10.0074 4.68924 10.1428 4.55626 10.1258 4.40733C10.0131 3.13605 9.27448 2.27967 7.75215 2.14669Z" fill="#4880FF"/>
<path d="M0.563824 5.48633H9.58501C9.89511 5.48633 10.1488 5.72567 10.1488 6.01822V9.29481C10.1488 10.8906 9.30309 11.9544 7.32971 11.9544H2.81912C0.845736 11.9544 0 10.8906 0 9.29481V6.01822C0 5.72567 0.253721 5.48633 0.563824 5.48633Z" fill="#4880FF"/>
<circle cx="3.57977" cy="7.87664" r="0.579768" fill="white"/>
<circle cx="3.57977" cy="9.61688" r="0.579768" fill="white"/>
<circle cx="5.32" cy="7.87664" r="0.579768" fill="white"/>
<circle cx="5.32" cy="9.61688" r="0.579768" fill="white"/>
<circle cx="7.05828" cy="7.87664" r="0.579768" fill="white"/>
<circle cx="7.05828" cy="9.61688" r="0.579768" fill="white"/>
<path fill-rule="evenodd" clip-rule="evenodd" d="M10.6033 0.917969C10.4433 0.917969 10.2899 0.981533 10.1767 1.09468C10.0636 1.20782 10 1.36128 10 1.52129V2.38968C10 2.54968 10.0636 2.70311 10.1768 2.81623L12.1034 4.74305C12.2884 4.92807 12.584 4.98157 12.8169 4.82913C13.253 4.54356 13.6255 4.17113 13.9112 3.7351C14.0636 3.50181 14.0101 3.20638 13.8251 3.02156L11.8985 1.09474C11.8424 1.03869 11.7759 0.994229 11.7027 0.963898C11.6295 0.933566 11.551 0.917959 11.4717 0.917969L10.6033 0.917969ZM10.8296 1.97379C10.8896 1.97379 10.9471 1.94995 10.9896 1.90752C11.032 1.86509 11.0558 1.80755 11.0558 1.74754C11.0558 1.68754 11.032 1.62999 10.9896 1.58756C10.9471 1.54513 10.8896 1.52129 10.8296 1.52129C10.7696 1.52129 10.712 1.54513 10.6696 1.58756C10.6272 1.62999 10.6033 1.68754 10.6033 1.74754C10.6033 1.80755 10.6272 1.86509 10.6696 1.90752C10.712 1.94995 10.7696 1.97379 10.8296 1.97379Z" fill="#4880FF"/>
</svg>
