<svg width="24" height="20" viewBox="0 0 24 20" fill="none" xmlns="http://www.w3.org/2000/svg">
<path d="M1 8.146V9.26626L1.83389 8.51818C2.56613 7.86128 3.51557 7.4986 4.49929 7.5H4.5L19.5 7.5L19.5007 7.5C20.4844 7.4986 21.4339 7.86128 22.1661 8.51818L23 9.26626V8.146V7C23 6.07174 22.6313 5.1815 21.9749 4.52513C21.3185 3.86875 20.4283 3.5 19.5 3.5H14.121C14.0542 3.5 13.9912 3.47347 13.9458 3.4277L13.9445 3.42636L11.8226 1.30544C11.8225 1.30542 11.8225 1.30539 11.8225 1.30536C11.307 0.78999 10.6081 0.500318 9.87922 0.5H9.879H4.5C3.57174 0.5 2.6815 0.868749 2.02513 1.52513C1.36875 2.1815 1 3.07174 1 4V8.146ZM19.5 19.5C20.4283 19.5 21.3185 19.1313 21.9749 18.4749C22.6313 17.8185 23 16.9283 23 16V11.5C23 10.5717 22.6313 9.6815 21.9749 9.02513C21.3185 8.36875 20.4283 8 19.5 8H4.5C3.57174 8 2.6815 8.36875 2.02513 9.02513C1.36875 9.6815 1 10.5717 1 11.5V16C1 16.9283 1.36875 17.8185 2.02513 18.4749C2.6815 19.1313 3.57174 19.5 4.5 19.5H19.5Z" fill="#4880FF" stroke="white"/>
</svg>
