<svg width="19" height="16" viewBox="0 0 19 16" fill="none" xmlns="http://www.w3.org/2000/svg">
<path d="M18 4H3C3 7.2 1 11.3333 0 13H14C18 13 18.1667 6.66667 18 4Z" fill="#4880FF"/>
<path d="M18 15.0015V10C18 12 16.4878 14.0504 15 14C13.5122 13.9496 3 14 3 14V15C3 15.5523 3.44772 16 4 16H17C17.5523 16 18 15.5538 18 15.0015Z" fill="#4880FF"/>
<path fill-rule="evenodd" clip-rule="evenodd" d="M6.5 0C6.22386 0 6 0.223858 6 0.5V1H4C3.44772 1 3 1.44772 3 2V3H18V2C18 1.44772 17.5523 1 17 1H15V0.5C15 0.223858 14.7761 0 14.5 0C14.2239 0 14 0.223858 14 0.5V1H11V0.5C11 0.223858 10.7761 0 10.5 0C10.2239 0 10 0.223858 10 0.5V1H7V0.5C7 0.223858 6.77614 0 6.5 0Z" fill="#4880FF"/>
</svg>
