<svg width="24" height="24" viewBox="0 0 24 24" fill="none" xmlns="http://www.w3.org/2000/svg">
<path d="M21.7202 12.7524C21.8558 11.0303 21.5296 9.30331 20.7752 7.74937C19.5266 8.93576 18.0506 9.85695 16.4362 10.4574C16.566 12.0507 16.4941 13.654 16.2222 15.2294C18.1867 14.7346 20.0481 13.896 21.7202 12.7524ZM14.6332 15.5504C14.9526 14.0234 15.0643 12.4602 14.9652 10.9034C14.0132 11.1304 13.0202 11.2504 11.9992 11.2504C10.9782 11.2504 9.98521 11.1304 9.03321 10.9034C8.93645 12.4602 9.04811 14.0231 9.36521 15.5504C11.111 15.818 12.8874 15.818 14.6332 15.5504ZM9.77121 17.1194C11.2514 17.2945 12.747 17.2945 14.2272 17.1194C13.7185 18.7569 12.9675 20.3091 11.9992 21.7244C11.0309 20.3092 10.2799 18.757 9.77121 17.1194ZM7.77621 15.2304C7.50285 13.6545 7.43094 12.0503 7.56221 10.4564C5.94749 9.85609 4.47113 8.93489 3.22221 7.74837C2.46803 9.3027 2.14216 11.0301 2.27821 12.7524C3.95035 13.896 5.81173 14.7356 7.77621 15.2304ZM21.3552 14.7524C20.8503 16.4633 19.8864 18.0033 18.5681 19.205C17.2498 20.4068 15.6274 21.2245 13.8772 21.5694C14.7537 20.0956 15.4227 18.508 15.8652 16.8514C17.7947 16.447 19.6478 15.7388 21.3552 14.7534V14.7524ZM2.64321 14.7524C4.32521 15.7234 6.17321 16.4404 8.13321 16.8514C8.57572 18.508 9.24469 20.0956 10.1212 21.5694C8.3711 21.2246 6.74885 20.407 5.43055 19.2055C4.11225 18.0039 3.14826 16.4641 2.64321 14.7534V14.7524ZM13.8772 2.43037C16.3549 2.91738 18.5473 4.3462 19.9932 6.41637C18.9259 7.49475 17.6517 8.34644 16.2472 8.92037C15.8688 6.62818 15.065 4.427 13.8772 2.43037ZM11.9992 2.27637C13.4586 4.40847 14.4175 6.84273 14.8042 9.39737C13.9072 9.62737 12.9672 9.75037 11.9992 9.75037C11.0312 9.75037 10.0912 9.62837 9.19421 9.39737C9.5809 6.84272 10.5398 4.40845 11.9992 2.27637ZM10.1212 2.43037C8.93344 4.42699 8.12962 6.62818 7.75121 8.92037C6.34667 8.34647 5.07252 7.49477 4.00521 6.41637C5.45125 4.3465 7.6436 2.91703 10.1212 2.43037Z" fill="#4880FF"/>
</svg>
