<svg width="16" height="20" viewBox="0 0 16 20" fill="none" xmlns="http://www.w3.org/2000/svg">
<path d="M14.4293 12.6053L14.4306 12.6075C14.7365 13.1093 14.7899 13.6997 14.5874 14.2371C14.3821 14.7821 13.9601 15.1932 13.4164 15.3718L13.4164 15.3718L13.4136 15.3727C11.5489 15.9975 9.58596 16.3057 7.62126 16.3057C5.65662 16.3057 3.69455 15.9975 1.83113 15.3636L1.83012 15.3632C1.22153 15.1576 0.786972 14.743 0.608515 14.2448L0.608531 14.2448L0.607092 14.2409C0.417912 13.7263 0.477255 13.1522 0.803685 12.6047C0.803914 12.6043 0.804142 12.604 0.804371 12.6036L1.80136 10.9551L1.80141 10.9551L1.80541 10.9483C1.93988 10.7178 2.05271 10.4095 2.13157 10.1195C2.21033 9.82979 2.26895 9.50775 2.26895 9.24316V6.74207C2.26895 4.64761 3.48763 2.82892 5.25393 1.9503L5.39225 1.88149L5.46765 1.74665C5.89459 0.983084 6.69772 0.5 7.5916 0.5C8.49966 0.5 9.28192 0.967223 9.70684 1.719L9.78442 1.85627L9.92671 1.92419C11.7276 2.7839 12.9736 4.61974 12.9736 6.74207V9.24316C12.9736 9.50775 13.0322 9.82973 13.1108 10.1202C13.1898 10.4117 13.302 10.7201 13.4342 10.953L13.4341 10.9531L13.4408 10.9642L14.4293 12.6053Z" stroke="#4880FF"/>
<path d="M5.7315 18.4083C5.77658 18.4127 5.82185 18.4169 5.8672 18.4206C6.44222 18.4711 7.03002 18.5015 7.62006 18.5015C8.20087 18.5015 8.77941 18.471 9.3451 18.4205L9.3451 18.4205L9.34804 18.4202C9.38653 18.4165 9.42884 18.413 9.4737 18.4094C9.01892 18.9374 8.34696 19.2711 7.60028 19.2711C6.95039 19.2711 6.31064 19.0066 5.86431 18.5441L5.85561 18.5351L5.84647 18.5265C5.80678 18.4893 5.76842 18.4498 5.7315 18.4083Z" fill="white" stroke="#4880FF"/>
</svg>
