<svg width="9" height="12" viewBox="0 0 9 12" fill="none" xmlns="http://www.w3.org/2000/svg">
<path d="M4.61378 5.86378C4.54553 5.85524 4.46876 5.85524 4.39198 5.86378C2.82236 5.81257 1.56836 4.52373 1.56836 2.93616C1.57689 1.31444 2.88208 0 4.51141 0C6.13221 0 7.44591 1.31444 7.44591 2.93616C7.43738 4.52373 6.19193 5.81257 4.61378 5.86378Z" fill="#4880FF"/>
<path d="M1.84108 7.6307C0.552972 8.49277 0.552972 9.90964 1.84108 10.7632C3.30835 11.7447 5.71396 11.7447 7.18121 10.7632C8.46932 9.9011 8.46932 8.48424 7.18121 7.6307C5.72249 6.64914 3.31688 6.64914 1.84108 7.6307Z" fill="#4880FF"/>
</svg>
