<svg width="12" height="11" viewBox="0 0 12 11" fill="none" xmlns="http://www.w3.org/2000/svg">
<path d="M0.625 0C0.348858 0 0.125 0.223858 0.125 0.5V10.5C0.125 10.7761 0.348858 11 0.625 11H10.625C10.9011 11 11.125 10.7761 11.125 10.5V0.5C11.125 0.223858 10.9011 0 10.625 0H0.625ZM1.5 1.875C1.5 1.59886 1.72386 1.375 2 1.375H9.25C9.52614 1.375 9.75 1.59886 9.75 1.875V4.29289C9.75 4.73835 9.21143 4.96143 8.89645 4.64645L8.72855 4.47855C8.53329 4.28329 8.21671 4.28329 8.02145 4.47855L7.35355 5.14645C7.15829 5.34171 7.15829 5.65829 7.35355 5.85355L9.60355 8.10355C9.69732 8.19732 9.75 8.3245 9.75 8.45711V9.125C9.75 9.40114 9.52614 9.625 9.25 9.625H8.58211C8.4495 9.625 8.32232 9.57232 8.22855 9.47855L3.22855 4.47855C3.03329 4.28329 2.71671 4.28329 2.52145 4.47855L2.35355 4.64645C2.03857 4.96143 1.5 4.73835 1.5 4.29289V1.875Z" fill="#4880FF"/>
</svg>
