<svg width="116" height="39" viewBox="0 0 116 39" fill="none" xmlns="http://www.w3.org/2000/svg">
<path d="M3.16131 1.75386L3.10897 4.53753C3.10056 4.98441 3.44854 5.35364 3.88619 5.36222L7.45794 5.43224C7.89559 5.44082 8.25719 5.08551 8.26559 4.63863L8.31794 1.85496C8.32634 1.40808 7.97836 1.03886 7.54071 1.03028L3.96896 0.96025C3.53131 0.951669 3.16971 1.30698 3.16131 1.75386Z" fill="#4880FF"/>
<path d="M67.4317 16.1107L67.2999 26.365C67.2976 26.6529 67.0897 26.8959 66.8101 26.936C66.0267 27.0516 65.211 27.1035 64.3584 27.0965C63.0852 27.0847 62.1054 27.3017 62.1354 25.6878C62.1655 23.9772 62.1701 21.2827 62.147 17.6019L62.1354 1.59526C62.1354 1.47965 62.184 1.39235 62.2787 1.33336C62.6577 1.09977 63.1152 0.955843 63.5565 0.965281C64.2521 0.979438 64.9453 0.986517 65.6362 0.988876C66.1631 0.991236 66.6345 1.11865 67.1474 1.17292C67.2376 1.18471 67.2838 1.23662 67.2838 1.32864L67.4317 16.1107Z" fill="#4880FF"/>
<path d="M93.9823 12.1665C93.6727 14.3137 93.4116 16.4631 93.199 18.6126C93.1736 18.8604 93.0534 19.0279 92.8385 19.1152C92.1383 19.4078 91.4567 19.3889 90.7912 19.0609C90.396 18.8651 90.3013 18.4876 90.2574 18.0794C90.1904 17.4659 90.0356 16.2319 89.7906 14.375C89.5457 11.9707 89.0882 9.4673 89.0812 7.16209C89.0766 5.39957 89.0859 3.53322 89.109 1.5607C89.1136 1.14544 89.548 1.02982 89.8854 1.01567C91.2556 0.95196 92.5058 0.944882 93.6357 0.994431C94.3913 1.02746 94.4976 1.82496 94.5115 2.39124C94.5854 5.37125 94.5854 7.16917 94.5092 7.78735C94.3289 9.25259 94.1533 10.7131 93.9823 12.1665Z" fill="#4880FF"/>
<path d="M29.7051 19.0068C29.7397 19.8846 29.7143 20.8921 29.6242 22.0293C29.3954 24.948 27.6554 26.5477 24.9565 27.1305C22.5787 27.6425 20.0485 27.6637 17.7516 27.5104C16.6794 27.4396 15.5425 27.2367 14.3409 26.9016C12.4207 26.3684 11.3046 25.2099 10.7732 23.2728C10.5236 22.3597 10.3849 21.4748 10.3595 20.616C10.2902 18.3674 10.2948 16.1354 10.3711 13.9151C10.519 12.2092 11.2006 9.89455 12.7188 9.06638C15.464 7.56575 18.6666 7.6153 21.7353 7.70968C23.2165 7.75451 24.5498 7.95507 25.7352 8.31135C28.8663 9.25749 29.712 11.6689 29.7143 14.7763C29.7143 16.1991 29.7143 17.61 29.7051 19.0068ZM18.662 23.3483C18.6528 23.898 18.4541 24.4478 18.3847 24.981C18.3755 25.0612 18.431 25.1344 18.5095 25.1438C18.5257 25.1438 18.5442 25.1438 18.5604 25.1415C19.316 24.9598 20.2356 24.0915 20.7255 23.5512C21.2085 23.0203 21.7954 22.7018 22.4863 22.5909C24.0068 22.3479 25.0143 21.5315 25.1159 19.8114C25.1968 18.3981 25.2014 16.9659 25.1252 15.5101C24.9611 12.3956 21.8439 12.3696 19.6094 12.3791C18.5419 12.3838 16.0578 12.6929 15.5102 13.8042C14.7176 15.411 14.8609 17.249 14.9024 19.0139C14.9232 19.8492 15.1335 20.7316 15.561 21.43C16.0809 22.2818 17.3195 22.6334 18.2576 22.8315C18.4957 22.8835 18.6666 23.0982 18.662 23.3483Z" fill="#4880FF"/>
<path d="M59.6449 18.5025C59.638 20.7841 59.638 23.0657 59.6449 25.3473C59.6473 25.9938 59.7512 27.006 58.8477 27.0391C57.5583 27.0863 56.3706 27.0863 55.2869 27.0391C54.5059 27.006 54.3718 26.126 54.3718 25.5101C54.3765 22.4287 54.3788 19.0263 54.3788 15.3031C54.3788 13.9629 53.8126 12.3938 52.3777 12.0564C50.7393 11.6695 49.5493 12.1437 48.8122 13.4792C48.2876 14.43 48.1929 15.716 48.1975 16.7801C48.2114 19.6846 48.2091 22.6953 48.1929 25.8074C48.1883 26.4704 48.0173 26.8432 47.6776 26.9305C47.4142 26.9966 47.0283 27.0414 46.5176 27.0627C45.6442 27.0981 44.7499 27.1004 43.8325 27.0721C42.9267 27.0438 42.9498 26.1519 42.9545 25.4865C42.9706 22.4924 42.9776 19.2151 42.9706 15.6546C42.9706 13.944 42.5015 12.4858 40.6599 11.9904C39.2758 11.6176 37.7021 12.6156 37.1499 13.8473C36.7802 14.6778 36.8171 15.6641 36.6947 16.5654C36.6069 17.2001 36.5653 17.8607 36.5676 18.545C36.5791 20.8879 36.5861 23.2686 36.5837 25.6871C36.5837 26.1189 36.5352 26.5271 36.4428 26.914C36.4174 27.0108 36.3573 27.058 36.2602 27.058L32.4452 27.0532C31.8652 27.0532 31.5741 26.7536 31.5741 26.1614L31.5856 19.0499L31.5625 8.68709C31.5625 8.39451 31.7936 8.15857 32.0801 8.15621C32.0801 8.15621 32.0801 8.15621 32.0824 8.15621C33.1662 8.16093 34.3192 8.16801 35.5416 8.1798C36.1054 8.18452 36.4428 9.19674 36.6092 9.65919C36.6577 9.79368 36.8033 9.86211 36.935 9.81256C36.9696 9.80076 36.9997 9.77953 37.0251 9.75593C38.742 8.03116 40.7939 7.49084 43.0862 7.71971C44.3733 7.84712 45.457 8.34261 46.3374 9.20381C46.6493 9.50819 46.9821 9.81256 47.3356 10.1169C47.4928 10.2538 47.7284 10.2349 47.8648 10.0768C49.0317 8.71304 50.3858 7.80701 52.2113 7.70555C54.8178 7.56162 57.4197 8.10666 58.7391 10.4071C59.3861 11.5397 59.7004 12.7784 59.6819 14.1257C59.6611 15.5815 59.6473 17.0396 59.6449 18.5001V18.5025Z" fill="#4880FF"/>
<path d="M86.34 18.1399C86.3331 19.8317 86.3285 21.5258 86.3261 23.2175C86.3238 24.2486 86.5226 25.3859 86.5503 26.5113C86.5595 26.8653 86.3908 27.0469 86.0419 27.0587C84.7872 27.0941 83.6295 27.0965 82.5643 27.0587C81.975 27.0375 81.298 26.24 80.9144 25.8318C80.8636 25.7799 80.7827 25.7775 80.7318 25.8318C80.7318 25.8318 80.7272 25.8365 80.7249 25.8389C80.3205 26.3013 79.8445 26.6246 79.2969 26.8063C78.398 27.1059 77.439 27.3301 76.4154 27.4764C75.1514 27.658 73.8458 27.5353 72.4987 27.113C69.4069 26.1409 68.7114 23.5195 69.051 20.5442C69.2151 19.0979 70.1278 17.9323 71.3618 17.2292C72.1128 16.8021 72.8083 16.5308 73.4507 16.4175C75.089 16.1273 76.7874 15.8607 78.5413 15.6129C79.9231 15.4194 81.5429 14.5866 80.9259 12.8594C80.7087 12.253 80.3182 11.833 79.7567 11.5995C78.5574 11.1016 77.3951 11.1394 76.2721 11.7127C75.6043 12.0548 75.1167 12.5598 74.8048 13.2299C74.6939 13.4705 74.5599 13.6947 74.405 13.9023C74.3265 14.0061 74.204 14.0675 74.0746 14.0604C72.7644 14.0108 71.4565 13.9967 70.1463 14.0179C69.9846 14.0203 69.8251 13.9401 69.6657 13.7749C69.5525 10.6156 72.2191 8.57697 75.022 8.02486C78.3726 7.3642 84.9767 7.2132 86.0951 11.5688C86.236 12.1233 86.3123 12.7981 86.3192 13.5932C86.3331 15.108 86.34 16.6228 86.34 18.1399ZM79.1698 23.5172C80.6625 22.965 81.5314 19.9024 80.9028 18.5977C80.8428 18.4726 80.711 18.4018 80.577 18.4207C79.0566 18.6283 77.6216 18.9044 76.2721 19.2489C75.8677 19.3503 75.4888 19.5249 75.1329 19.7727C73.7765 20.7117 73.8528 22.7763 75.3663 23.5573C76.7019 24.2486 77.855 24.0009 79.1698 23.5172Z" fill="#4880FF"/>
<path d="M8.28389 17.1509C8.24923 20.8411 8.24692 24.5337 8.27696 28.231C8.2862 29.314 8.18915 30.121 7.9835 30.6542C7.47051 31.9849 6.49538 32.832 5.0581 33.1977C3.704 33.5398 2.42847 33.6885 1.23151 33.6413C-0.328241 33.5799 -0.0232235 30.8618 0.131596 29.8095C0.163947 29.5877 0.284106 29.4414 0.494384 29.373C0.912628 29.2338 1.34011 29.1323 1.77916 29.071C3.2303 28.8657 3.19564 26.6738 3.20257 25.5129C3.23261 20.4094 3.23954 15.2964 3.22337 10.1763C3.20257 9.78937 3.17484 9.39534 3.13556 8.99659C3.09397 8.55064 3.3366 8.17785 3.79412 8.17313C5.19212 8.15425 6.4561 8.16841 7.58605 8.2156C7.97425 8.22976 8.27927 8.55536 8.27927 8.95176L8.28389 17.1509Z" fill="#4880FF"/>
<path d="M88.855 22.2013L88.8351 26.0802C88.8323 26.6184 89.2573 27.057 89.7844 27.0598L93.5925 27.0801C94.1195 27.083 94.549 26.649 94.5518 26.1108L94.5717 22.2319C94.5744 21.6937 94.1494 21.2552 93.6223 21.2523L89.8143 21.232C89.2872 21.2292 88.8577 21.6631 88.855 22.2013Z" fill="#4880FF"/>
<path d="M114.497 34.7874C114.291 34.8181 114.065 35.0045 114.026 35.2121C114.014 35.2758 113.991 35.3372 113.945 35.3843C113.894 35.4386 113.82 35.4669 113.748 35.4858C113.543 35.5377 113.33 35.5141 113.12 35.5236C112.91 35.533 112.72 35.5401 112.521 35.5471C112.505 35.5471 112.489 35.5471 112.478 35.5401C112.459 35.5259 112.457 35.5 112.454 35.4764C112.447 35.2475 112.441 35.0186 112.434 34.7898C112.434 34.7685 112.434 34.7426 112.445 34.726C112.512 34.634 112.914 34.6765 113.016 34.6741C113.247 34.6694 113.48 34.6718 113.711 34.6623C114.102 34.6482 114.483 34.5939 114.853 34.4594C114.888 34.4453 114.925 34.4311 114.952 34.4052C115.054 34.3084 115.066 34.0158 115.093 33.8837C115.133 33.6902 115.172 33.4897 115.149 33.2938C115.116 33.0013 115.015 32.7229 114.904 32.4539C114.224 31.7059 113.436 31.4464 112.542 31.6729C112.108 31.7838 111.727 32.0598 111.47 32.4326C111.214 32.8054 111.049 33.1971 110.941 33.6525C110.844 34.7025 111.084 35.5731 111.664 36.2668C112.152 36.8472 113.889 36.6419 114.462 36.4437C114.527 36.4202 114.583 36.3753 114.62 36.314C114.772 36.0497 114.86 35.7642 114.883 35.4598C114.897 35.2522 114.918 35.0493 114.938 34.8464C114.948 34.7638 114.869 34.6977 114.791 34.7237C114.689 34.7567 114.592 34.7756 114.495 34.7921L114.497 34.7874ZM112.434 33.5204C112.452 33.1192 112.762 32.8102 113.125 32.8267L113.254 32.8337C113.617 32.8503 113.896 33.19 113.878 33.5911L113.871 33.7587C113.871 33.7587 113.871 33.7587 113.871 33.761C113.866 33.8247 113.813 33.8743 113.751 33.8696L112.533 33.8082C112.471 33.8059 112.422 33.7516 112.424 33.6879L112.434 33.5204Z" fill="#4880FF"/>
<path d="M78.3182 35.6939C78.1403 35.8497 77.9438 36.0195 77.7336 36.2036C77.0958 36.7557 76.2015 36.6873 75.3951 36.5316C74.2028 36.298 73.8977 34.4104 74.0942 33.4265C74.3622 32.4379 74.8983 31.8504 75.7047 31.6592C76.9595 31.3619 78.2419 32.0957 78.3736 33.476C78.3852 33.6082 78.2905 33.7261 78.1634 33.7379C78.1518 33.7379 78.1403 33.7379 78.1287 33.7379C77.4956 33.7025 76.9756 33.3062 76.4372 33.0183C75.9797 32.7729 75.6724 32.8956 75.5129 33.3864C75.2819 34.1013 75.3812 34.7525 75.8133 35.3447C75.9196 35.491 76.1184 35.5288 76.2686 35.4297C76.8971 35.0215 77.5949 34.7808 78.3644 34.7077C78.54 34.6912 78.6948 34.8233 78.711 35.0003C78.7179 35.0781 78.6972 35.1583 78.6532 35.222L78.3182 35.6939Z" fill="#4880FF"/>
<path d="M106.192 32.2159C106.187 32.1333 106.15 32.0696 106.079 32.0295C105.178 31.5175 104.078 31.5458 102.985 31.8431C102.25 32.0437 102.536 33.0913 102.536 33.0913C102.601 33.3626 102.835 33.3862 103.133 33.3131C103.572 32.9544 104.036 32.6901 104.586 32.768C104.607 32.7609 104.63 32.7586 104.653 32.7609L105.002 32.7963C105.078 32.8034 105.136 32.8671 105.136 32.945L105.141 33.6741C105.141 33.6741 105.141 33.6858 105.141 33.6906C105.131 33.7731 105.06 33.8321 104.977 33.8251L103.165 33.6056C103.116 33.6009 102.828 33.5372 102.636 33.6788C102.409 33.8109 102.171 35.052 102.349 35.833C102.393 36.0642 102.479 36.2695 102.61 36.4488C102.661 36.5172 102.728 36.5526 102.811 36.555C103.891 36.5951 105.002 36.6092 106.144 36.5951C106.197 36.5951 106.245 36.5762 106.289 36.5455C106.338 36.5101 106.368 36.4677 106.384 36.4158L106.192 32.2159ZM105.007 35.4012C104.993 35.5428 104.87 35.6466 104.732 35.6324L103.636 35.5215C103.498 35.5074 103.396 35.3823 103.41 35.2407L103.431 35.019C103.445 34.8774 103.567 34.7736 103.706 34.7877L104.801 34.8986C104.94 34.9128 105.041 35.0378 105.027 35.1794L105.007 35.4012Z" fill="#4880FF"/>
<path d="M32.7783 34.7874C32.5727 34.8181 32.3462 35.0045 32.3069 35.2121C32.2954 35.2758 32.2723 35.3372 32.2261 35.3843C32.1752 35.4386 32.1013 35.4669 32.0297 35.4858C31.824 35.5377 31.6114 35.5141 31.4011 35.5236C31.1909 35.533 31.0014 35.5401 30.8027 35.5471C30.7865 35.5471 30.7703 35.5471 30.7587 35.5401C30.7403 35.5259 30.738 35.5 30.7356 35.4764C30.7287 35.2475 30.7218 35.0186 30.7148 34.7898C30.7148 34.7685 30.7148 34.7426 30.7264 34.726C30.7934 34.634 31.1955 34.6765 31.2972 34.6741C31.5282 34.6694 31.7616 34.6718 31.9927 34.6623C32.3832 34.6482 32.7645 34.5939 33.1342 34.4594C33.1689 34.4453 33.2058 34.4311 33.2336 34.4052C33.3352 34.3084 33.3468 34.0158 33.3745 33.8837C33.4138 33.6902 33.4531 33.4897 33.43 33.2938C33.3976 33.0013 33.2959 32.7229 33.185 32.4539C32.5057 31.7059 31.7177 31.4464 30.8234 31.6729C30.389 31.7838 30.0078 32.0598 29.7513 32.4326C29.4948 32.8054 29.3307 33.1971 29.2221 33.6525C29.1251 34.7025 29.3654 35.5731 29.9454 36.2668C30.4329 36.8472 32.1706 36.6419 32.7437 36.4437C32.8084 36.4202 32.8638 36.3753 32.9008 36.314C33.0533 36.0497 33.1411 35.7642 33.1642 35.4598C33.1781 35.2522 33.1989 35.0493 33.2197 34.8464C33.2289 34.7638 33.1504 34.6977 33.0718 34.7237C32.9701 34.7567 32.8731 34.7756 32.776 34.7921L32.7783 34.7874ZM30.7148 33.5204C30.7333 33.1192 31.043 32.8102 31.4058 32.8267L31.5352 32.8337C31.8979 32.8503 32.1775 33.19 32.1591 33.5911L32.1521 33.7587C32.1521 33.7587 32.1521 33.7587 32.1521 33.761C32.1475 33.8247 32.0944 33.8743 32.032 33.8696L30.8142 33.8082C30.7518 33.8059 30.7033 33.7516 30.7056 33.6879L30.7148 33.5204Z" fill="#4880FF"/>
<path d="M56.5737 34.5511C56.271 35.1197 55.9613 35.9644 55.4483 36.3348C55.1641 36.5401 54.8614 36.625 54.5402 36.592C53.6806 36.5 52.9412 36.5 52.3219 36.5873C52.0862 36.6203 51.869 36.4552 51.8367 36.2145C51.8343 36.1909 51.832 36.1697 51.832 36.1461L51.8759 33.2345C51.8251 32.3284 51.832 31.4248 51.8944 30.5258C51.9129 30.2592 52.0146 30.0303 52.1994 29.8439C52.3681 29.6764 52.6362 29.6787 52.8002 29.8486C52.8464 29.8958 52.8788 29.9524 52.8996 30.0161C53.0313 30.4291 53.0429 30.8868 52.9296 31.3941C52.8927 31.5687 53.0013 31.7433 53.1723 31.781C53.2254 31.7928 53.2809 31.7905 53.3317 31.7763C54.3369 31.4625 55.2173 31.6159 55.9105 32.47C56.4766 33.166 56.74 33.6214 56.5737 34.5511ZM54.0365 35.4547C54.5772 35.4783 55.0417 34.9168 55.074 34.1995C55.104 33.4822 54.6904 32.8806 54.1474 32.857C53.6067 32.8334 53.1422 33.3949 53.1099 34.1122C53.0798 34.8295 53.4935 35.4311 54.0365 35.4547Z" fill="#4880FF"/>
<path d="M66.4967 33.6938L66.5337 36.2114C66.536 36.4402 66.3581 36.629 66.134 36.6313C66.1155 36.6313 66.097 36.6313 66.0785 36.629C65.4061 36.5393 64.7244 36.5252 64.0335 36.5889C62.691 36.7116 62.5408 35.848 61.9238 34.9467C61.7158 34.4111 61.7389 33.8212 61.9908 33.1747C62.5246 31.8133 63.6522 31.4995 65.0017 31.6576C65.1103 31.6694 65.2074 31.5915 65.2189 31.4806C65.2212 31.4594 65.2189 31.4381 65.2166 31.4169C65.0895 30.7987 65.0156 30.3174 65.4893 29.7912C65.5609 29.711 65.6487 29.6827 65.7527 29.7063C66.1432 29.7936 66.3627 30.0272 66.4159 30.407C66.543 31.3603 66.5707 32.4551 66.4967 33.6938ZM65.0502 35.0175L65.0086 33.2974C65.004 33.0615 64.8122 32.8727 64.5788 32.8774H64.4818C63.7862 32.8963 63.234 33.4814 63.2502 34.1869V34.2152C63.2663 34.9207 63.844 35.4776 64.5419 35.461H64.6389C64.87 35.454 65.0548 35.2581 65.0502 35.0198C65.0502 35.0198 65.0502 35.0198 65.0502 35.0175Z" fill="#4880FF"/>
<path d="M101.224 34.7193L101.252 36.102C101.259 36.4583 101.09 36.6305 100.741 36.6211L100.374 36.6093C100.055 36.5975 99.9211 36.4323 99.9743 36.1114C100.111 35.2833 100.113 34.3725 99.9281 33.5372C99.7964 32.9545 99.1077 32.8601 98.6433 32.9875C98.5462 33.0134 98.47 33.0889 98.4376 33.188C98.1257 34.1672 98.1811 35.2549 98.3799 36.2742C98.4122 36.437 98.3475 36.5196 98.1834 36.522L96.9772 36.5479C96.8455 36.5503 96.76 36.4889 96.7208 36.3615C96.6745 36.2176 96.6792 35.9557 96.7369 35.5735C96.7762 35.4744 96.797 35.3257 96.8039 35.1275C96.8501 33.5443 96.8478 31.9753 96.797 30.4157C96.7878 30.1349 96.968 29.9249 97.3354 29.7857C97.3932 29.7645 97.4509 29.755 97.511 29.7621C97.994 29.8022 98.2412 30.0759 98.2551 30.5832C98.262 30.8592 98.2204 31.1329 98.1303 31.4043C98.0887 31.527 98.1534 31.6591 98.2736 31.7016C98.3013 31.711 98.3336 31.7157 98.3637 31.7134C99.147 31.6638 100.134 31.5152 100.762 32.0437C101.298 32.4944 101.254 34.0776 101.224 34.7193Z" fill="#4880FF"/>
<path d="M14.5577 34.5328L14.5346 36.0169C14.5277 36.392 14.3405 36.5855 13.9731 36.5926L13.4809 36.602C13.1227 36.6091 12.9656 36.4321 13.0095 36.0664C13.0858 35.4435 13.2475 33.5135 12.7507 33.051C12.3972 32.723 11.8218 32.9142 11.5815 33.2893C11.1078 34.0302 11.1262 35.3114 11.2834 36.1207C11.3227 36.3212 11.2464 36.4487 11.0546 36.5053C10.775 36.5879 10.4769 36.6256 10.1604 36.6209C9.98474 36.6162 9.89462 36.5242 9.88769 36.3448L9.86458 35.4766C9.85534 34.2591 9.73056 32.926 10.0032 31.7415C10.0263 31.6424 10.1234 31.5811 10.2204 31.6047C10.232 31.607 10.2435 31.6117 10.2551 31.6165C10.7334 31.8406 11.2441 31.8807 11.7917 31.7415C12.5427 31.5504 13.467 31.5315 13.9615 32.2158C14.3936 32.8127 14.5924 33.5843 14.5577 34.5328Z" fill="#4880FF"/>
<path d="M19.5725 33.1674C19.8659 34.1561 19.7643 35.0715 19.2721 35.9139C18.7498 36.8057 17.2525 36.6972 16.4322 36.4778C15.5656 36.2465 15.2237 35.1093 15.1936 34.2905C15.1682 33.8517 15.2029 33.4317 15.2976 33.0282C15.6465 31.5606 17.6938 31.3129 18.6782 31.8721C19.0271 32.0679 19.3252 32.4997 19.5725 33.1674ZM18.3339 33.7526C18.3224 33.2689 17.9272 32.8843 17.4512 32.8985L17.3172 32.9032C16.8435 32.915 16.4668 33.3184 16.4807 33.8045L16.5015 34.6114C16.513 35.0951 16.9082 35.4797 17.3842 35.4656L17.5182 35.4608C17.9919 35.449 18.3686 35.0456 18.3547 34.5595L18.3339 33.7526Z" fill="#4880FF"/>
<path d="M26.3417 33.5837C26.0806 34.4307 25.8264 35.2825 25.5837 36.139C25.4798 36.5047 25.2163 36.6746 24.7958 36.6439C23.585 36.5566 23.9477 35.7048 23.3908 34.9734C23.303 34.8554 23.1898 34.8153 23.0489 34.8554C22.9611 34.8814 22.9056 34.9663 22.9171 35.056C22.9749 35.5066 22.9356 35.9148 22.797 36.2853C22.7531 36.3985 22.6745 36.474 22.5613 36.5141C22.0298 36.6982 21.6023 36.6486 21.2811 36.3678C21.198 36.2971 21.1425 36.198 21.1194 36.0894C20.856 34.7917 20.4516 33.5483 19.9062 32.3567C19.9478 31.7173 20.9415 31.1416 21.2419 31.9698C21.429 32.4912 21.9397 33.8078 22.3811 34.124C22.4226 34.1523 22.4804 34.1405 22.5105 34.098C22.522 34.0792 22.5289 34.0556 22.5243 34.0343C22.4388 33.4114 22.4804 32.8192 22.6468 32.26C22.6722 32.1703 22.7277 32.1066 22.8109 32.0689C23.3169 31.8447 24.1372 31.9179 24.2689 32.6116C24.3614 33.0953 24.5092 33.5412 24.7126 33.9494C24.8998 34.3293 25.0222 34.3104 25.08 33.888C25.1516 33.3548 25.2533 32.805 25.3873 32.2364C25.4821 31.8353 25.7316 31.6395 26.136 31.6465C26.1984 31.6465 26.2585 31.6536 26.3186 31.6654C26.7137 31.7409 26.8477 31.9745 26.7253 32.3638L26.3417 33.5837Z" fill="#4880FF"/>
<path d="M42.0537 34.7874C41.8481 34.8181 41.6216 35.0045 41.5823 35.2121C41.5708 35.2758 41.5477 35.3372 41.5015 35.3843C41.4506 35.4386 41.3767 35.4669 41.305 35.4858C41.0994 35.5377 40.8868 35.5141 40.6765 35.5236C40.4662 35.533 40.2768 35.5401 40.078 35.5471C40.0619 35.5471 40.0457 35.5471 40.0341 35.5401C40.0157 35.5259 40.0133 35.5 40.011 35.4764C40.0041 35.2475 39.9972 35.0186 39.9902 34.7898C39.9902 34.7685 39.9902 34.7426 40.0018 34.726C40.0688 34.634 40.4709 34.6765 40.5725 34.6741C40.8036 34.6694 41.037 34.6718 41.2681 34.6623C41.6586 34.6482 42.0399 34.5939 42.4096 34.4594C42.4442 34.4453 42.4812 34.4311 42.5089 34.4052C42.6106 34.3084 42.6222 34.0158 42.6499 33.8837C42.6892 33.6902 42.7285 33.4897 42.7054 33.2938C42.673 33.0013 42.5713 32.7229 42.4604 32.4539C41.7811 31.7059 40.9931 31.4464 40.0988 31.6729C39.6644 31.7838 39.2831 32.0598 39.0267 32.4326C38.7702 32.8054 38.6061 33.1971 38.4975 33.6525C38.4004 34.7025 38.6408 35.5731 39.2208 36.2668C39.7083 36.8472 41.446 36.6419 42.0191 36.4437C42.0838 36.4202 42.1392 36.3753 42.1762 36.314C42.3287 36.0497 42.4165 35.7642 42.4396 35.4598C42.4535 35.2522 42.4743 35.0493 42.4951 34.8464C42.5043 34.7638 42.4258 34.6977 42.3472 34.7237C42.2455 34.7567 42.1485 34.7756 42.0514 34.7921L42.0537 34.7874ZM39.9902 33.5204C40.0087 33.1192 40.3184 32.8102 40.6811 32.8267L40.8105 32.8337C41.1733 32.8503 41.4529 33.19 41.4344 33.5911L41.4275 33.7587C41.4275 33.7587 41.4275 33.7587 41.4275 33.761C41.4229 33.8247 41.3697 33.8743 41.3074 33.8696L40.0896 33.8082C40.0272 33.8059 39.9787 33.7516 39.981 33.6879L39.9902 33.5204Z" fill="#4880FF"/>
<path d="M50.7364 33.4499C50.3991 34.6178 50.0178 35.8612 49.5903 37.1802C49.3639 37.8857 49.1074 38.3694 48.8231 38.6313C48.4211 38.9993 47.8503 39.0914 47.1132 38.9097C46.4315 38.7398 46.2328 38.308 46.5124 37.6143C46.5702 37.4751 46.7181 37.3973 46.8613 37.4327L47.6424 37.6238C47.8341 37.671 48.0306 37.5742 48.1161 37.3925C48.3587 36.8782 48.3679 36.3614 48.1438 35.8424C47.7533 34.9387 47.3951 33.9713 47.0716 32.9402C47.03 32.8104 46.8983 32.7373 46.7689 32.7703C46.3137 32.8954 45.9024 33.0535 45.5303 33.2446C44.8718 33.5891 45.0012 35.3775 45.1052 35.8966C45.1791 36.2765 45.0289 36.5549 44.6546 36.6045H44.1693C43.7927 36.6564 43.6032 36.4889 43.6055 36.0995L43.6263 32.4093C43.5939 32.1663 43.624 31.9799 43.7141 31.8525C43.7903 31.7487 43.8897 31.7015 44.0122 31.7086C45.3455 31.8006 46.5794 31.7888 47.7117 31.6755C47.9381 31.6519 48.1461 31.7982 48.2062 32.0224L48.7099 33.9194C48.7307 33.9973 48.7792 34.0327 48.8601 34.0232C49.7197 33.9218 49.3754 32.2111 50.205 31.6708C50.2951 31.6118 50.406 31.5882 50.5123 31.6048C50.8705 31.6637 51.023 31.8832 50.9652 32.263C50.9213 32.5721 50.845 32.9662 50.7364 33.4499Z" fill="#4880FF"/>
<path d="M95.8451 35.7361C95.7526 35.8611 95.6856 36.0003 95.6463 36.1513C95.5886 36.3637 95.4568 36.4864 95.2512 36.5171C94.4124 36.6468 93.5852 36.6563 92.7648 36.5454C92.1848 36.4675 91.8937 36.1136 91.8868 35.486C91.8844 35.2382 91.8382 34.9504 92.0924 34.8064C92.2334 34.7262 92.4228 34.7309 92.6609 34.8206L92.9936 35.3633C93.0375 35.4364 93.1045 35.4789 93.19 35.4883C93.5944 35.5261 93.9572 35.5096 94.2807 35.4388C94.3569 35.4223 94.4055 35.3751 94.4286 35.2972C94.4517 35.2146 94.4147 35.125 94.3385 35.0849C93.7931 34.8088 93.1785 34.6177 92.7302 34.1788C92.5569 34.0113 92.3512 33.9028 92.1086 33.8556C92 33.8367 91.9145 33.7494 91.896 33.6385C91.7712 32.9472 91.9052 32.0199 92.714 31.7651C93.6406 31.4749 94.4933 31.5268 95.2697 31.9161C95.4823 32.0223 95.6325 32.2275 95.6694 32.4682L95.7226 32.815C95.7711 33.1218 95.651 33.2232 95.3621 33.1218C94.4378 32.7914 93.8393 32.7962 93.5644 33.1359C93.4742 33.2492 93.4927 33.4167 93.6036 33.5087C93.636 33.5347 93.673 33.5536 93.7122 33.5606L95.302 33.9028C95.3829 33.9193 95.4545 33.9688 95.5031 34.0396C95.8474 34.5469 95.9606 35.1108 95.8451 35.7361Z" fill="#4880FF"/>
<path d="M38.1516 32.5775C37.872 33.368 37.5831 34.149 37.2874 34.9205C37.1256 35.3405 37.0725 35.7322 36.9639 36.1545C36.9454 36.2324 36.9061 36.2937 36.8437 36.3433C36.6334 36.5108 36.3053 36.6004 35.8593 36.6099C35.1707 36.624 35.0298 36.2937 34.8773 35.7274C34.6762 34.9913 34.4359 34.2834 34.1517 33.6016C33.9553 33.3161 33.7958 32.915 33.678 32.4029C33.5648 31.9051 33.7565 31.6503 34.258 31.6385H34.3943C34.7987 31.6267 35.1569 31.9004 35.2585 32.2991L35.8547 34.5996C35.8616 34.6279 35.8894 34.6444 35.9171 34.6374C35.9333 34.6326 35.9471 34.6208 35.9517 34.6043L36.8137 32.0679C36.8945 31.832 37.1025 31.6668 37.3451 31.6432C37.5924 31.622 37.8373 31.6621 38.0823 31.7659C38.1585 31.7989 38.2047 31.8579 38.2163 31.9405C38.2486 32.1623 38.2278 32.3746 38.1516 32.5775Z" fill="#4880FF"/>
<path d="M61.3958 35.0544C61.3034 35.2738 61.1948 35.5121 61.0677 35.7646C60.5293 36.8358 58.7315 36.7084 57.8534 36.371C57.7679 36.3379 57.7032 36.2813 57.6547 36.2034L56.9661 35.078C56.8829 34.3347 56.9777 32.3716 57.7564 31.9823C58.6992 31.5152 60.6356 31.3618 61.1254 32.6406C61.4143 33.3909 61.5044 34.1955 61.3958 35.0544ZM60.081 33.7213C60.081 33.2706 59.7205 32.9096 59.2815 32.9096H59.0365C58.5952 32.912 58.2416 33.2777 58.2416 33.7283L58.2439 34.6061C58.2439 35.0567 58.6044 35.4177 59.0435 35.4177H59.2884C59.7297 35.4154 60.0833 35.0496 60.0833 34.599L60.081 33.7213Z" fill="#4880FF"/>
<path d="M71.4661 32.9741C71.1403 33.8259 70.9346 34.411 70.8537 34.7272C70.5765 35.822 70.2992 36.7682 70.0242 37.568C69.5644 38.9106 68.6539 39.3069 67.2975 38.7619C67.0641 38.6699 66.8862 38.5142 66.7637 38.2947C66.6621 38.1154 66.7244 37.8865 66.9001 37.7827C66.9555 37.7497 67.0179 37.7332 67.0803 37.7332C67.7435 37.7285 68.8503 37.5468 68.8642 36.7186C68.8688 36.4355 68.7787 36.065 68.5915 35.6073C68.1872 34.614 67.8013 33.5498 67.4385 32.4149C67.3622 32.1719 67.3784 31.9548 67.487 31.7613C67.896 31.6033 68.5268 31.4806 68.7325 32.0468C68.9797 32.7287 69.2432 33.3941 69.5251 34.0477C69.6753 34.3898 69.7908 34.3804 69.8763 34.0146L70.2876 32.2616C70.3639 31.9383 70.5603 31.7425 70.8792 31.6788C71.0525 31.6434 71.2281 31.6552 71.406 31.7118C71.6625 31.7944 71.7526 31.969 71.6787 32.2332L71.4661 32.9741Z" fill="#4880FF"/>
<path d="M82.9772 32.2159C82.9726 32.1333 82.9356 32.0696 82.864 32.0295C81.9628 31.5175 80.8629 31.5458 79.7699 31.8431C79.0351 32.0437 79.3216 33.0913 79.3216 33.0913C79.3863 33.3626 79.6197 33.3862 79.9178 33.3131C80.3568 32.9544 80.8213 32.6901 81.3712 32.768C81.392 32.7609 81.4151 32.7586 81.4382 32.7609L81.7872 32.7963C81.8634 32.8034 81.9212 32.8671 81.9212 32.945L81.9258 33.6741C81.9258 33.6741 81.9258 33.6858 81.9258 33.6906C81.9166 33.7731 81.8449 33.8321 81.7617 33.8251L79.9501 33.6056C79.9016 33.6009 79.6128 33.5372 79.421 33.6788C79.1945 33.8109 78.9565 35.052 79.1344 35.833C79.1783 36.0642 79.2638 36.2695 79.3955 36.4488C79.4464 36.5172 79.5134 36.5526 79.5966 36.555C80.6757 36.5951 81.7872 36.6092 82.9287 36.5951C82.9818 36.5951 83.0303 36.5762 83.0742 36.5455C83.1228 36.5101 83.1528 36.4677 83.169 36.4158L82.9772 32.2159ZM81.7918 35.4012C81.7779 35.5428 81.6554 35.6466 81.5168 35.6324L80.4215 35.5215C80.2829 35.5074 80.1812 35.3823 80.1951 35.2407L80.2159 35.019C80.2297 34.8774 80.3522 34.7736 80.4908 34.7877L81.5861 34.8986C81.7248 34.9128 81.8264 35.0378 81.8126 35.1794L81.7918 35.4012Z" fill="#4880FF"/>
<path d="M88.8689 33.1722L88.9429 36.1168C88.9498 36.341 88.8435 36.4708 88.6263 36.5038L87.8198 36.6288C87.5703 36.669 87.4478 36.5604 87.4548 36.3032L87.5079 33.4247C87.5125 33.1746 87.3369 32.9599 87.0966 32.915C86.7477 32.8537 86.3872 32.9599 86.0175 33.2312C85.9481 33.2808 85.9019 33.3563 85.8834 33.4412C85.6847 34.3873 85.6154 35.2722 85.6755 36.0956C85.7032 36.4731 85.516 36.6383 85.1117 36.5935C84.7997 36.5581 84.5894 36.4991 84.4785 36.4212C84.4993 34.9701 84.5039 33.5356 84.497 32.1152C84.497 31.7353 84.7165 31.6032 85.1579 31.7235C85.7194 31.8769 86.2046 31.8816 86.6136 31.7424C87.0619 31.589 88.3005 31.6102 88.4992 32.1836C88.6124 32.5116 88.7349 32.8419 88.8689 33.1722Z" fill="#4880FF"/>
<path d="M109.904 33.109C108.661 33.3096 108.945 35.2608 109.04 36.1055C109.065 36.3155 108.917 36.5066 108.709 36.5326L107.944 36.6246C107.66 36.6576 107.519 36.5279 107.522 36.2353L107.545 32.1298C107.533 31.9458 107.57 31.8136 107.656 31.7334C107.734 31.6556 107.831 31.6343 107.949 31.6674C108.695 31.8797 109.439 31.8892 110.181 31.6957C110.35 31.6508 110.523 31.757 110.565 31.9293C110.569 31.9458 110.572 31.9623 110.574 31.9812C110.62 32.5215 110.396 32.899 109.904 33.109Z" fill="#4880FF"/>
</svg>
