<svg width="19" height="16" viewBox="0 0 19 16" fill="none" xmlns="http://www.w3.org/2000/svg">
<path d="M8.74818 2.20382L9.14003 2.69823L9.53188 2.20382C10.3458 1.17687 11.6588 0.5 13.1334 0.5C15.6436 0.5 17.6341 2.42314 17.6341 4.74587C17.6341 5.69846 17.4732 6.57769 17.1934 7.39396L17.1922 7.39735C16.521 9.40249 15.1428 11.0248 13.647 12.2384C12.1499 13.4529 10.5676 14.2311 9.54477 14.5597L9.54476 14.5596L9.53962 14.5613C9.45383 14.5899 9.30886 14.6121 9.14003 14.6121C8.97121 14.6121 8.82623 14.5899 8.74044 14.5613L8.74045 14.5613L8.7353 14.5597C7.71246 14.2311 6.13019 13.4529 4.63311 12.2384C3.13723 11.0248 1.75907 9.40249 1.08782 7.39735L1.08784 7.39735L1.08668 7.39396C0.806907 6.57769 0.645996 5.69846 0.645996 4.74587C0.645996 2.42314 2.63649 0.5 5.14668 0.5C6.62131 0.5 7.93425 1.17687 8.74818 2.20382Z" stroke="#FF5436"/>
</svg>
