<svg width="24" height="24" viewBox="0 0 24 24" fill="none" xmlns="http://www.w3.org/2000/svg">
<path d="M11.94 8.68803C12.5899 8.99828 13.1557 9.45996 13.5901 10.0343C14.0245 10.6086 14.3148 11.2787 14.4365 11.9885C14.5581 12.6982 14.5077 13.4268 14.2894 14.113C14.0712 14.7992 13.6914 15.423 13.182 15.932L8.68203 20.432C7.83811 21.2759 6.69351 21.7501 5.50003 21.7501C4.30655 21.7501 3.16195 21.2759 2.31803 20.432C1.47411 19.5881 1 18.4435 1 17.25C1 16.0565 1.47411 14.9119 2.31803 14.068L4.07503 12.311M17.425 11.689L19.182 9.93203C20.0259 9.08811 20.5001 7.94351 20.5001 6.75003C20.5001 5.55655 20.0259 4.41195 19.182 3.56803C18.3381 2.72411 17.1935 2.25 16 2.25C14.8065 2.25 13.6619 2.72411 12.818 3.56803L8.31803 8.06803C7.80866 8.57703 7.42889 9.20084 7.21061 9.88705C6.99233 10.5733 6.94191 11.3018 7.0636 12.0116C7.18528 12.7213 7.47552 13.3915 7.90992 13.9658C8.34432 14.5401 8.9102 15.0018 9.56003 15.312" stroke="#4880FF" stroke-width="1.5" stroke-linecap="round" stroke-linejoin="round"/>
</svg>
