<svg width="24" height="24" viewBox="0 0 24 24" fill="none" xmlns="http://www.w3.org/2000/svg">
<path d="M12.94 8.68803C13.5899 8.99828 14.1557 9.45996 14.5901 10.0343C15.0245 10.6086 15.3148 11.2787 15.4365 11.9885C15.5581 12.6982 15.5077 13.4268 15.2894 14.113C15.0712 14.7992 14.6914 15.423 14.182 15.932L9.68203 20.432C8.83811 21.2759 7.69351 21.7501 6.50003 21.7501C5.30655 21.7501 4.16195 21.2759 3.31803 20.432C2.47411 19.5881 2 18.4435 2 17.25C2 16.0565 2.47411 14.9119 3.31803 14.068L5.07503 12.311M18.425 11.689L20.182 9.93203C21.0259 9.08811 21.5001 7.94351 21.5001 6.75003C21.5001 5.55655 21.0259 4.41195 20.182 3.56803C19.3381 2.72411 18.1935 2.25 17 2.25C15.8065 2.25 14.6619 2.72411 13.818 3.56803L9.31803 8.06803C8.80866 8.57703 8.42889 9.20084 8.21061 9.88705C7.99233 10.5733 7.94191 11.3018 8.0636 12.0116C8.18528 12.7213 8.47552 13.3915 8.90992 13.9658C9.34432 14.5401 9.9102 15.0018 10.56 15.312" stroke="#4880FF" stroke-width="1.5" stroke-linecap="round" stroke-linejoin="round"/>
</svg>
