<svg width="24" height="24" viewBox="0 0 24 24" fill="none" xmlns="http://www.w3.org/2000/svg">
<g clip-path="url(#clip0_4544_75168)">
<path d="M10.94 8.68803C11.5899 8.99828 12.1557 9.45996 12.5901 10.0343C13.0245 10.6086 13.3148 11.2787 13.4365 11.9885C13.5581 12.6982 13.5077 13.4268 13.2894 14.113C13.0712 14.7992 12.6914 15.423 12.182 15.932L7.68203 20.432C6.83811 21.2759 5.69351 21.7501 4.50003 21.7501C3.30655 21.7501 2.16195 21.2759 1.31803 20.432C0.474109 19.5881 0 18.4435 0 17.25C0 16.0565 0.474109 14.9119 1.31803 14.068L3.07503 12.311M16.425 11.689L18.182 9.93203C19.0259 9.08811 19.5001 7.94351 19.5001 6.75003C19.5001 5.55655 19.0259 4.41195 18.182 3.56803C17.3381 2.72411 16.1935 2.25 15 2.25C13.8065 2.25 12.6619 2.72411 11.818 3.56803L7.31803 8.06803C6.80866 8.57703 6.42889 9.20084 6.21061 9.88705C5.99233 10.5733 5.94191 11.3018 6.0636 12.0116C6.18528 12.7213 6.47552 13.3915 6.90992 13.9658C7.34432 14.5401 7.9102 15.0018 8.56003 15.312" stroke="#4880FF" stroke-width="1.5" stroke-linecap="round" stroke-linejoin="round"/>
</g>
<defs>
<clipPath id="clip0_4544_75168">
<rect width="24" height="24" fill="white"/>
</clipPath>
</defs>
</svg>
