<svg width="36" height="36" viewBox="0 0 36 36" fill="none" xmlns="http://www.w3.org/2000/svg">
<rect width="36" height="36" rx="18" fill="#5088FF"/>
<path d="M6 26V23.225C6 22.6583 6.14167 22.1333 6.425 21.65C6.70833 21.1667 7.1 20.8 7.6 20.55C7.83333 20.4333 8.05833 20.325 8.275 20.225C8.50833 20.125 8.75 20.0333 9 19.95V26H6ZM10 19C9.16667 19 8.45833 18.7083 7.875 18.125C7.29167 17.5417 7 16.8333 7 16C7 15.1667 7.29167 14.4583 7.875 13.875C8.45833 13.2917 9.16667 13 10 13C10.8333 13 11.5417 13.2917 12.125 13.875C12.7083 14.4583 13 15.1667 13 16C13 16.8333 12.7083 17.5417 12.125 18.125C11.5417 18.7083 10.8333 19 10 19ZM10 17C10.2833 17 10.5167 16.9083 10.7 16.725C10.9 16.525 11 16.2833 11 16C11 15.7167 10.9 15.4833 10.7 15.3C10.5167 15.1 10.2833 15 10 15C9.71667 15 9.475 15.1 9.275 15.3C9.09167 15.4833 9 15.7167 9 16C9 16.2833 9.09167 16.525 9.275 16.725C9.475 16.9083 9.71667 17 10 17ZM10 26V23.2C10 22.6333 10.1417 22.1167 10.425 21.65C10.725 21.1667 11.1167 20.8 11.6 20.55C12.6333 20.0333 13.6833 19.65 14.75 19.4C15.8167 19.1333 16.9 19 18 19C19.1 19 20.1833 19.1333 21.25 19.4C22.3167 19.65 23.3667 20.0333 24.4 20.55C24.8833 20.8 25.2667 21.1667 25.55 21.65C25.85 22.1167 26 22.6333 26 23.2V26H10ZM12 24H24V23.2C24 23.0167 23.95 22.85 23.85 22.7C23.7667 22.55 23.65 22.4333 23.5 22.35C22.6 21.9 21.6917 21.5667 20.775 21.35C19.8583 21.1167 18.9333 21 18 21C17.0667 21 16.1417 21.1167 15.225 21.35C14.3083 21.5667 13.4 21.9 12.5 22.35C12.35 22.4333 12.225 22.55 12.125 22.7C12.0417 22.85 12 23.0167 12 23.2V24ZM18 18C16.9 18 15.9583 17.6083 15.175 16.825C14.3917 16.0417 14 15.1 14 14C14 12.9 14.3917 11.9583 15.175 11.175C15.9583 10.3917 16.9 10 18 10C19.1 10 20.0417 10.3917 20.825 11.175C21.6083 11.9583 22 12.9 22 14C22 15.1 21.6083 16.0417 20.825 16.825C20.0417 17.6083 19.1 18 18 18ZM18 16C18.55 16 19.0167 15.8083 19.4 15.425C19.8 15.025 20 14.55 20 14C20 13.45 19.8 12.9833 19.4 12.6C19.0167 12.2 18.55 12 18 12C17.45 12 16.975 12.2 16.575 12.6C16.1917 12.9833 16 13.45 16 14C16 14.55 16.1917 15.025 16.575 15.425C16.975 15.8083 17.45 16 18 16ZM26 19C25.1667 19 24.4583 18.7083 23.875 18.125C23.2917 17.5417 23 16.8333 23 16C23 15.1667 23.2917 14.4583 23.875 13.875C24.4583 13.2917 25.1667 13 26 13C26.8333 13 27.5417 13.2917 28.125 13.875C28.7083 14.4583 29 15.1667 29 16C29 16.8333 28.7083 17.5417 28.125 18.125C27.5417 18.7083 26.8333 19 26 19ZM26 17C26.2833 17 26.5167 16.9083 26.7 16.725C26.9 16.525 27 16.2833 27 16C27 15.7167 26.9 15.4833 26.7 15.3C26.5167 15.1 26.2833 15 26 15C25.7167 15 25.475 15.1 25.275 15.3C25.0917 15.4833 25 15.7167 25 16C25 16.2833 25.0917 16.525 25.275 16.725C25.475 16.9083 25.7167 17 26 17ZM27 26V19.95C27.25 20.0333 27.4833 20.125 27.7 20.225C27.9333 20.325 28.1667 20.4333 28.4 20.55C28.9 20.8 29.2917 21.1667 29.575 21.65C29.8583 22.1333 30 22.6583 30 23.225V26H27Z" fill="white"/>
</svg>
