<svg width="68" height="72" viewBox="0 0 68 72" fill="none" xmlns="http://www.w3.org/2000/svg">
<rect width="68" height="72" rx="34" fill="#5088FF"/>
<path d="M24 34V26C24 23.3478 25.0536 20.8043 26.9289 18.9289C28.8043 17.0536 31.3478 16 34 16C36.6522 16 39.1957 17.0536 41.0711 18.9289C42.9464 20.8043 44 23.3478 44 26V34M20 34H48C50.2091 34 52 35.7909 52 38V52C52 54.2091 50.2091 56 48 56H20C17.7909 56 16 54.2091 16 52V38C16 35.7909 17.7909 34 20 34Z" stroke="white" stroke-width="4" stroke-linecap="round" stroke-linejoin="round"/>
</svg>
