<svg width="24" height="24" viewBox="0 0 24 24" fill="none" xmlns="http://www.w3.org/2000/svg">
<path fill-rule="evenodd" clip-rule="evenodd" d="M16.4993 3.75C16.8972 3.75 17.2787 3.90804 17.56 4.18934C17.8413 4.47064 17.9993 4.85218 17.9993 5.25V18.75C17.9993 19.1478 17.8413 19.5294 17.56 19.8107C17.2787 20.092 16.8972 20.25 16.4993 20.25H10.4993C10.1015 20.25 9.71998 20.092 9.43868 19.8107C9.15738 19.5294 8.99934 19.1478 8.99934 18.75V15C8.99934 14.8011 8.92032 14.6103 8.77967 14.4697C8.63902 14.329 8.44825 14.25 8.24934 14.25C8.05043 14.25 7.85966 14.329 7.71901 14.4697C7.57836 14.6103 7.49934 14.8011 7.49934 15V18.75C7.49934 19.5456 7.81541 20.3087 8.37802 20.8713C8.94063 21.4339 9.70369 21.75 10.4993 21.75H16.4993C17.295 21.75 18.0581 21.4339 18.6207 20.8713C19.1833 20.3087 19.4993 19.5456 19.4993 18.75V5.25C19.4993 4.45435 19.1833 3.69129 18.6207 3.12868C18.0581 2.56607 17.295 2.25 16.4993 2.25H10.4993C9.70369 2.25 8.94063 2.56607 8.37802 3.12868C7.81541 3.69129 7.49934 4.45435 7.49934 5.25V9C7.49934 9.19891 7.57836 9.38968 7.71901 9.53033C7.85966 9.67098 8.05043 9.75 8.24934 9.75C8.44825 9.75 8.63902 9.67098 8.77967 9.53033C8.92032 9.38968 8.99934 9.19891 8.99934 9V5.25C8.99934 4.85218 9.15738 4.47064 9.43868 4.18934C9.71998 3.90804 10.1015 3.75 10.4993 3.75H16.4993ZM5.77934 8.47C5.63871 8.32955 5.44809 8.25066 5.24934 8.25066C5.05059 8.25066 4.85997 8.32955 4.71934 8.47L1.71934 11.47C1.57889 11.6106 1.5 11.8012 1.5 12C1.5 12.1988 1.57889 12.3894 1.71934 12.53L4.71934 15.53C4.86151 15.6625 5.04956 15.7346 5.24386 15.7312C5.43816 15.7277 5.62355 15.649 5.76096 15.5116C5.89838 15.3742 5.97709 15.1888 5.98052 14.9945C5.98394 14.8002 5.91182 14.6122 5.77934 14.47L4.05934 12.75H14.9993C15.1983 12.75 15.389 12.671 15.5297 12.5303C15.6703 12.3897 15.7493 12.1989 15.7493 12C15.7493 11.8011 15.6703 11.6103 15.5297 11.4697C15.389 11.329 15.1983 11.25 14.9993 11.25H4.05934L5.77934 9.53C5.91979 9.38937 5.99868 9.19875 5.99868 9C5.99868 8.80125 5.91979 8.61063 5.77934 8.47Z" fill="#4880FF"/>
</svg>
