<svg width="16" height="13" viewBox="0 0 16 13" fill="none" xmlns="http://www.w3.org/2000/svg">
<path d="M0.5 0.917969C0.223858 0.917969 0 1.14183 0 1.41797V9.41797C0 9.69411 0.223858 9.91797 0.5 9.91797H8.5C8.77614 9.91797 9 9.69411 9 9.41797V1.41797C9 1.14183 8.77614 0.917969 8.5 0.917969H0.5ZM1.125 2.54297C1.125 2.26683 1.34886 2.04297 1.625 2.04297H7.375C7.65114 2.04297 7.875 2.26683 7.875 2.54297V4.29297C7.875 4.70812 7.37306 4.91603 7.0795 4.62247C6.89752 4.44049 6.60248 4.44049 6.4205 4.62247L5.97855 5.06442C5.78329 5.25968 5.78329 5.57626 5.97855 5.77152L7.72855 7.52152C7.82232 7.61529 7.875 7.74247 7.875 7.87508V8.29297C7.875 8.56911 7.65114 8.79297 7.375 8.79297H6.95711C6.8245 8.79297 6.69732 8.74029 6.60355 8.64652L2.5795 4.62247C2.39752 4.44049 2.10248 4.44049 1.9205 4.62247C1.62694 4.91603 1.125 4.70812 1.125 4.29297V2.54297Z" fill="#4780FF"/>
<path d="M4.75 5.91797C4.33 5.91797 4 6.23997 4 6.61797V12.218C4 12.61 4.345 12.918 4.75 12.918H12.25C12.67 12.918 13 12.61 13 12.218V10.118L14.5 11.518H16V7.31797H14.5L13 8.71797V6.61797C13 6.22597 12.67 5.91797 12.25 5.91797H4.75Z" fill="#4780FF"/>
<path fill-rule="evenodd" clip-rule="evenodd" d="M12.6033 0.917969C12.4433 0.917969 12.2899 0.981533 12.1767 1.09468C12.0636 1.20782 12 1.36128 12 1.52129V2.38968C12 2.54968 12.0636 2.70311 12.1768 2.81623L14.1034 4.74305C14.2884 4.92807 14.584 4.98157 14.8169 4.82913C15.253 4.54356 15.6255 4.17113 15.9112 3.7351C16.0636 3.50181 16.0101 3.20638 15.8251 3.02156L13.8985 1.09474C13.8424 1.03869 13.7759 0.994229 13.7027 0.963898C13.6295 0.933566 13.551 0.917959 13.4717 0.917969L12.6033 0.917969ZM12.8296 1.97379C12.8896 1.97379 12.9471 1.94995 12.9896 1.90752C13.032 1.86509 13.0558 1.80755 13.0558 1.74754C13.0558 1.68754 13.032 1.62999 12.9896 1.58756C12.9471 1.54513 12.8896 1.52129 12.8296 1.52129C12.7696 1.52129 12.712 1.54513 12.6696 1.58756C12.6272 1.62999 12.6033 1.68754 12.6033 1.74754C12.6033 1.80755 12.6272 1.86509 12.6696 1.90752C12.712 1.94995 12.7696 1.97379 12.8296 1.97379Z" fill="#4780FF"/>
</svg>
