<svg width="22" height="22" viewBox="0 0 22 22" fill="none" xmlns="http://www.w3.org/2000/svg">
<path d="M9.42803 7.341L9.42816 7.34107L15.0308 10.4539C15.1282 10.5081 15.2092 10.5872 15.2657 10.6833C15.3221 10.7793 15.3519 10.8886 15.3519 11C15.3519 11.1114 15.3221 11.2207 15.2657 11.3167C15.2092 11.4128 15.1282 11.4919 15.0308 11.5461L9.42833 14.6588C9.42828 14.6589 9.42822 14.6589 9.42816 14.6589C9.33309 14.7117 9.2259 14.7387 9.11719 14.7373C9.0084 14.736 8.90186 14.7062 8.8081 14.6511C8.71433 14.5959 8.63659 14.5172 8.58255 14.4228C8.52851 14.3284 8.50006 14.2215 8.5 14.1127V7.887C8.5 7.41077 9.01178 7.10956 9.42803 7.341ZM11 0.75C5.33886 0.75 0.75 5.33886 0.75 11C0.75 16.6611 5.33886 21.25 11 21.25C16.6611 21.25 21.25 16.6611 21.25 11C21.25 5.33886 16.6611 0.75 11 0.75Z" fill="#4880FF" stroke="white"/>
</svg>
