<svg width="21" height="22" viewBox="0 0 21 22" fill="none" xmlns="http://www.w3.org/2000/svg">
<circle cx="10.44" cy="10.7603" r="10.44" fill="#F4F4FB"/>
<path d="M10.1093 15.66C9.46259 15.66 8.86926 15.5567 8.32926 15.35C7.79592 15.1433 7.33592 14.85 6.94926 14.47C6.56259 14.09 6.26259 13.6367 6.04926 13.11C5.84259 12.5833 5.73926 11.9967 5.73926 11.35C5.73926 10.4433 5.92926 9.65333 6.30926 8.98C6.68926 8.30667 7.21926 7.78333 7.89926 7.41C8.58592 7.03 9.38592 6.84 10.2993 6.84C11.0926 6.84 11.7859 6.99667 12.3793 7.31C12.9793 7.61667 13.4426 8.05333 13.7693 8.62C14.0959 9.18 14.2593 9.84 14.2593 10.6C14.2593 11.1733 14.1759 11.67 14.0093 12.09C13.8493 12.51 13.6226 12.8367 13.3293 13.07C13.0359 13.2967 12.6926 13.41 12.2993 13.41C11.6259 13.41 11.1959 13.1333 11.0093 12.58C10.8293 12.86 10.6159 13.07 10.3693 13.21C10.1226 13.3433 9.85592 13.41 9.56926 13.41C9.02926 13.41 8.60926 13.24 8.30926 12.9C8.00926 12.56 7.85926 12.0967 7.85926 11.51C7.85926 11.0233 7.94926 10.59 8.12926 10.21C8.31592 9.83 8.56926 9.53333 8.88926 9.32C9.20926 9.1 9.57592 8.99 9.98926 8.99C10.5559 8.99 10.9526 9.21333 11.1793 9.66L11.2793 9.09H12.3693L11.9693 11.4C11.9226 11.6467 11.8993 11.84 11.8993 11.98C11.8993 12.36 12.0559 12.55 12.3693 12.55C12.6626 12.55 12.8993 12.37 13.0793 12.01C13.2659 11.65 13.3593 11.18 13.3593 10.6C13.3593 9.68 13.0859 8.97333 12.5393 8.48C11.9993 7.98 11.2493 7.73 10.2893 7.73C9.56926 7.73 8.94259 7.88 8.40926 8.18C7.88259 8.47333 7.47259 8.89 7.17926 9.43C6.89259 9.97 6.74926 10.61 6.74926 11.35C6.74926 12.0633 6.88592 12.6767 7.15926 13.19C7.43259 13.6967 7.81926 14.0867 8.31926 14.36C8.82592 14.6333 9.42259 14.77 10.1093 14.77C11.0693 14.77 11.8559 14.52 12.4693 14.02L12.8993 14.79C12.5859 15.0633 12.1859 15.2767 11.6993 15.43C11.2193 15.5833 10.6893 15.66 10.1093 15.66ZM9.80926 12.49C10.1493 12.49 10.4259 12.3367 10.6393 12.03C10.8526 11.7167 10.9593 11.3067 10.9593 10.8C10.9593 10.2133 10.7059 9.92 10.1993 9.92C9.85259 9.92 9.56926 10.0667 9.34926 10.36C9.12926 10.6467 9.01926 11.0267 9.01926 11.5C9.01926 11.8267 9.08592 12.0733 9.21926 12.24C9.35926 12.4067 9.55592 12.49 9.80926 12.49Z" fill="#4880FF"/>
</svg>
