<svg width="22" height="22" viewBox="0 0 22 22" fill="none" xmlns="http://www.w3.org/2000/svg">
<path d="M19.7449 15.9451L19.7449 15.945C19.9365 15.8743 20.1079 15.7576 20.244 15.6053C20.3801 15.453 20.4768 15.2697 20.5256 15.0714C20.5745 14.873 20.574 14.6657 20.5242 14.4676C20.4743 14.2696 20.3768 14.0867 20.2399 13.935C19.0017 12.5604 18.2507 10.7447 18.2507 8.75V8C18.2507 6.07718 17.4869 4.23311 16.1272 2.87348C14.7676 1.51384 12.9235 0.75 11.0007 0.75C9.07789 0.75 7.23382 1.51384 5.87418 2.87348C4.51454 4.23311 3.75071 6.07718 3.75071 8L3.7507 8.75L3.75071 8.75075C3.7536 10.6659 3.04428 12.5136 1.76065 13.9349L1.75987 13.9357C1.62344 14.0875 1.52624 14.2703 1.47675 14.4683C1.42727 14.6663 1.42702 14.8734 1.47601 15.0715C1.525 15.2696 1.62175 15.4527 1.75781 15.6048C1.89387 15.7569 2.06509 15.8734 2.25654 15.9441C3.71537 16.4826 5.22081 16.8843 6.7534 17.144C6.76864 17.5719 6.84851 17.996 6.99105 18.4016C7.18474 18.9529 7.49 19.4582 7.88777 19.8861C8.28554 20.3141 8.76727 20.6554 9.30287 20.8888C9.83848 21.1222 10.4165 21.2427 11.0007 21.2427C11.585 21.2427 12.1629 21.1222 12.6985 20.8888C13.2341 20.6554 13.7159 20.3141 14.1136 19.8861C14.5114 19.4582 14.8167 18.9529 15.0104 18.4016C15.1529 17.996 15.2328 17.572 15.248 17.144C16.7995 16.8815 18.3029 16.4774 19.7449 15.9451ZM2.13171 14.27C3.49851 12.7567 4.25378 10.7892 4.25071 8.75L2.13171 14.27ZM9.36355 17.6131C9.34271 17.5579 9.32472 17.5018 9.3096 17.445C10.4358 17.5197 11.5656 17.5197 12.6918 17.445C12.6767 17.5018 12.6587 17.5579 12.6379 17.6131C12.5545 17.8339 12.4273 18.0355 12.264 18.2059C12.1006 18.3763 11.9045 18.5119 11.6874 18.6045C11.4703 18.6971 11.2367 18.7448 11.0007 18.7448C10.7647 18.7448 10.5311 18.6971 10.314 18.6045C10.0969 18.5119 9.90079 18.3763 9.73745 18.2059C9.57412 18.0355 9.44693 17.8339 9.36355 17.6131Z" fill="#4880FF" stroke="white"/>
</svg>
