<svg width="26" height="26" viewBox="0 0 26 26" fill="none" xmlns="http://www.w3.org/2000/svg">
<circle cx="13" cy="13" r="13" fill="#F4F4FB"/>
<path d="M13.1385 12.3426C13.0584 12.3326 12.9683 12.3326 12.8782 12.3426C11.0356 12.2825 9.56348 10.7695 9.56348 8.90579C9.57349 7.00203 11.1057 5.45898 13.0184 5.45898C14.9211 5.45898 16.4632 7.00203 16.4632 8.90579C16.4532 10.7695 14.9912 12.2825 13.1385 12.3426Z" fill="#4780FF"/>
<path d="M9.8841 14.4174C8.37197 15.4294 8.37197 17.0927 9.8841 18.0947C11.6066 19.247 14.4305 19.247 16.153 18.0947C17.6651 17.0827 17.6651 15.4194 16.153 14.4174C14.4406 13.2652 11.6166 13.2652 9.8841 14.4174Z" fill="#4780FF"/>
</svg>
