<svg width="22" height="22" viewBox="0 0 22 22" fill="none" xmlns="http://www.w3.org/2000/svg">
<circle cx="11" cy="11" r="11" fill="#FF5436"/>
<path fill-rule="evenodd" clip-rule="evenodd" d="M8.46154 4C7.824 4 7.30769 4.52 7.30769 5.16071V7.01167C7.04554 7.04448 6.784 7.07976 6.52369 7.11938C5.62892 7.25433 5 8.03743 5 8.92514V12.8214C5 13.314 5.19451 13.7863 5.54073 14.1346C5.88695 14.4829 6.35652 14.6786 6.84615 14.6786H7.01231L6.91692 15.734C6.90239 15.8947 6.92129 16.0566 6.97241 16.2094C7.02354 16.3623 7.10578 16.5028 7.21388 16.6219C7.32198 16.741 7.45357 16.8361 7.60026 16.9012C7.74695 16.9663 7.90552 17 8.06585 17H13.9342C14.0945 17 14.2531 16.9663 14.3997 16.9012C14.5464 16.8361 14.678 16.741 14.7861 16.6219C14.8942 16.5028 14.9765 16.3623 15.0276 16.2094C15.0787 16.0566 15.0976 15.8947 15.0831 15.734L14.9877 14.6786H15.1538C15.6435 14.6786 16.1131 14.4829 16.4593 14.1346C16.8055 13.7863 17 13.314 17 12.8214V8.92514C17 8.03743 16.3711 7.25371 15.4763 7.11938C15.2155 7.08022 14.9541 7.04451 14.6923 7.01229V5.16071C14.6923 4.51938 14.1754 4 13.5385 4H8.46154ZM13.7692 6.91262V5.16071C13.7692 5.09915 13.7449 5.0401 13.7016 4.99656C13.6584 4.95303 13.5997 4.92857 13.5385 4.92857H8.46154C8.40033 4.92857 8.34164 4.95303 8.29836 4.99656C8.25508 5.0401 8.23077 5.09915 8.23077 5.16071V6.91262C10.0731 6.74293 11.9269 6.74293 13.7692 6.91262ZM13.6357 12.029C13.7452 12.0402 13.8308 12.1281 13.8406 12.2377L14.1643 15.8182C14.1672 15.8504 14.1634 15.8828 14.1532 15.9134C14.1429 15.944 14.1265 15.9721 14.1048 15.9959C14.0831 16.0198 14.0568 16.0388 14.0274 16.0518C13.998 16.0648 13.9663 16.0715 13.9342 16.0714H8.06585C8.03375 16.0715 8.002 16.0648 7.97261 16.0518C7.94323 16.0388 7.91687 16.0198 7.89521 15.9959C7.87355 15.9721 7.85707 15.944 7.84682 15.9134C7.83657 15.8828 7.83278 15.8504 7.83569 15.8182L8.15938 12.2377C8.16423 12.1844 8.18732 12.1345 8.22469 12.0964C8.26207 12.0584 8.31142 12.0346 8.36431 12.029C10.1168 11.8472 11.8832 11.8472 13.6357 12.029ZM14.2308 9.57143C14.2308 9.44829 14.2794 9.3302 14.366 9.24313C14.4525 9.15606 14.5699 9.10714 14.6923 9.10714H14.6972C14.8196 9.10714 14.937 9.15606 15.0236 9.24313C15.1101 9.3302 15.1588 9.44829 15.1588 9.57143V9.57638C15.1588 9.69952 15.1101 9.81761 15.0236 9.90468C14.937 9.99175 14.8196 10.0407 14.6972 10.0407H14.6923C14.5699 10.0407 14.4525 9.99175 14.366 9.90468C14.2794 9.81761 14.2308 9.69952 14.2308 9.57638V9.57143ZM12.8462 9.10714C12.7237 9.10714 12.6064 9.15606 12.5198 9.24313C12.4332 9.3302 12.3846 9.44829 12.3846 9.57143V9.57638C12.3846 9.83267 12.5914 10.0407 12.8462 10.0407H12.8511C12.9735 10.0407 13.0909 9.99175 13.1774 9.90468C13.264 9.81761 13.3126 9.69952 13.3126 9.57638V9.57143C13.3126 9.44829 13.264 9.3302 13.1774 9.24313C13.0909 9.15606 12.9735 9.10714 12.8511 9.10714H12.8462Z" fill="white"/>
</svg>
