<svg width="24" height="24" viewBox="0 0 24 24" fill="none" xmlns="http://www.w3.org/2000/svg">
<path fill-rule="evenodd" clip-rule="evenodd" d="M11.0789 2.25C10.1619 2.25 9.37991 2.913 9.22891 3.817L9.05091 4.889C9.03091 5.009 8.93591 5.149 8.75391 5.237C8.41126 5.40171 8.08164 5.59226 7.76791 5.807C7.60191 5.922 7.43391 5.933 7.31791 5.89L6.30091 5.508C5.88515 5.35224 5.42761 5.34906 5.00973 5.49904C4.59185 5.64901 4.24074 5.94241 4.01891 6.327L3.09691 7.924C2.875 8.30836 2.79663 8.75897 2.87573 9.19569C2.95483 9.6324 3.18628 10.0269 3.52891 10.309L4.36891 11.001C4.46391 11.079 4.53891 11.23 4.52291 11.431C4.49441 11.8101 4.49441 12.1909 4.52291 12.57C4.53791 12.77 4.46391 12.922 4.36991 13L3.52891 13.692C3.18628 13.9741 2.95483 14.3686 2.87573 14.8053C2.79663 15.242 2.875 15.6926 3.09691 16.077L4.01891 17.674C4.2409 18.0584 4.59207 18.3516 5.00994 18.5014C5.42781 18.6512 5.88527 18.6478 6.30091 18.492L7.31991 18.11C7.43491 18.067 7.60291 18.079 7.76991 18.192C8.08191 18.406 8.41091 18.597 8.75491 18.762C8.93691 18.85 9.03191 18.99 9.05191 19.112L9.22991 20.183C9.38091 21.087 10.1629 21.75 11.0799 21.75H12.9239C13.8399 21.75 14.6229 21.087 14.7739 20.183L14.9519 19.111C14.9719 18.991 15.0659 18.851 15.2489 18.762C15.5929 18.597 15.9219 18.406 16.2339 18.192C16.4009 18.078 16.5689 18.067 16.6839 18.11L17.7039 18.492C18.1194 18.6472 18.5765 18.6501 18.9939 18.5002C19.4114 18.3502 19.7621 18.0571 19.9839 17.673L20.9069 16.076C21.1288 15.6916 21.2072 15.241 21.1281 14.8043C21.049 14.3676 20.8175 13.9731 20.4749 13.691L19.6349 12.999C19.5399 12.921 19.4649 12.77 19.4809 12.569C19.5093 12.1899 19.5093 11.8091 19.4809 11.43C19.4649 11.23 19.5399 11.078 19.6339 11L20.4739 10.308C21.1819 9.726 21.3649 8.718 20.9069 7.923L19.9849 6.326C19.7629 5.94159 19.4118 5.6484 18.9939 5.49861C18.576 5.34883 18.1186 5.35215 17.7029 5.508L16.6829 5.89C16.5689 5.933 16.4009 5.921 16.2339 5.807C15.9205 5.5923 15.5912 5.40175 15.2489 5.237C15.0659 5.15 14.9719 5.01 14.9519 4.889L14.7729 3.817C14.7 3.37906 14.474 2.98122 14.1353 2.69427C13.7965 2.40732 13.3669 2.24989 12.9229 2.25H11.0799H11.0789ZM12.0009 15.75C12.9955 15.75 13.9493 15.3549 14.6526 14.6517C15.3558 13.9484 15.7509 12.9946 15.7509 12C15.7509 11.0054 15.3558 10.0516 14.6526 9.34835C13.9493 8.64509 12.9955 8.25 12.0009 8.25C11.0063 8.25 10.0525 8.64509 9.34926 9.34835C8.646 10.0516 8.25091 11.0054 8.25091 12C8.25091 12.9946 8.646 13.9484 9.34926 14.6517C10.0525 15.3549 11.0063 15.75 12.0009 15.75Z" fill="#4880FF"/>
</svg>
