<svg width="385" height="154" viewBox="0 0 385 154" fill="none" xmlns="http://www.w3.org/2000/svg">
<rect width="385" height="154" rx="10" fill="#ECECEC"/>
<circle cx="191.889" cy="61.8889" r="28.8889" fill="white"/>
<path d="M178.5 48.5557C178.224 48.5557 178 48.7796 178 49.0557V75.8335C178 76.1096 178.224 76.3335 178.5 76.3335H205.278C205.554 76.3335 205.778 76.1096 205.778 75.8335V49.0557C205.778 48.7796 205.554 48.5557 205.278 48.5557H178.5ZM181.472 52.5279C181.472 52.2518 181.696 52.0279 181.972 52.0279H201.806C202.082 52.0279 202.306 52.2518 202.306 52.5279V61.2375C202.306 61.683 201.767 61.906 201.452 61.5911L199.187 59.3259C198.992 59.1307 198.675 59.1307 198.48 59.3259L195.715 62.0911C195.519 62.2863 195.519 62.6029 195.715 62.7982L202.159 69.2426C202.253 69.3364 202.306 69.4636 202.306 69.5962V72.3613C202.306 72.6374 202.082 72.8613 201.806 72.8613H199.04C198.908 72.8613 198.781 72.8086 198.687 72.7148L185.298 59.3259C185.103 59.1307 184.786 59.1307 184.591 59.3259L182.326 61.5911C182.011 61.906 181.472 61.683 181.472 61.2375V52.5279Z" fill="#4780FF"/>
<path d="M146.841 103.861V108.48C146.841 109.008 146.727 109.47 146.499 109.867C146.274 110.261 145.947 110.565 145.518 110.78C145.091 110.992 144.58 111.098 143.984 111.098C143.099 111.098 142.41 110.863 141.919 110.395C141.427 109.926 141.182 109.281 141.182 108.461V103.861H142.354V108.378C142.354 108.967 142.49 109.402 142.764 109.682C143.037 109.962 143.457 110.102 144.023 110.102C145.124 110.102 145.674 109.524 145.674 108.368V103.861H146.841ZM151.284 111.098C150.601 111.098 150.07 110.852 149.692 110.36H149.624C149.67 110.816 149.692 111.093 149.692 111.19V113.402H148.545V105.6H149.473C149.499 105.701 149.552 105.941 149.634 106.322H149.692C150.05 105.775 150.588 105.502 151.304 105.502C151.978 105.502 152.502 105.746 152.876 106.234C153.254 106.723 153.442 107.408 153.442 108.29C153.442 109.172 153.25 109.861 152.866 110.355C152.485 110.85 151.958 111.098 151.284 111.098ZM151.006 106.439C150.55 106.439 150.216 106.573 150.005 106.84C149.797 107.107 149.692 107.533 149.692 108.119V108.29C149.692 108.948 149.797 109.424 150.005 109.721C150.213 110.014 150.553 110.16 151.025 110.16C151.423 110.16 151.729 109.997 151.943 109.672C152.158 109.346 152.266 108.882 152.266 108.28C152.266 107.675 152.158 107.217 151.943 106.908C151.732 106.596 151.419 106.439 151.006 106.439ZM155.923 111H154.775V103.402H155.923V111ZM162.358 108.29C162.358 109.172 162.132 109.861 161.68 110.355C161.227 110.85 160.597 111.098 159.79 111.098C159.285 111.098 158.84 110.984 158.452 110.756C158.065 110.528 157.767 110.201 157.559 109.774C157.35 109.348 157.246 108.853 157.246 108.29C157.246 107.414 157.471 106.731 157.92 106.239C158.369 105.748 159.002 105.502 159.819 105.502C160.601 105.502 161.219 105.754 161.675 106.259C162.131 106.76 162.358 107.437 162.358 108.29ZM158.428 108.29C158.428 109.537 158.888 110.16 159.81 110.16C160.721 110.16 161.177 109.537 161.177 108.29C161.177 107.056 160.718 106.439 159.8 106.439C159.318 106.439 158.968 106.599 158.75 106.918C158.535 107.237 158.428 107.694 158.428 108.29ZM167.061 111L166.831 110.248H166.792C166.532 110.577 166.27 110.801 166.006 110.922C165.742 111.039 165.404 111.098 164.99 111.098C164.46 111.098 164.045 110.954 163.745 110.668C163.449 110.382 163.301 109.976 163.301 109.452C163.301 108.896 163.507 108.476 163.921 108.192C164.334 107.909 164.964 107.755 165.811 107.729L166.743 107.699V107.411C166.743 107.066 166.662 106.809 166.499 106.64C166.34 106.467 166.09 106.381 165.752 106.381C165.475 106.381 165.21 106.422 164.956 106.503C164.702 106.584 164.458 106.68 164.224 106.791L163.853 105.971C164.146 105.818 164.466 105.702 164.814 105.624C165.163 105.543 165.492 105.502 165.801 105.502C166.488 105.502 167.005 105.652 167.354 105.951C167.705 106.251 167.881 106.721 167.881 107.362V111H167.061ZM165.352 110.219C165.768 110.219 166.102 110.103 166.353 109.872C166.606 109.638 166.733 109.311 166.733 108.891V108.422L166.04 108.451C165.5 108.471 165.106 108.562 164.858 108.725C164.614 108.884 164.492 109.13 164.492 109.462C164.492 109.703 164.564 109.89 164.707 110.023C164.85 110.154 165.065 110.219 165.352 110.219ZM171.304 111.098C170.63 111.098 170.104 110.854 169.727 110.365C169.349 109.877 169.16 109.192 169.16 108.31C169.16 107.424 169.351 106.736 169.731 106.244C170.116 105.749 170.646 105.502 171.323 105.502C172.033 105.502 172.573 105.764 172.944 106.288H173.003C172.948 105.901 172.92 105.595 172.92 105.37V103.402H174.072V111H173.174L172.974 110.292H172.92C172.552 110.829 172.013 111.098 171.304 111.098ZM171.611 110.17C172.083 110.17 172.427 110.038 172.642 109.774C172.856 109.507 172.967 109.076 172.974 108.48V108.319C172.974 107.639 172.863 107.156 172.642 106.869C172.42 106.583 172.074 106.439 171.602 106.439C171.198 106.439 170.887 106.604 170.669 106.933C170.451 107.258 170.342 107.724 170.342 108.329C170.342 108.928 170.448 109.385 170.659 109.701C170.871 110.014 171.188 110.17 171.611 110.17ZM178.711 103.861L176.055 111H174.971L177.632 103.861H178.711ZM184.17 111L183.457 109.018H180.728L180.029 111H178.799L181.47 103.832H182.739L185.41 111H184.17ZM183.149 108.012L182.48 106.068C182.432 105.938 182.363 105.733 182.275 105.453C182.191 105.173 182.132 104.968 182.1 104.838C182.012 105.238 181.883 105.676 181.714 106.151L181.069 108.012H183.149ZM188.052 111.098C187.378 111.098 186.852 110.854 186.475 110.365C186.097 109.877 185.908 109.192 185.908 108.31C185.908 107.424 186.099 106.736 186.479 106.244C186.864 105.749 187.394 105.502 188.071 105.502C188.781 105.502 189.321 105.764 189.692 106.288H189.751C189.696 105.901 189.668 105.595 189.668 105.37V103.402H190.82V111H189.922L189.722 110.292H189.668C189.3 110.829 188.761 111.098 188.052 111.098ZM188.359 110.17C188.831 110.17 189.175 110.038 189.39 109.774C189.604 109.507 189.715 109.076 189.722 108.48V108.319C189.722 107.639 189.611 107.156 189.39 106.869C189.168 106.583 188.822 106.439 188.35 106.439C187.946 106.439 187.635 106.604 187.417 106.933C187.199 107.258 187.09 107.724 187.09 108.329C187.09 108.928 187.196 109.385 187.407 109.701C187.619 110.014 187.936 110.17 188.359 110.17ZM194.282 111.098C193.608 111.098 193.083 110.854 192.705 110.365C192.327 109.877 192.139 109.192 192.139 108.31C192.139 107.424 192.329 106.736 192.71 106.244C193.094 105.749 193.625 105.502 194.302 105.502C195.011 105.502 195.552 105.764 195.923 106.288H195.981C195.926 105.901 195.898 105.595 195.898 105.37V103.402H197.051V111H196.152L195.952 110.292H195.898C195.531 110.829 194.992 111.098 194.282 111.098ZM194.59 110.17C195.062 110.17 195.405 110.038 195.62 109.774C195.835 109.507 195.946 109.076 195.952 108.48V108.319C195.952 107.639 195.841 107.156 195.62 106.869C195.399 106.583 195.052 106.439 194.58 106.439C194.176 106.439 193.866 106.604 193.647 106.933C193.429 107.258 193.32 107.724 193.32 108.329C193.32 108.928 193.426 109.385 193.638 109.701C193.849 110.014 194.167 110.17 194.59 110.17ZM204.668 111L204.438 110.248H204.399C204.139 110.577 203.877 110.801 203.613 110.922C203.35 111.039 203.011 111.098 202.598 111.098C202.067 111.098 201.652 110.954 201.353 110.668C201.056 110.382 200.908 109.976 200.908 109.452C200.908 108.896 201.115 108.476 201.528 108.192C201.942 107.909 202.572 107.755 203.418 107.729L204.351 107.699V107.411C204.351 107.066 204.269 106.809 204.106 106.64C203.947 106.467 203.698 106.381 203.359 106.381C203.083 106.381 202.817 106.422 202.563 106.503C202.31 106.584 202.065 106.68 201.831 106.791L201.46 105.971C201.753 105.818 202.074 105.702 202.422 105.624C202.77 105.543 203.099 105.502 203.408 105.502C204.095 105.502 204.613 105.652 204.961 105.951C205.312 106.251 205.488 106.721 205.488 107.362V111H204.668ZM202.959 110.219C203.376 110.219 203.709 110.103 203.96 109.872C204.214 109.638 204.341 109.311 204.341 108.891V108.422L203.647 108.451C203.107 108.471 202.713 108.562 202.466 108.725C202.222 108.884 202.1 109.13 202.1 109.462C202.1 109.703 202.171 109.89 202.314 110.023C202.458 110.154 202.673 110.219 202.959 110.219ZM211.841 111H210.688V107.68C210.688 107.263 210.604 106.952 210.435 106.747C210.269 106.542 210.003 106.439 209.639 106.439C209.154 106.439 208.799 106.583 208.574 106.869C208.35 107.156 208.237 107.636 208.237 108.31V111H207.09V105.6H207.988L208.149 106.308H208.208C208.371 106.05 208.602 105.852 208.901 105.712C209.201 105.572 209.533 105.502 209.897 105.502C211.193 105.502 211.841 106.161 211.841 107.479V111ZM217.183 111H216.035V105.6H217.183V111ZM215.967 104.169C215.967 103.964 216.022 103.806 216.133 103.695C216.247 103.585 216.408 103.529 216.616 103.529C216.818 103.529 216.974 103.585 217.085 103.695C217.199 103.806 217.256 103.964 217.256 104.169C217.256 104.364 217.199 104.519 217.085 104.633C216.974 104.743 216.818 104.799 216.616 104.799C216.408 104.799 216.247 104.743 216.133 104.633C216.022 104.519 215.967 104.364 215.967 104.169ZM223.379 111H222.227V107.67C222.227 107.257 222.148 106.949 221.992 106.747C221.836 106.542 221.592 106.439 221.26 106.439C220.817 106.439 220.492 106.584 220.283 106.874C220.078 107.16 219.976 107.639 219.976 108.31V111H218.828V105.6H219.727L219.888 106.308H219.946C220.096 106.05 220.312 105.852 220.596 105.712C220.882 105.572 221.196 105.502 221.538 105.502C222.368 105.502 222.918 105.785 223.188 106.352H223.267C223.426 106.085 223.651 105.876 223.94 105.727C224.23 105.577 224.562 105.502 224.937 105.502C225.581 105.502 226.05 105.665 226.343 105.99C226.639 106.316 226.787 106.812 226.787 107.479V111H225.64V107.67C225.64 107.257 225.56 106.949 225.4 106.747C225.244 106.542 225 106.439 224.668 106.439C224.222 106.439 223.895 106.579 223.687 106.859C223.481 107.136 223.379 107.562 223.379 108.139V111ZM231.768 111L231.538 110.248H231.499C231.239 110.577 230.977 110.801 230.713 110.922C230.449 111.039 230.111 111.098 229.697 111.098C229.167 111.098 228.752 110.954 228.452 110.668C228.156 110.382 228.008 109.976 228.008 109.452C228.008 108.896 228.215 108.476 228.628 108.192C229.041 107.909 229.671 107.755 230.518 107.729L231.45 107.699V107.411C231.45 107.066 231.369 106.809 231.206 106.64C231.047 106.467 230.798 106.381 230.459 106.381C230.182 106.381 229.917 106.422 229.663 106.503C229.409 106.584 229.165 106.68 228.931 106.791L228.56 105.971C228.853 105.818 229.173 105.702 229.521 105.624C229.87 105.543 230.199 105.502 230.508 105.502C231.195 105.502 231.712 105.652 232.061 105.951C232.412 106.251 232.588 106.721 232.588 107.362V111H231.768ZM230.059 110.219C230.475 110.219 230.809 110.103 231.06 109.872C231.313 109.638 231.44 109.311 231.44 108.891V108.422L230.747 108.451C230.207 108.471 229.813 108.562 229.565 108.725C229.321 108.884 229.199 109.13 229.199 109.462C229.199 109.703 229.271 109.89 229.414 110.023C229.557 110.154 229.772 110.219 230.059 110.219ZM238.75 105.6V106.229L237.827 106.4C237.912 106.514 237.982 106.654 238.037 106.82C238.092 106.986 238.12 107.162 238.12 107.348C238.12 107.904 237.928 108.342 237.544 108.661C237.16 108.98 236.631 109.14 235.957 109.14C235.785 109.14 235.628 109.127 235.488 109.101C235.241 109.254 235.117 109.433 235.117 109.638C235.117 109.761 235.174 109.854 235.288 109.916C235.405 109.978 235.618 110.009 235.928 110.009H236.87C237.466 110.009 237.918 110.136 238.228 110.39C238.537 110.644 238.691 111.01 238.691 111.488C238.691 112.1 238.439 112.572 237.935 112.904C237.43 113.236 236.701 113.402 235.747 113.402C235.011 113.402 234.45 113.272 234.062 113.012C233.675 112.751 233.481 112.38 233.481 111.898C233.481 111.566 233.586 111.286 233.794 111.059C234.006 110.834 234.3 110.678 234.678 110.59C234.525 110.525 234.398 110.421 234.297 110.277C234.199 110.131 234.15 109.978 234.15 109.818C234.15 109.617 234.207 109.446 234.321 109.306C234.435 109.166 234.604 109.027 234.829 108.891C234.549 108.77 234.321 108.575 234.146 108.305C233.973 108.031 233.887 107.712 233.887 107.348C233.887 106.762 234.071 106.308 234.438 105.985C234.81 105.663 235.337 105.502 236.021 105.502C236.174 105.502 236.333 105.513 236.499 105.536C236.668 105.556 236.795 105.577 236.88 105.6H238.75ZM234.507 111.84C234.507 112.087 234.618 112.278 234.839 112.411C235.063 112.545 235.378 112.611 235.781 112.611C236.406 112.611 236.872 112.522 237.178 112.343C237.484 112.164 237.637 111.926 237.637 111.63C237.637 111.396 237.552 111.228 237.383 111.127C237.217 111.029 236.906 110.98 236.45 110.98H235.581C235.252 110.98 234.99 111.057 234.795 111.21C234.603 111.366 234.507 111.576 234.507 111.84ZM235 107.348C235 107.686 235.086 107.947 235.259 108.129C235.435 108.311 235.685 108.402 236.011 108.402C236.675 108.402 237.007 108.048 237.007 107.338C237.007 106.986 236.924 106.716 236.758 106.527C236.595 106.335 236.346 106.239 236.011 106.239C235.679 106.239 235.426 106.334 235.254 106.522C235.085 106.711 235 106.986 235 107.348ZM242.114 111.098C241.274 111.098 240.617 110.854 240.142 110.365C239.67 109.874 239.434 109.198 239.434 108.339C239.434 107.457 239.653 106.763 240.093 106.259C240.532 105.754 241.136 105.502 241.904 105.502C242.617 105.502 243.18 105.718 243.594 106.151C244.007 106.584 244.214 107.18 244.214 107.938V108.559H240.615C240.632 109.083 240.773 109.486 241.04 109.77C241.307 110.049 241.683 110.189 242.168 110.189C242.487 110.189 242.783 110.16 243.057 110.102C243.333 110.04 243.63 109.939 243.945 109.799V110.731C243.665 110.865 243.382 110.959 243.096 111.015C242.809 111.07 242.482 111.098 242.114 111.098ZM241.904 106.371C241.54 106.371 241.247 106.487 241.025 106.718C240.807 106.949 240.677 107.286 240.635 107.729H243.086C243.079 107.283 242.972 106.946 242.764 106.718C242.555 106.487 242.269 106.371 241.904 106.371Z" fill="#4780FF"/>
</svg>
