<?xml version="1.0" encoding="UTF-8"?>
<svg version="1.1" xmlns="http://www.w3.org/2000/svg" width="54" height="54">
<path d="M0 0 C5.97862438 4.46845283 10.37480943 9.38290353 12.2578125 16.6875 C13.26670319 25.65069726 12.76022523 33.32547556 7.2578125 40.6875 C1.84603539 46.59668309 -2.91381094 50.1440216 -11.0390625 51.05859375 C-20.45905315 51.23974742 -27.00611124 50.02491664 -34.0625 43.5625 C-40.8906896 36.31825583 -42.29632917 30.09358831 -42.109375 20.2265625 C-41.1926731 11.3911165 -36.63798447 5.97041399 -30.12109375 0.28125 C-21.39060475 -5.56774756 -8.9226357 -5.18278509 0 0 Z " fill="#F3F3FA" transform="translate(41.7421875,3.3125)"/>
<path d="M0 0 C3.50680088 1.85565057 5.67044469 3.94071508 6.875 7.8125 C6.91625 8.534375 6.9575 9.25625 7 10 C3.58203331 13.69272285 0.61757285 16.43496927 -4.5625 16.8125 C-8.31129246 16.56172315 -10.07834235 15.48573664 -12.625 12.75 C-14.35132997 10.61263908 -15.06500858 9.70050065 -14.80859375 6.9375 C-12.18102213 0.64148297 -6.28814563 -1.56266044 0 0 Z " fill="#4F85FE" transform="translate(31,19)"/>
<path d="M0 0 C3 0.25 3 0.25 5 2.25 C5.25 5.25 5.25 5.25 5 8.25 C3 10.25 3 10.25 0 10.5 C-3 10.25 -3 10.25 -5 8.25 C-5.25 5.25 -5.25 5.25 -5 2.25 C-3 0.25 -3 0.25 0 0 Z " fill="#E9ECFB" transform="translate(27,21.75)"/>
<path d="M0 0 C-0.33 1.65 -0.66 3.3 -1 5 C-2.32 5 -3.64 5 -5 5 C-5.33 3.35 -5.66 1.7 -6 0 C-3.50907189 -1.24546405 -2.58919267 -0.7767578 0 0 Z " fill="#598CFE" transform="translate(30,25)"/>
<path d="M0 0 C0.66 0.33 1.32 0.66 2 1 C2 1.66 2 2.32 2 3 C1.34 3 0.68 3 0 3 C0.33 4.32 0.66 5.64 1 7 C0.01 7.33 -0.98 7.66 -2 8 C-2.125 5.125 -2.125 5.125 -2 2 C-1.34 1.34 -0.68 0.68 0 0 Z " fill="#DCE3FB" transform="translate(24,22)"/>
</svg>
