<svg width="18" height="18" viewBox="0 0 18 18" fill="none" xmlns="http://www.w3.org/2000/svg">
<circle cx="9" cy="9" r="9" fill="#F4F4FB"/>
<path d="M9.11167 9.31254C9.04984 9.30481 8.98028 9.30481 8.91072 9.31254C7.48866 9.26614 6.35254 8.09847 6.35254 6.66014C6.36027 5.19088 7.54276 4 9.01892 4C10.4874 4 11.6776 5.19088 11.6776 6.66014C11.6698 8.09847 10.5415 9.26614 9.11167 9.31254Z" fill="#5088FF"/>
<path d="M6.59987 10.914C5.43285 11.6951 5.43285 12.9787 6.59987 13.752C7.92921 14.6413 10.1087 14.6413 11.438 13.752C12.605 12.971 12.605 11.6873 11.438 10.914C10.1164 10.0247 7.93694 10.0247 6.59987 10.914Z" fill="#5088FF"/>
</svg>
