<svg width="131" height="48" viewBox="0 0 131 48" fill="none" xmlns="http://www.w3.org/2000/svg">
<rect width="131" height="48" rx="24" fill="#4880FF"/>
<path d="M48.5679 28.3289C47.7932 28.3308 47.0743 28.2346 46.4112 28.0403C45.748 27.8366 45.1873 27.5627 44.7291 27.2185L45.2716 25.8031C45.7297 26.1286 46.2297 26.3794 46.7715 26.5554C47.3226 26.7313 47.9201 26.8185 48.5641 26.8169C49.3015 26.8151 49.8378 26.6924 50.1732 26.4489C50.5086 26.1961 50.6758 25.8736 50.6748 25.4816C50.674 25.155 50.552 24.8986 50.3089 24.7126C50.0751 24.5265 49.6687 24.3735 49.0897 24.2536L47.5489 23.9354C45.7933 23.5665 44.9138 22.668 44.9102 21.24C44.9087 20.624 45.0707 20.0869 45.3962 19.6288C45.7217 19.1706 46.1735 18.8148 46.7515 18.5614C47.3296 18.308 47.9966 18.1803 48.7526 18.1784C49.4246 18.1767 50.0548 18.2778 50.6433 18.4817C51.2318 18.6762 51.7225 18.955 52.1154 19.318L51.5728 20.6634C50.7965 20.012 49.853 19.6877 48.7423 19.6904C48.0983 19.692 47.5947 19.8286 47.2314 20.1002C46.868 20.3718 46.6869 20.7269 46.688 21.1656C46.6889 21.5016 46.8015 21.772 47.026 21.9767C47.2505 22.1722 47.6336 22.3252 48.1752 22.4359L49.702 22.7541C50.6265 22.9478 51.3132 23.254 51.7623 23.6729C52.2207 24.0918 52.4507 24.6512 52.4525 25.3512C52.4539 25.9392 52.2966 26.4576 51.9804 26.9064C51.6641 27.3552 51.2123 27.7063 50.625 27.9598C50.0469 28.2039 49.3612 28.3269 48.5679 28.3289ZM57.2039 28.3074C56.4292 28.3093 55.7615 28.1663 55.2008 27.8784C54.6401 27.5904 54.2051 27.1808 53.8957 26.6496C53.5958 26.1184 53.4449 25.4887 53.443 24.7607C53.4413 24.0514 53.5844 23.4304 53.8724 22.8977C54.1697 22.3649 54.5747 21.9486 55.0873 21.6486C55.6092 21.3393 56.2015 21.1838 56.8641 21.1822C57.8348 21.1798 58.6009 21.4859 59.1624 22.1005C59.7333 22.715 60.02 23.5543 60.0227 24.6183L60.024 25.1363L55.124 25.1485C55.2577 26.3709 55.9592 26.9805 57.2286 26.9773C57.6112 26.9763 57.9938 26.9194 58.3762 26.8064C58.7585 26.6841 59.1081 26.4966 59.4248 26.2438L59.9177 27.4186C59.5917 27.6901 59.1816 27.9058 58.6873 28.0657C58.193 28.2256 57.6986 28.3061 57.2039 28.3074ZM56.9371 22.372C56.4238 22.3733 56.0088 22.533 55.6923 22.8511C55.3757 23.1692 55.1855 23.5991 55.1215 24.1405L58.5655 24.132C58.5267 23.5627 58.367 23.1291 58.0862 22.8311C57.8148 22.5238 57.4318 22.3708 56.9371 22.372ZM63.6718 28.2912C63.1771 28.2925 62.7335 28.2002 62.3411 28.0146C61.9579 27.8195 61.6539 27.5589 61.4291 27.2328C61.2136 26.9067 61.1054 26.5383 61.1044 26.1276C61.1031 25.6236 61.2328 25.2266 61.4934 24.9367C61.754 24.6373 62.1781 24.4216 62.7658 24.2895C63.3535 24.1573 64.142 24.09 65.1313 24.0876L65.6213 24.0864L65.6206 23.7924C65.6194 23.3257 65.5159 22.99 65.31 22.7851C65.1042 22.5803 64.7586 22.4785 64.2733 22.4797C63.8906 22.4807 63.4988 22.5423 63.0977 22.6646C62.6967 22.7776 62.2911 22.956 61.8811 23.1997L61.3741 22.0109C61.6163 21.8423 61.9006 21.697 62.227 21.5748C62.5627 21.4433 62.9124 21.3444 63.2763 21.2782C63.6494 21.2026 63.9993 21.1644 64.326 21.1636C65.3247 21.1611 66.0672 21.3926 66.5537 21.858C67.0402 22.3141 67.2846 23.0275 67.2871 23.9982L67.2974 28.1422L65.6594 28.1463L65.6567 27.0543C65.499 27.4373 65.2477 27.7413 64.903 27.9662C64.5582 28.1817 64.1478 28.29 63.6718 28.2912ZM64.0328 27.0863C64.4901 27.0852 64.8677 26.9256 65.1656 26.6075C65.4728 26.2894 65.6258 25.8877 65.6246 25.4024L65.6238 25.0944L65.1478 25.0955C64.2705 25.0977 63.6593 25.1693 63.3143 25.3101C62.9787 25.4416 62.8113 25.6847 62.8121 26.0394C62.8129 26.3474 62.9209 26.5991 63.136 26.7946C63.3512 26.99 63.6501 27.0873 64.0328 27.0863ZM69.0736 28.1378L69.0566 21.2918L70.7646 21.2875L70.7676 22.4915C71.1015 21.6787 71.8191 21.2289 72.9202 21.1421L73.4521 21.0988L73.5678 22.5825L72.5601 22.683C71.4123 22.7979 70.8398 23.3873 70.8425 24.4513L70.8516 28.1333L69.0736 28.1378ZM77.611 28.2565C76.8924 28.2583 76.2667 28.1152 75.7339 27.8271C75.2012 27.5298 74.7895 27.1108 74.4988 26.5702C74.2081 26.0296 74.0619 25.3953 74.0601 24.6673C74.0582 23.9393 74.2013 23.3136 74.4894 22.7902C74.7774 22.2575 75.187 21.8505 75.7183 21.5692C76.2496 21.2785 76.8746 21.1323 77.5932 21.1305C78.0319 21.1294 78.4661 21.1983 78.8958 21.3372C79.3254 21.4762 79.6806 21.6713 79.9612 21.9226L79.4463 23.1419C79.2031 22.9278 78.9273 22.7652 78.619 22.6539C78.3201 22.5427 78.0306 22.4874 77.7506 22.4881C77.144 22.4896 76.6731 22.6821 76.3381 23.0656C76.0123 23.4398 75.8503 23.9768 75.8521 24.6768C75.8538 25.3675 76.0185 25.9131 76.3462 26.3136C76.6831 26.7048 77.155 26.8996 77.7616 26.8981C78.0323 26.8974 78.3215 26.8407 78.6292 26.7279C78.9369 26.6152 79.2118 26.4465 79.454 26.2219L79.975 27.4526C79.6956 27.6959 79.3368 27.8928 78.8985 28.0433C78.4695 28.1843 78.0404 28.2554 77.611 28.2565ZM81.0502 28.1079L81.0256 18.2379L82.7756 18.2336L82.7856 22.2515C83.018 21.8776 83.3299 21.5969 83.7215 21.4092C84.113 21.2122 84.5467 21.1131 85.0227 21.112C86.6374 21.1079 87.4471 22.0439 87.4517 23.9199L87.4622 28.0919L85.7122 28.0963L85.702 24.0083C85.7006 23.4763 85.597 23.0892 85.3911 22.847C85.1945 22.6049 84.8862 22.4843 84.4662 22.4854C83.9528 22.4866 83.5426 22.651 83.2354 22.9784C82.9375 23.2965 82.7892 23.7215 82.7906 24.2535L82.8002 28.1035L81.0502 28.1079Z" fill="white"/>
</svg>
