<svg width="22" height="22" viewBox="0 0 22 22" fill="none" xmlns="http://www.w3.org/2000/svg">
<path d="M6.28033 1.46967L6.63388 1.11612C6.39946 0.881696 6.08152 0.75 5.75 0.75C5.41848 0.75 5.10054 0.881696 4.86612 1.11612C4.6317 1.35054 4.5 1.66848 4.5 2V3H4.25C3.32174 3 2.4315 3.36875 1.77513 4.02513C1.11875 4.6815 0.75 5.57174 0.75 6.5V17.75C0.75 18.6783 1.11875 19.5685 1.77513 20.2249C2.4315 20.8813 3.32174 21.25 4.25 21.25H17.75C18.6783 21.25 19.5685 20.8813 20.2249 20.2249C20.8813 19.5685 21.25 18.6783 21.25 17.75V6.5C21.25 5.57174 20.8813 4.6815 20.2249 4.02513C19.5685 3.36875 18.6783 3 17.75 3H17.5V2C17.5 1.66848 17.3683 1.35054 17.1339 1.11612C16.8995 0.881696 16.5815 0.75 16.25 0.75C15.9185 0.75 15.6005 0.881696 15.3661 1.11612C15.1317 1.35054 15 1.66848 15 2V3H7V2C7 1.66848 6.8683 1.35054 6.63388 1.11612L6.28033 1.46967ZM18.4571 9.54289C18.6446 9.73043 18.75 9.98478 18.75 10.25V17.75C18.75 18.0152 18.6446 18.2696 18.4571 18.4571C18.2696 18.6446 18.0152 18.75 17.75 18.75H4.25C3.98478 18.75 3.73043 18.6446 3.54289 18.4571C3.35536 18.2696 3.25 18.0152 3.25 17.75V10.25C3.25 9.98478 3.35536 9.73043 3.54289 9.54289C3.73043 9.35536 3.98478 9.25 4.25 9.25H17.75C18.0152 9.25 18.2696 9.35536 18.4571 9.54289Z" fill="#4880FF" stroke="white"/>
</svg>
