<svg width="22" height="22" viewBox="0 0 22 22" fill="none" xmlns="http://www.w3.org/2000/svg">
<path d="M21.0025 12.1651C21.1273 12.0797 21.2068 11.9424 21.2187 11.7916C21.3612 9.98091 21.0182 8.16496 20.225 6.53101C20.1554 6.38753 20.0214 6.28588 19.8645 6.2574C19.7075 6.22892 19.5464 6.27703 19.4308 6.38689C18.2311 7.52677 16.813 8.41185 15.2619 8.98873C15.0521 9.06678 14.9197 9.27481 14.9379 9.49796C15.0642 11.0493 14.9942 12.6105 14.7295 14.1443C14.7007 14.3111 14.7582 14.481 14.8823 14.5961C15.0064 14.7111 15.1802 14.7555 15.3443 14.7142C17.366 14.2051 19.2816 13.342 21.0025 12.1651ZM13.709 15.0446C13.9151 15.013 14.0799 14.8568 14.1226 14.6527C14.4512 13.0817 14.5661 11.4734 14.4642 9.87161C14.4548 9.72447 14.381 9.58895 14.2624 9.5013C14.1439 9.41365 13.9927 9.3828 13.8492 9.417C12.935 9.635 11.9809 9.75037 10.9992 9.75037C10.0175 9.75037 9.06344 9.635 8.14918 9.417C8.00563 9.38277 7.85429 9.41371 7.73569 9.50152C7.61708 9.58934 7.54333 9.72506 7.53417 9.87235C7.43465 11.4737 7.5495 13.0811 7.87565 14.652C7.91809 14.8564 8.08308 15.013 8.28946 15.0446C10.0855 15.3199 11.913 15.3199 13.709 15.0446ZM8.82996 15.6228C8.66181 15.6029 8.49502 15.6695 8.38676 15.7997C8.27851 15.9299 8.24349 16.106 8.29372 16.2677C8.81721 17.9529 9.59006 19.5503 10.5866 21.0067C10.6798 21.1429 10.8342 21.2244 10.9992 21.2244C11.1643 21.2244 11.3187 21.1429 11.4119 21.0067C12.4083 19.5503 13.1812 17.9529 13.7047 16.2677C13.7549 16.106 13.7199 15.9299 13.6117 15.7997C13.5034 15.6695 13.3366 15.6029 13.1685 15.6228C11.7273 15.7933 10.2711 15.7933 8.82996 15.6228ZM6.6541 14.7152C6.81825 14.7566 6.99217 14.712 7.11627 14.5969C7.24037 14.4818 7.29779 14.3117 7.26885 14.1449C7.00274 12.6108 6.93273 11.0491 7.06052 9.49741C7.07892 9.27408 6.94648 9.06579 6.73644 8.9877C5.18503 8.41096 3.76655 7.52588 2.56659 6.38588C2.45095 6.27601 2.28982 6.22791 2.13288 6.25641C1.97593 6.28491 1.842 6.38659 1.77237 6.5301C0.979352 8.16446 0.636703 9.98079 0.779763 11.7917C0.79167 11.9425 0.871144 12.0797 0.995946 12.1651C2.71667 13.3419 4.63225 14.206 6.6541 14.7152ZM20.8552 13.7524C20.8552 13.5038 20.6727 13.293 20.4267 13.2575C20.3017 13.2394 20.1796 13.2694 20.0806 13.3346C18.4258 14.2861 16.631 14.9704 14.7626 15.362C14.578 15.4007 14.4308 15.5401 14.3821 15.7223C13.9515 17.3345 13.3005 18.8796 12.4475 20.3138C12.3466 20.4834 12.3549 20.6964 12.4686 20.8576C12.5824 21.0188 12.7803 21.0981 12.9739 21.0599C14.8137 20.6974 16.5191 19.8379 17.9049 18.5745C19.2862 17.3154 20.2973 15.7031 20.8295 13.9117C20.8463 13.8613 20.8552 13.808 20.8552 13.7534V13.7524ZM1.89319 13.3193C1.73849 13.23 1.5479 13.23 1.3932 13.3194C1.23851 13.4087 1.14321 13.5737 1.14321 13.7524V13.7534C1.14321 13.8013 1.1501 13.849 1.16367 13.8949C1.69458 15.6933 2.70793 17.3119 4.09373 18.575C5.47954 19.8381 7.18485 20.6975 9.02457 21.0599C9.21814 21.0981 9.41605 21.0188 9.52978 20.8576C9.64351 20.6964 9.6518 20.4833 9.55095 20.3138C8.69794 18.8796 8.04691 17.3345 7.61627 15.7223C7.56759 15.5401 7.42046 15.4007 7.23583 15.362C5.32847 14.962 3.53012 14.2643 1.89319 13.3193ZM12.9736 0.939755C12.7801 0.901709 12.5822 0.981027 12.4686 1.14225C12.3549 1.30347 12.3466 1.51646 12.4475 1.68599C13.6034 3.62904 14.3856 5.77115 14.7539 8.00181C14.7787 8.15193 14.8705 8.2826 15.0033 8.35683C15.1361 8.43106 15.2955 8.44077 15.4363 8.38322C16.9032 7.78382 18.2339 6.89433 19.3486 5.7681C19.5184 5.59648 19.5414 5.32801 19.4031 5.13006C17.8831 2.95378 15.5784 1.45172 12.9736 0.939755ZM11.4118 0.993945C11.3186 0.85778 11.1642 0.776368 10.9992 0.776367C10.8342 0.776366 10.6798 0.857776 10.5866 0.99394C9.08463 3.18818 8.0978 5.69341 7.69984 8.32254C7.66146 8.57611 7.82116 8.81761 8.06952 8.88157C9.00716 9.12304 9.98905 9.25037 10.9992 9.25037C12.0097 9.25037 12.9914 9.12195 13.9284 8.8817C14.177 8.81795 14.337 8.57631 14.2986 8.32253C13.9006 5.69342 12.9138 3.1882 11.4118 0.993945ZM9.55092 1.686C9.65177 1.51647 9.64353 1.3035 9.52987 1.14228C9.41622 0.981055 9.2184 0.901723 9.02484 0.939742C6.42011 1.45137 4.11542 2.95415 2.59533 5.13002C2.45704 5.32797 2.47997 5.59646 2.64983 5.76809C3.76452 6.89435 5.09521 7.78385 6.56209 8.38322C6.70294 8.44077 6.86233 8.43106 6.99514 8.35683C7.12796 8.2826 7.21975 8.15193 7.24453 8.00181C7.61278 5.77114 8.39503 3.62904 9.55092 1.686Z" fill="#4880FF" stroke="white" stroke-linejoin="round"/>
</svg>
