<svg width="20" height="22" viewBox="0 0 20 22" fill="none" xmlns="http://www.w3.org/2000/svg">
<path d="M2.5 0.75C2.16848 0.75 1.85054 0.881696 1.61612 1.11612C1.3817 1.35054 1.25 1.66848 1.25 2C1.25 2.33152 1.3817 2.64946 1.61612 2.88388C1.72768 2.99544 1.85815 3.08374 2 3.14564V18.75H1.75C1.41848 18.75 1.10054 18.8817 0.866117 19.1161C0.631695 19.3505 0.5 19.6685 0.5 20C0.5 20.3315 0.631695 20.6495 0.866117 20.8839C1.10054 21.1183 1.41848 21.25 1.75 21.25H18.25C18.5815 21.25 18.8995 21.1183 19.1339 20.8839C19.3683 20.6495 19.5 20.3315 19.5 20C19.5 19.6685 19.3683 19.3505 19.1339 19.1161C18.8995 18.8817 18.5815 18.75 18.25 18.75H18V3.14564C18.1419 3.08374 18.2723 2.99544 18.3839 2.88388C18.6183 2.64946 18.75 2.33152 18.75 2C18.75 1.66848 18.6183 1.35054 18.3839 1.11612C18.1495 0.881695 17.8315 0.75 17.5 0.75H2.5ZM6.82322 5.57322C6.87011 5.52634 6.9337 5.5 7 5.5H8.5C8.5663 5.5 8.62989 5.52634 8.67678 5.57322C8.72366 5.62011 8.75 5.6837 8.75 5.75C8.75 5.8163 8.72366 5.87989 8.67678 5.92678C8.62989 5.97366 8.5663 6 8.5 6H7C6.9337 6 6.87011 5.97366 6.82322 5.92678C6.77634 5.87989 6.75 5.8163 6.75 5.75C6.75 5.6837 6.77634 5.62011 6.82322 5.57322ZM6.75 8.75C6.75 8.6837 6.77634 8.62011 6.82322 8.57322C6.87011 8.52634 6.9337 8.5 7 8.5H8.5C8.5663 8.5 8.62989 8.52634 8.67678 8.57322C8.72366 8.62011 8.75 8.6837 8.75 8.75C8.75 8.8163 8.72366 8.87989 8.67678 8.92678L9.03033 9.28033L8.67678 8.92678C8.62989 8.97366 8.5663 9 8.5 9H7C6.9337 9 6.87011 8.97366 6.82322 8.92678C6.77634 8.87989 6.75 8.8163 6.75 8.75ZM6.82322 11.5732C6.87011 11.5263 6.9337 11.5 7 11.5H8.5C8.5663 11.5 8.62989 11.5263 8.67678 11.5732C8.72366 11.6201 8.75 11.6837 8.75 11.75C8.75 11.8163 8.72366 11.8799 8.67678 11.9268C8.62989 11.9737 8.5663 12 8.5 12H7C6.9337 12 6.87011 11.9737 6.82322 11.9268C6.77634 11.8799 6.75 11.8163 6.75 11.75C6.75 11.6837 6.77634 11.6201 6.82322 11.5732ZM11.25 5.75C11.25 5.6837 11.2763 5.62011 11.3232 5.57322C11.3701 5.52634 11.4337 5.5 11.5 5.5H13C13.0663 5.5 13.1299 5.52634 13.1768 5.57322C13.2237 5.62011 13.25 5.6837 13.25 5.75C13.25 5.8163 13.2237 5.87989 13.1768 5.92678C13.1299 5.97366 13.0663 6 13 6H11.5C11.4337 6 11.3701 5.97366 11.3232 5.92678C11.2763 5.87989 11.25 5.8163 11.25 5.75ZM11.3232 8.57322C11.3701 8.52634 11.4337 8.5 11.5 8.5H13C13.0663 8.5 13.1299 8.52634 13.1768 8.57322C13.2237 8.62011 13.25 8.6837 13.25 8.75C13.25 8.8163 13.2237 8.87989 13.1768 8.92678C13.1299 8.97366 13.0663 9 13 9H11.5C11.4337 9 11.3701 8.97366 11.3232 8.92678C11.2763 8.87989 11.25 8.8163 11.25 8.75C11.25 8.6837 11.2763 8.62011 11.3232 8.57322ZM11.25 11.75C11.25 11.6837 11.2763 11.6201 11.3232 11.5732C11.3701 11.5263 11.4337 11.5 11.5 11.5H13C13.0663 11.5 13.1299 11.5263 13.1768 11.5732C13.2237 11.6201 13.25 11.6837 13.25 11.75C13.25 11.8163 13.2237 11.8799 13.1768 11.9268C13.1299 11.9737 13.0663 12 13 12H11.5C11.4337 12 11.3701 11.9737 11.3232 11.9268C11.2763 11.8799 11.25 11.8163 11.25 11.75ZM7.5 18.5V16.25C7.5 16.1837 7.52634 16.1201 7.57322 16.0732C7.62011 16.0263 7.68369 16 7.75 16H12.25C12.3163 16 12.3799 16.0263 12.4268 16.0732C12.4737 16.1201 12.5 16.1837 12.5 16.25V18.5C12.5 18.5663 12.4737 18.6299 12.4268 18.6768C12.3799 18.7237 12.3163 18.75 12.25 18.75H7.75C7.6837 18.75 7.62011 18.7237 7.57322 18.6768C7.52634 18.6299 7.5 18.5663 7.5 18.5Z" fill="#4880FF" stroke="white"/>
</svg>
