<svg width="24" height="22" viewBox="0 0 24 22" fill="none" xmlns="http://www.w3.org/2000/svg">
<path d="M13.9445 1.42656L13.9445 1.42658L22.6307 10.1138C22.7485 10.2283 22.8425 10.365 22.9074 10.5159C22.973 10.6684 23.0076 10.8324 23.0091 10.9984C23.0106 11.1643 22.9791 11.329 22.9163 11.4826C22.8535 11.6363 22.7608 11.7759 22.6435 11.8933C22.5261 12.0107 22.3866 12.1036 22.233 12.1665C22.0794 12.2294 21.9149 12.2611 21.7489 12.2598C21.5829 12.2584 21.4189 12.224 21.2663 12.1586C21.1153 12.0938 20.9785 11.9998 20.8638 11.8821L12.1766 3.19489L13.9445 1.42656ZM13.9445 1.42656C13.6891 1.1712 13.386 0.968631 13.0523 0.830428C12.7187 0.692226 12.3611 0.621094 11.9999 0.621094C11.6388 0.621094 11.2812 0.692226 10.9476 0.830428C10.6139 0.968631 10.3107 1.1712 10.0554 1.42656L1.36798 10.114C1.25025 10.2287 1.15629 10.3654 1.09148 10.5165C1.02604 10.669 0.99164 10.8331 0.990277 10.9991C0.988913 11.165 1.02062 11.3296 1.08354 11.4832C1.14647 11.6368 1.23935 11.7763 1.35677 11.8936C1.47419 12.0109 1.61379 12.1037 1.76745 12.1665C1.9211 12.2292 2.08571 12.2608 2.25168 12.2593C2.41765 12.2578 2.58166 12.2232 2.73414 12.1576C2.88507 12.0927 3.0217 11.9987 3.13624 11.8809L11.8233 3.19489C11.8233 3.19485 11.8234 3.19481 11.8234 3.19477M13.9445 1.42656L11.8234 3.19477M11.8234 3.19477C11.8703 3.14803 11.9337 3.12177 11.9999 3.12177M11.8234 3.19477L11.9999 3.12177M11.9999 3.12177C12.0661 3.12177 12.1295 3.14799 12.1764 3.19467L11.9999 3.12177Z" fill="#4880FF" stroke="white"/>
<path d="M12 3.72453L12.3536 4.07809L20.5126 12.2371M12 3.72453L20.5126 12.2371M12 3.72453L11.6464 4.07809M12 3.72453L11.6464 4.07809M20.5126 12.2371C20.5347 12.2592 20.5581 12.2811 20.5851 12.3056L20.75 12.4545V12.6766V18.8746C20.75 20.1858 19.6861 21.2496 18.375 21.2496H15C14.6685 21.2496 14.3505 21.1179 14.1161 20.8835C13.8817 20.6491 13.75 20.3312 13.75 19.9996V15.4996C13.75 15.4333 13.7237 15.3697 13.6768 15.3229C13.6299 15.276 13.5663 15.2496 13.5 15.2496H10.5C10.4337 15.2496 10.3701 15.276 10.3232 15.3229C10.2763 15.3697 10.25 15.4333 10.25 15.4996V19.9996C10.25 20.3312 10.1183 20.6491 9.88388 20.8835L9.53033 20.53M20.5126 12.2371L9.53033 20.53M9.53033 20.53L9.88388 20.8835C9.64946 21.1179 9.33152 21.2496 9 21.2496H5.625C4.99511 21.2496 4.39102 20.9994 3.94562 20.554C3.50022 20.1086 3.25 19.5045 3.25 18.8746V12.6766V12.4531M9.53033 20.53L3.25 12.4531M11.6464 4.07809L3.48777 12.2368C3.48772 12.2368 3.48768 12.2369 3.48764 12.2369C3.46458 12.2599 3.44091 12.2823 3.41663 12.304L3.25 12.4531M11.6464 4.07809L3.25 12.4531" fill="#4880FF" stroke="white"/>
</svg>
