<svg width="23" height="24" viewBox="0 0 23 24" fill="none" xmlns="http://www.w3.org/2000/svg">
<path d="M9.95191 8.95191L9.95179 8.95204C9.58389 9.31967 9.30943 9.7704 9.1518 10.266C8.99415 10.7616 8.95774 11.2878 9.04562 11.8003C9.13351 12.3129 9.34312 12.7969 9.65685 13.2117C9.97059 13.6265 10.3793 13.9599 10.8486 14.184C11.4716 14.4814 11.7355 15.2276 11.4381 15.8506C11.1406 16.4736 10.3944 16.7375 9.77146 16.4401C8.94112 16.0436 8.21805 15.4537 7.66298 14.7199C7.10792 13.986 6.73706 13.1297 6.58158 12.2228C6.42609 11.3159 6.49051 10.385 6.76942 9.50814C7.04829 8.63146 7.53345 7.83448 8.18414 7.18415L9.95191 8.95191ZM9.95191 8.95191L14.4519 4.45191C15.0614 3.84241 15.8881 3.5 16.75 3.5C17.612 3.5 18.4386 3.84241 19.0481 4.45191C19.6576 5.06141 20.0001 5.88807 20.0001 6.75003C20.0001 7.61199 19.6576 8.43865 19.0481 9.04814L17.2911 10.8051C16.803 11.2933 16.803 12.0848 17.2911 12.5729C17.7793 13.0611 18.5708 13.0611 19.0589 12.5729L20.8159 10.8159C21.8942 9.73757 22.5001 8.27503 22.5001 6.75003C22.5001 5.22503 21.8942 3.76248 20.8159 2.68414C19.7376 1.60581 18.275 1 16.75 1C15.225 1 13.7625 1.6058 12.6841 2.68414L8.18425 7.18404C8.18422 7.18407 8.18419 7.1841 8.18416 7.18413L9.95191 8.95191ZM14.8132 16.8186L14.8158 16.816C14.8158 16.816 14.8159 16.8159 14.8159 16.8159C15.4666 16.1656 15.9518 15.3686 16.2306 14.4919C16.5095 13.6151 16.574 12.6841 16.4185 11.7772C16.263 10.8704 15.8921 10.014 15.3371 9.2802C14.782 8.54636 14.0589 7.95644 13.2286 7.56C12.6056 7.26256 11.8594 7.52647 11.562 8.14946C11.2646 8.77245 11.5285 9.51861 12.1515 9.81605C12.6208 10.0401 13.0295 10.3736 13.3432 10.7883C13.6569 11.2031 13.8665 11.6871 13.9544 12.1997C14.0423 12.7123 14.0059 13.2385 13.8483 13.7341C13.6906 14.2297 13.4162 14.6804 13.0483 15.048L13.0481 15.0481L8.54814 19.5481C7.93865 20.1576 7.11199 20.5001 6.25003 20.5001C5.38807 20.5001 4.56141 20.1576 3.95191 19.5481C3.34241 18.9386 3 18.112 3 17.25C3 16.3881 3.34241 15.5614 3.95191 14.9519L5.70891 13.1949C6.19707 12.7068 6.19707 11.9153 5.70891 11.4271C5.22076 10.939 4.4293 10.939 3.94114 11.4271L2.18414 13.1841C1.1058 14.2625 0.5 15.725 0.5 17.25C0.5 18.775 1.10581 20.2376 2.18414 21.3159C3.26248 22.3942 4.72503 23.0001 6.25003 23.0001C7.77503 23.0001 9.23757 22.3942 10.3159 21.3159L14.8132 16.8186Z" fill="#4880FF" stroke="white" stroke-linecap="round" stroke-linejoin="round"/>
</svg>
