<svg width="21" height="22" viewBox="0 0 21 22" fill="none" xmlns="http://www.w3.org/2000/svg">
<path d="M6.13311 7.11667L6.13267 7.11623C5.8983 6.88214 5.58059 6.75066 5.24934 6.75066C4.91809 6.75066 4.60038 6.88214 4.36601 7.11623L4.36579 7.11645L1.36579 10.1164L1.36557 10.1167C1.13148 10.351 1 10.6687 1 11C1 11.3313 1.13148 11.649 1.36557 11.8833L1.36579 11.8836L4.36579 14.8836L4.37202 14.8898L4.37848 14.8958C4.61544 15.1166 4.92885 15.2368 5.25268 15.2311C5.57652 15.2254 5.88549 15.0942 6.11452 14.8652C6.34354 14.6362 6.47472 14.3272 6.48044 14.0033C6.48615 13.6795 6.36595 13.3661 6.14515 13.1291L6.13913 13.1227L6.13289 13.1164L5.26645 12.25H14.9993C15.3309 12.25 15.6488 12.1183 15.8832 11.8839C16.1176 11.6495 16.2493 11.3315 16.2493 11C16.2493 10.6685 16.1176 10.3505 15.8832 10.1161C15.6488 9.8817 15.3309 9.75 14.9993 9.75H5.26645L6.13289 8.88355L6.13311 8.88333C6.3672 8.64896 6.49868 8.33125 6.49868 8C6.49868 7.66875 6.3672 7.35104 6.13311 7.11667ZM17.2064 3.54289L17.56 3.18934L17.2064 3.54289C17.394 3.73043 17.4993 3.98478 17.4993 4.25V17.75C17.4993 18.0152 17.394 18.2696 17.2064 18.4571C17.0189 18.6446 16.7646 18.75 16.4993 18.75H10.4993C10.2341 18.75 9.97977 18.6446 9.79223 18.4571C9.6047 18.2696 9.49934 18.0152 9.49934 17.75V14C9.49934 13.6685 9.36764 13.3505 9.13322 13.1161C8.8988 12.8817 8.58086 12.75 8.24934 12.75C7.91782 12.75 7.59988 12.8817 7.36546 13.1161C7.13104 13.3505 6.99934 13.6685 6.99934 14V17.75C6.99934 18.6783 7.36809 19.5685 8.02447 20.2249C8.68084 20.8813 9.57108 21.25 10.4993 21.25H16.4993C17.4276 21.25 18.3178 20.8813 18.9742 20.2249C19.6306 19.5685 19.9993 18.6783 19.9993 17.75V4.25C19.9993 3.32174 19.6306 2.4315 18.9742 1.77513C18.3178 1.11875 17.4276 0.75 16.4993 0.75H10.4993C9.57108 0.75 8.68084 1.11875 8.02447 1.77513C7.36809 2.4315 6.99934 3.32174 6.99934 4.25V8C6.99934 8.33152 7.13104 8.64946 7.36546 8.88388C7.59988 9.1183 7.91782 9.25 8.24934 9.25C8.58086 9.25 8.8988 9.1183 9.13322 8.88388C9.36764 8.64946 9.49934 8.33152 9.49934 8V4.25C9.49934 3.98478 9.6047 3.73043 9.79223 3.54289C9.97977 3.35536 10.2341 3.25 10.4993 3.25H16.4993C16.7646 3.25 17.0189 3.35536 17.2064 3.54289Z" fill="#4880FF" stroke="white"/>
</svg>
