<svg width="22" height="22" viewBox="0 0 22 22" fill="none" xmlns="http://www.w3.org/2000/svg">
<path d="M7.73566 2.7351L7.73574 2.73462C7.92696 1.58983 8.91733 0.75 10.0789 0.75H10.0799L11.9228 0.75C11.9228 0.75 11.9229 0.75 11.9229 0.75C12.4852 0.749889 13.0293 0.949297 13.4584 1.31274C13.8875 1.67621 14.1737 2.18015 14.2661 2.73487L14.4392 3.77137C14.4446 3.77524 14.4525 3.78015 14.4636 3.78543L14.4657 3.78646C14.8309 3.96221 15.1822 4.16548 15.5165 4.39451L15.2339 4.807M7.73566 2.7351L19.7918 9.69391C20.6886 8.95642 20.9199 7.67966 20.3402 6.67341L20.3399 6.67301L19.4179 5.07601L19.4179 5.07596C19.1367 4.58904 18.6919 4.21767 18.1626 4.02794C17.6334 3.83823 17.054 3.84242 16.5275 4.03976C16.5275 4.03978 16.5274 4.03981 16.5274 4.03983L15.5419 4.4089C15.5355 4.40607 15.5267 4.40147 15.5158 4.39404L15.2339 4.807M7.73566 2.7351L7.56375 3.77048C7.5579 3.77491 7.54904 3.78068 7.53626 3.78686L7.75391 4.237M7.73566 2.7351L3.02431 11.6074C2.99394 11.2033 2.99395 10.7976 3.02432 10.3935L3.02448 10.3913C3.02539 10.3799 3.02512 10.3713 3.02452 10.3651L2.2111 9.695C1.7771 9.33767 1.48393 8.83798 1.38373 8.2848C1.28354 7.73164 1.38281 7.16086 1.6639 6.67401C1.6639 6.674 1.6639 6.674 1.6639 6.674L2.58579 5.07718C2.58583 5.07712 2.58586 5.07706 2.5859 5.07701C2.86688 4.58994 3.31157 4.21838 3.84083 4.02843C4.37014 3.83846 4.9497 3.84248 5.47633 4.03978L5.47673 4.03993L6.46025 4.40936C6.46593 4.40676 6.47364 4.4026 6.48318 4.39599L6.48549 4.39439L6.4855 4.3944C6.82016 4.16533 7.17177 3.96206 7.53729 3.78636L7.75391 4.237M15.2339 4.807C14.9205 4.5923 14.5912 4.40175 14.2489 4.237L18.9849 5.326C18.7629 4.94159 18.4118 4.6484 17.9939 4.49861C17.576 4.34883 17.1186 4.35215 16.7029 4.508L15.6829 4.89C15.5689 4.933 15.4009 4.921 15.2339 4.807ZM14.4667 18.2121C14.8334 18.0361 15.1839 17.8325 15.5161 17.6048C15.5266 17.5976 15.5351 17.5932 15.5413 17.5905L16.5285 17.9602L16.5289 17.9604C17.0552 18.157 17.6342 18.1607 18.163 17.9707C18.6917 17.7808 19.1359 17.4097 19.4168 16.9232C19.4169 16.9231 19.4169 16.9231 19.4169 16.923L20.3398 15.3262L20.3399 15.326C20.621 14.8391 20.7203 14.2684 20.6201 13.7152C20.5199 13.1621 20.2268 12.6624 19.7928 12.3051C19.7928 12.3051 19.7928 12.305 19.7927 12.305L18.9793 11.6349C18.9787 11.6287 18.9784 11.6201 18.9793 11.6087L18.9795 11.6064C19.0098 11.2024 19.0098 10.7966 18.9795 10.3926L18.9793 10.3901C18.9784 10.3783 18.9787 10.3694 18.9794 10.3632L19.7914 9.69425L14.2489 17.762M14.4667 18.2121C14.4662 18.2123 14.4657 18.2126 14.4651 18.2128L14.2489 17.762M14.4667 18.2121C14.467 18.2119 14.4673 18.2118 14.4676 18.2116L14.2489 17.762M14.4667 18.2121C14.4538 18.2184 14.4449 18.2243 14.4392 18.2286M14.2489 17.762C14.0659 17.851 13.9719 17.991 13.9519 18.111M14.4392 18.2286L14.4451 18.1932M14.4392 18.2286C14.4388 18.229 14.4383 18.2293 14.4379 18.2297C14.4321 18.2342 14.4298 18.2371 14.4298 18.2371C14.4297 18.2373 14.432 18.2345 14.435 18.2278C14.438 18.2214 14.4423 18.21 14.4451 18.1932M14.4392 18.2286L14.2672 19.2649L14.2671 19.2654C14.0758 20.4103 13.0843 21.25 11.9239 21.25H10.0799C8.91833 21.25 7.92796 20.4102 7.73674 19.2654L7.73668 19.265L7.56438 18.2283M14.4451 18.1932L14.4452 18.1929L13.9519 18.111M14.4451 18.1932L13.9519 18.111M13.9519 18.111L13.7739 19.183C13.6229 20.087 12.8399 20.75 11.9239 20.75H10.0799C9.16291 20.75 8.38091 20.087 8.22991 19.183L8.05191 18.112C8.03191 17.99 7.93691 17.85 7.75491 17.762M7.56438 18.2283C7.57127 18.2335 7.57386 18.2368 7.57373 18.2366L7.57223 18.2344C7.5713 18.2329 7.56996 18.2305 7.56842 18.2272C7.56551 18.2209 7.56139 18.2099 7.55868 18.194L7.56438 18.2283ZM7.56438 18.2283C7.55874 18.224 7.55022 18.2185 7.53797 18.2125M7.53797 18.2125C7.5382 18.2126 7.53844 18.2127 7.53867 18.2128L7.75491 17.762M7.53797 18.2125C7.53773 18.2124 7.5375 18.2123 7.53726 18.2121L7.75491 17.762M7.53797 18.2125C7.17127 18.0366 6.82086 17.8331 6.48881 17.6055M7.75491 17.762C7.41091 17.597 7.08191 17.406 6.76991 17.192M6.76991 17.192L6.48971 17.6061C6.48941 17.6059 6.48911 17.6057 6.48881 17.6055M6.76991 17.192C6.60291 17.079 6.43491 17.067 6.31991 17.11L5.30091 17.492M6.76991 17.192L6.48709 17.6043C6.48767 17.6047 6.48824 17.6051 6.48881 17.6055M6.48881 17.6055C6.47747 17.5979 6.46841 17.5934 6.46205 17.5907M5.30091 17.492L5.47645 17.9602M5.30091 17.492L5.47642 17.9602L5.47645 17.9602M5.30091 17.492C4.88527 17.6478 4.42781 17.6512 4.00994 17.5014L1.6639 15.327M6.46205 17.5907L6.49503 17.5783M6.46205 17.5907C6.46144 17.5904 6.46085 17.5902 6.46029 17.59C6.45369 17.5873 6.45025 17.5868 6.45023 17.5868C6.4501 17.5868 6.45364 17.5874 6.46077 17.5867C6.46772 17.5861 6.47949 17.5841 6.49503 17.5783M6.46205 17.5907L5.47645 17.9602M6.49503 17.5783L6.49542 17.5782L6.31998 17.1102L6.49503 17.5783ZM5.47645 17.9602C4.94997 18.1576 4.37052 18.1618 3.84122 17.9721C3.31192 17.7823 2.8671 17.411 2.58592 16.924L2.5859 16.924L1.6639 15.327M1.6639 15.327L2.09691 15.077L1.6639 15.327L1.6639 15.327ZM1.6639 15.327C1.38281 14.8401 1.28354 14.2694 1.38373 13.7162C1.48393 13.163 1.7771 12.6633 2.2111 12.306L2.21122 12.3059L3.02395 11.6372M1.6639 15.327L3.02432 11.6075C3.0253 11.6207 3.02477 11.6305 3.02395 11.6372M3.02395 11.6372C3.02386 11.6378 3.02378 11.6385 3.02369 11.6391C3.02272 11.6458 3.02151 11.649 3.02146 11.6491C3.02138 11.6493 3.02256 11.6461 3.02652 11.6405C3.03036 11.6351 3.03779 11.6259 3.05062 11.6152M3.02395 11.6372L3.05062 11.6152M3.05062 11.6152L3.36991 12L3.05222 11.6139L3.05062 11.6152ZM7.75391 4.237C7.93591 4.149 8.03091 4.009 8.05091 3.889L4.00973 4.49904C4.42761 4.34906 4.88515 4.35224 5.30091 4.508L6.31791 4.89M7.75391 4.237C7.41126 4.40171 7.08164 4.59226 6.76791 4.807C6.60191 4.922 6.43391 4.933 6.31791 4.89M6.31791 4.89L6.49373 4.42193L6.4917 4.42117L6.31791 4.89ZM13.299 13.2981C12.6895 13.9076 11.8629 14.25 11.0009 14.25C10.139 14.25 9.31231 13.9076 8.70281 13.2981C8.09332 12.6886 7.75091 11.862 7.75091 11C7.75091 10.138 8.09332 9.3114 8.70281 8.7019C9.31231 8.09241 10.139 7.75 11.0009 7.75C11.8629 7.75 12.6895 8.09241 13.299 8.7019C13.9085 9.3114 14.2509 10.138 14.2509 11C14.2509 11.862 13.9085 12.6886 13.299 13.2981Z" fill="#4880FF" stroke="white"/>
</svg>
