<svg width="23" height="18" viewBox="0 0 23 18" fill="none" xmlns="http://www.w3.org/2000/svg">
<path d="M22.0542 6.84664L22.0458 6.83822L22.037 6.83022L15.4448 0.83738C15.256 0.651996 15.0232 0.526284 14.7609 0.50361C14.4932 0.480479 14.2502 0.569596 14.0594 0.715512C13.6904 0.997687 13.5006 1.49098 13.5006 2.00019V4.51068C8.81032 4.70786 4.86396 7.66289 2.95559 11.5721C2.22612 12.9298 1.8152 14.3793 1.51174 15.7954L1.51169 15.7954L1.51035 15.8021C1.34684 16.6197 1.90325 17.1964 2.49673 17.3884C3.09035 17.5805 3.86843 17.4499 4.31666 16.7775L4.31681 16.7776L4.32396 16.7663C6.35468 13.5356 9.69784 11.3856 13.5006 11.2116V14.0002C13.5006 14.5094 13.6904 15.0027 14.0594 15.2849C14.2502 15.4308 14.4932 15.5199 14.7609 15.4968C15.0232 15.4741 15.256 15.3484 15.4449 15.163L22.037 9.17016L22.0458 9.16216L22.0542 9.15374C22.3692 8.83876 22.5006 8.39943 22.5006 8.00019C22.5006 7.60095 22.3692 7.16162 22.0542 6.84664Z" fill="#4880FF" stroke="white"/>
</svg>
