<svg width="24" height="21" viewBox="0 0 24 21" fill="none" xmlns="http://www.w3.org/2000/svg">
<path d="M12.0003 9.5C10.7822 9.49931 9.58367 9.80573 8.5154 10.3909C7.44714 10.9761 6.54365 11.8212 5.88849 12.8481L5.81 12.9711L18.709 17.498L19.2059 17.5538C19.3198 16.54 19.2183 15.5135 18.908 14.5416C18.5977 13.5697 18.0856 12.6743 17.4053 11.914C16.725 11.1537 15.8918 10.5456 14.9603 10.1296C14.0289 9.71372 13.0203 9.49917 12.0003 9.5ZM12.0003 9.5L12 10L11.9995 9.5C11.9998 9.5 12 9.5 12.0003 9.5ZM11.9993 20.25C11.9995 20.25 11.9998 20.25 12 20.25V19.75L11.9993 20.25ZM5.81 12.9753V13.117V13.118H6.31L6.30843 13.117L5.88804 12.8498C5.86158 12.8914 5.83557 12.9332 5.81 12.9753ZM8.9948 1.7448C8.19777 2.54183 7.75 3.62283 7.75 4.75C7.75 4.94982 7.76407 5.14818 7.79166 5.34377C7.76974 5.32062 7.74748 5.29773 7.72487 5.27513C7.0685 4.61875 6.17826 4.25 5.25 4.25C4.32174 4.25 3.4315 4.61875 2.77513 5.27513C2.11875 5.9315 1.75 6.82174 1.75 7.75C1.75 8.67826 2.11875 9.5685 2.77513 10.2249C3.4315 10.8813 4.32174 11.25 5.25 11.25C6.17826 11.25 7.0685 10.8813 7.72487 10.2249C8.38125 9.5685 8.75 8.67826 8.75 7.75C8.75 7.65817 8.74639 7.56672 8.73925 7.47583C8.81992 7.57232 8.90515 7.66556 8.9948 7.7552C9.79183 8.55223 10.8728 9 12 9C13.1272 9 14.2082 8.55223 15.0052 7.7552C15.0949 7.66556 15.1801 7.57232 15.2608 7.47582C15.2536 7.56672 15.25 7.65817 15.25 7.75C15.25 8.67826 15.6187 9.5685 16.2751 10.2249C16.9315 10.8813 17.8217 11.25 18.75 11.25C19.6783 11.25 20.5685 10.8813 21.2249 10.2249C21.8813 9.5685 22.25 8.67826 22.25 7.75C22.25 6.82174 21.8813 5.9315 21.2249 5.27513C20.5685 4.61875 19.6783 4.25 18.75 4.25C17.8217 4.25 16.9315 4.61875 16.2751 5.27513C16.2525 5.29773 16.2303 5.32062 16.2083 5.34377C16.2359 5.14818 16.25 4.94982 16.25 4.75C16.25 3.62283 15.8022 2.54183 15.0052 1.7448C14.2082 0.947767 13.1272 0.5 12 0.5C10.8728 0.5 9.79183 0.947767 8.9948 1.7448Z" fill="#4880FF" stroke="white"/>
<path d="M19.6798 17.9773L19.7275 17.3509C19.857 15.6514 19.4252 13.9563 18.4984 12.5258L17.9706 11.7109L18.9405 11.7544C19.5107 11.78 20.07 11.9201 20.5848 12.1666C21.0997 12.413 21.5597 12.7606 21.9373 13.1886C22.3149 13.6167 22.6024 14.1165 22.7827 14.6581C22.9629 15.1997 23.0323 15.772 22.9865 16.341L22.9864 16.3421L22.9765 16.4615C22.9765 16.4618 22.9765 16.4621 22.9764 16.4624L22.9764 16.4631L22.4781 16.4219C22.4695 16.5303 22.4297 16.6338 22.3635 16.7201C22.2973 16.8063 22.2075 16.8716 22.1051 16.9079L19.6798 17.9773ZM19.6798 17.9773L20.3009 17.8833C20.9403 17.7865 21.5596 17.6299 22.1553 17.4198L19.6798 17.9773ZM5.50172 12.5258L6.02959 11.7109L5.05969 11.7544C4.48945 11.78 3.9302 11.9201 3.41531 12.1666C2.90043 12.413 2.44046 12.7606 2.06284 13.1886C1.68523 13.6167 1.39772 14.1165 1.21747 14.6581C1.03721 15.1997 0.96791 15.772 1.01369 16.341L1.01378 16.3421L1.02358 16.4606C1.02362 16.4611 1.02366 16.4616 1.02369 16.462C1.03984 16.6665 1.11478 16.8619 1.23948 17.0247C1.36448 17.1879 1.53411 17.3114 1.72784 17.3801L1.72784 17.3801L1.73082 17.3812L1.84408 17.4205C1.84437 17.4206 1.84466 17.4207 1.84495 17.4208C2.44715 17.6327 3.06794 17.7876 3.69913 17.8833L4.32035 17.9774L4.27264 17.3509C4.1432 15.6514 4.57498 13.9563 5.50172 12.5258Z" fill="#4880FF" stroke="white"/>
</svg>
