<svg width="24" height="24" viewBox="0 0 24 24" fill="none" xmlns="http://www.w3.org/2000/svg">
<circle cx="12.185" cy="12.0795" r="11.6108" fill="#4880FF"/>
<circle cx="12.1853" cy="12.0798" r="8.93138" fill="white"/>
<path fill-rule="evenodd" clip-rule="evenodd" d="M12.1847 7.43555C11.3297 7.43555 10.6366 8.12866 10.6366 8.98365V10.5318H9.08912C8.23413 10.5318 7.54102 11.2249 7.54102 12.0799C7.54102 12.9349 8.23413 13.628 9.08912 13.628H10.6366V15.1761C10.6366 16.0311 11.3297 16.7242 12.1847 16.7242C13.0397 16.7242 13.7328 16.0311 13.7328 15.1761V13.628H15.2815C16.1365 13.628 16.8297 12.9349 16.8297 12.0799C16.8297 11.2249 16.1365 10.5318 15.2815 10.5318H13.7328V8.98365C13.7328 8.12866 13.0397 7.43555 12.1847 7.43555Z" fill="#4880FF"/>
</svg>
